<?xml version="1.0" encoding="UTF-8" standalone="no"?>
<svg width="20px" height="17px" viewBox="0 0 20 17" version="1.1" xmlns="http://www.w3.org/2000/svg" xmlns:xlink="http://www.w3.org/1999/xlink" xmlns:sketch="http://www.bohemiancoding.com/sketch/ns">
    <!-- Generator: Sketch 3.3 (11970) - http://www.bohemiancoding.com/sketch -->
    <title>archive</title>
    <desc>Created with Sketch.</desc>
    <defs></defs>
    <g id="cheatsheet" stroke="none" stroke-width="1" fill="none" fill-rule="evenodd" sketch:type="MSPage">
        <g id="ligatures" sketch:type="MSArtboardGroup" transform="translate(-86.000000, -94.000000)" fill="#4A4A4A">
            <path d="M102.953125,97.9921875 C102.953125,97.4973934 102.790366,97.2109379 102.464844,97.1328125 C102.139321,97.0546871 101.976562,97.015625 101.976562,97.015625 L90.0234375,97.015625 C90.0234375,97.015625 89.8606787,97.0546871 89.5351562,97.1328125 C89.2096338,97.2109379 89.046875,97.4973934 89.046875,97.9921875 L89.046875,99.0078125 L102.953125,99.0078125 L102.953125,97.9921875 Z M99.984375,94.984375 L92.015625,94.984375 C92.015625,94.984375 91.8528662,95.0299475 91.5273438,95.1210938 C91.2018213,95.21224 91.0390625,95.5052059 91.0390625,96 L100.960938,96 C100.960938,95.5052059 100.798179,95.21224 100.472656,95.1210938 C100.147134,95.0299475 99.984375,94.984375 99.984375,94.984375 L99.984375,94.984375 Z M104.945312,99.0078125 C104.658853,98.6953109 104.489584,98.5195314 104.4375,98.4804688 C104.385416,98.4414061 104.359375,98.421875 104.359375,98.421875 L104.359375,99.984375 L87.640625,99.984375 L87.640625,98.421875 C87.640625,98.421875 87.6145836,98.4414061 87.5625,98.4804688 C87.5104164,98.5195314 87.3411473,98.6953109 87.0546875,99.0078125 C86.8984367,99.1380215 86.7617193,99.2617182 86.6445312,99.3789062 C86.5273432,99.4960943 86.4296879,99.619791 86.3515625,99.75 C86.2734371,99.880209 86.2278646,100.042968 86.2148438,100.238281 C86.2018229,100.433595 86.2213539,100.687498 86.2734375,101 C86.3255211,101.312502 86.4296867,101.911454 86.5859375,102.796875 C86.7421883,103.682296 86.8984367,104.619787 87.0546875,105.609375 C87.2369801,106.598963 87.3997389,107.523433 87.5429688,108.382812 C87.6861986,109.242192 87.7708332,109.776041 87.796875,109.984375 C87.9010422,110.505211 88.1354148,110.804687 88.5,110.882812 C88.8645852,110.960938 89.046875,111 89.046875,111 L102.953125,111 C102.953125,111 103.135415,110.960938 103.5,110.882812 C103.864585,110.804687 104.098958,110.505211 104.203125,109.984375 C104.229167,109.776041 104.313801,109.242192 104.457031,108.382812 C104.600261,107.523433 104.76302,106.598963 104.945312,105.609375 C105.101563,104.619787 105.257812,103.682296 105.414062,102.796875 C105.570313,101.911454 105.674479,101.312502 105.726562,101 C105.778646,100.687498 105.798177,100.433595 105.785156,100.238281 C105.772135,100.042968 105.726563,99.880209 105.648438,99.75 C105.570312,99.619791 105.472657,99.4960943 105.355469,99.3789062 C105.238281,99.2617182 105.101563,99.1380215 104.945312,99.0078125 L104.945312,99.0078125 Z M99.984375,104.398438 C99.984375,104.398438 99.9453129,104.567707 99.8671875,104.90625 C99.7890621,105.244793 99.4895859,105.414062 98.96875,105.414062 L93.03125,105.414062 C92.5104141,105.414062 92.2109379,105.244793 92.1328125,104.90625 C92.0546871,104.567707 92.015625,104.398438 92.015625,104.398438 L92.015625,102.40625 L93.421875,102.40625 L93.421875,104.007812 L98.578125,104.007812 L98.578125,102.40625 L99.984375,102.40625 L99.984375,104.398438 Z" id="archive" sketch:type="MSShapeGroup"></path>
        </g>
    </g>
</svg>