<?xml version="1.0" encoding="UTF-8" standalone="no"?>
<svg width="14px" height="12px" viewBox="0 0 14 12" version="1.1" xmlns="http://www.w3.org/2000/svg" xmlns:xlink="http://www.w3.org/1999/xlink" xmlns:sketch="http://www.bohemiancoding.com/sketch/ns">
    <!-- Generator: Sketch 3.3 (11970) - http://www.bohemiancoding.com/sketch -->
    <title>bars</title>
    <desc>Created with Sketch.</desc>
    <defs></defs>
    <g id="cheatsheet" stroke="none" stroke-width="1" fill="none" fill-rule="evenodd" sketch:type="MSPage">
        <g id="ligatures" sketch:type="MSArtboardGroup" transform="translate(-89.000000, -149.000000)" fill="#4A4A4A">
            <path d="M101.507812,152.015625 L90.4921875,152.015625 C90.3619785,152.015625 90.2447922,151.963542 90.140625,151.859375 C90.0364578,151.755208 89.984375,151.638021 89.984375,151.507812 L89.984375,149.515625 C89.984375,149.359374 90.0364578,149.235678 90.140625,149.144531 C90.2447922,149.053385 90.3619785,149.007812 90.4921875,149.007812 L101.507812,149.007812 C101.638021,149.007812 101.755208,149.053385 101.859375,149.144531 C101.963542,149.235678 102.015625,149.359374 102.015625,149.515625 L102.015625,151.507812 C102.015625,151.638021 101.963542,151.755208 101.859375,151.859375 C101.755208,151.963542 101.638021,152.015625 101.507812,152.015625 L101.507812,152.015625 Z M101.46875,156.507812 L90.453125,156.507812 C90.322916,156.507812 90.21224,156.45573 90.1210938,156.351562 C90.0299475,156.247395 89.984375,156.130209 89.984375,156 L89.984375,154.007812 C89.984375,153.877604 90.0299475,153.760417 90.1210938,153.65625 C90.21224,153.552083 90.322916,153.5 90.453125,153.5 L101.46875,153.5 C101.598959,153.5 101.716145,153.552083 101.820312,153.65625 C101.92448,153.760417 101.976562,153.877604 101.976562,154.007812 L101.976562,156 C101.976562,156.130209 101.92448,156.247395 101.820312,156.351562 C101.716145,156.45573 101.598959,156.507812 101.46875,156.507812 L101.46875,156.507812 Z M101.46875,161 L90.453125,161 C90.322916,161 90.21224,160.947917 90.1210938,160.84375 C90.0299475,160.739583 89.984375,160.622396 89.984375,160.492188 L89.984375,158.5 C89.984375,158.369791 90.0299475,158.252605 90.1210938,158.148438 C90.21224,158.04427 90.322916,157.992188 90.453125,157.992188 L101.46875,157.992188 C101.598959,157.992188 101.716145,158.04427 101.820312,158.148438 C101.92448,158.252605 101.976562,158.369791 101.976562,158.5 L101.976562,160.492188 C101.976562,160.622396 101.92448,160.739583 101.820312,160.84375 C101.716145,160.947917 101.598959,161 101.46875,161 L101.46875,161 Z" id="bars" sketch:type="MSShapeGroup"></path>
        </g>
    </g>
</svg>