<?xml version="1.0" encoding="UTF-8" standalone="no"?>
<svg width="16px" height="18px" viewBox="0 0 16 18" version="1.1" xmlns="http://www.w3.org/2000/svg" xmlns:xlink="http://www.w3.org/1999/xlink" xmlns:sketch="http://www.bohemiancoding.com/sketch/ns">
    <!-- Generator: Sketch 3.3 (11970) - http://www.bohemiancoding.com/sketch -->
    <title>bell</title>
    <desc>Created with Sketch.</desc>
    <defs></defs>
    <g id="cheatsheet" stroke="none" stroke-width="1" fill="none" fill-rule="evenodd" sketch:type="MSPage">
        <g id="ligatures" sketch:type="MSArtboardGroup" transform="translate(-88.000000, -193.000000)" fill="#4A4A4A">
            <path d="M100.648438,200.53125 C100.075518,199.307286 99.5546898,198.265629 99.0859375,197.40625 C98.6171852,196.546871 98.1223984,195.856773 97.6015625,195.335938 C97.0807266,194.763018 96.4947949,194.365887 95.84375,194.144531 C95.1927051,193.923176 94.3984422,193.8125 93.4609375,193.8125 C93.1223941,193.838542 92.8750008,193.79948 92.71875,193.695312 C92.5624992,193.591145 92.4322922,193.5 92.328125,193.421875 C92.2239578,193.317708 92.1132818,193.246094 91.9960938,193.207031 C91.8789057,193.167969 91.6901055,193.174479 91.4296875,193.226562 C91.1953113,193.356771 91.0455732,193.473958 90.9804688,193.578125 C90.9153643,193.682292 90.8697918,193.812499 90.84375,193.96875 C90.84375,194.098959 90.8111982,194.255207 90.7460938,194.4375 C90.6809893,194.619793 90.5182305,194.815103 90.2578125,195.023438 C89.5286422,195.622399 88.988283,196.221351 88.6367188,196.820312 C88.2851545,197.419274 88.0833336,198.109371 88.03125,198.890625 C87.9531246,199.619795 88.0052074,200.472651 88.1875,201.449219 C88.3697926,202.425786 88.6302066,203.552077 88.96875,204.828125 C89.1250008,205.427086 89.1445318,205.882811 89.0273438,206.195312 C88.9101557,206.507814 88.7604176,206.820311 88.578125,207.132812 C88.4218742,207.39323 88.2981775,207.692707 88.2070312,208.03125 C88.115885,208.369793 88.1744781,208.799477 88.3828125,209.320312 C88.5130215,209.736981 88.8515598,210.069009 89.3984375,210.316406 C89.9453152,210.563803 90.6354125,210.739583 91.46875,210.84375 C92.2760457,210.895834 93.1940053,210.863282 94.2226562,210.746094 C95.2513072,210.628906 96.3124945,210.348961 97.40625,209.90625 C98.4739637,209.541665 99.4440061,209.066409 100.316406,208.480469 C101.188806,207.894528 101.911455,207.315107 102.484375,206.742188 C103.083336,206.117184 103.506509,205.531253 103.753906,204.984375 C104.001303,204.437497 104.059896,203.955731 103.929688,203.539062 C103.747395,203.018227 103.513022,202.660157 103.226562,202.464844 C102.940103,202.26953 102.653647,202.132813 102.367188,202.054688 C102.054686,201.898437 101.748699,201.735678 101.449219,201.566406 C101.149738,201.397135 100.882814,201.052086 100.648438,200.53125 L100.648438,200.53125 Z M96.9375,208.617188 C94.9843652,209.320316 93.3112049,209.58073 91.9179688,209.398438 C90.5247326,209.216145 89.7890629,209.020834 89.7109375,208.8125 C89.6588539,208.682291 89.7174471,208.441408 89.8867188,208.089844 C90.0559904,207.738279 90.361977,207.367189 90.8046875,206.976562 C91.247398,206.559894 91.8463504,206.130211 92.6015625,205.6875 C93.3567746,205.244789 94.2942652,204.802086 95.4140625,204.359375 C96.507818,203.968748 97.4908811,203.688803 98.3632812,203.519531 C99.2356814,203.35026 99.9713512,203.291666 100.570312,203.34375 C101.169274,203.34375 101.638019,203.421874 101.976562,203.578125 C102.315106,203.734376 102.510416,203.890624 102.5625,204.046875 C102.614584,204.177084 102.529949,204.411457 102.308594,204.75 C102.087238,205.088543 101.74219,205.492185 101.273438,205.960938 C100.804685,206.403648 100.205733,206.872393 99.4765625,207.367188 C98.7473922,207.861982 97.9010465,208.265623 96.9375,208.578125 L96.9375,208.617188 Z M95.6875,205.140625 C95.1666641,205.296876 94.6914084,205.485676 94.2617188,205.707031 C93.8320291,205.928387 93.4348977,206.117187 93.0703125,206.273438 C92.7057273,206.507814 92.3802098,206.722655 92.09375,206.917969 C91.8072902,207.113282 91.5468762,207.315103 91.3125,207.523438 C91.4687508,207.653646 91.6640613,207.770833 91.8984375,207.875 C92.1328137,207.979167 92.380207,208.03125 92.640625,208.03125 C92.901043,208.083334 93.1809881,208.083334 93.4804688,208.03125 C93.7799494,207.979166 94.0729152,207.901042 94.359375,207.796875 C94.750002,207.640624 95.0950506,207.458334 95.3945312,207.25 C95.6940119,207.041666 95.9348949,206.794272 96.1171875,206.507812 C96.3255219,206.273436 96.4557289,206.006512 96.5078125,205.707031 C96.5598961,205.407551 96.5468754,205.140626 96.46875,204.90625 L96.46875,204.867188 L96.4296875,204.828125 C96.3255203,204.90625 96.208334,204.958333 96.078125,204.984375 C95.947916,205.010417 95.817709,205.0625 95.6875,205.140625 L95.6875,205.140625 Z" id="bell" sketch:type="MSShapeGroup"></path>
        </g>
    </g>
</svg>