<?xml version="1.0" encoding="UTF-8" standalone="no"?>
<svg width="17px" height="17px" viewBox="0 0 17 17" version="1.1" xmlns="http://www.w3.org/2000/svg" xmlns:xlink="http://www.w3.org/1999/xlink" xmlns:sketch="http://www.bohemiancoding.com/sketch/ns">
    <!-- Generator: Sketch 3.3 (11970) - http://www.bohemiancoding.com/sketch -->
    <title>broadcast</title>
    <desc>Created with Sketch.</desc>
    <defs></defs>
    <g id="cheatsheet" stroke="none" stroke-width="1" fill="none" fill-rule="evenodd" sketch:type="MSPage">
        <g id="ligatures" sketch:type="MSArtboardGroup" transform="translate(-87.000000, -245.000000)" fill="#4A4A4A">
            <path d="M87.9921875,245.804688 L87.9921875,248.1875 C89.7630297,248.161458 91.4296797,248.493486 92.9921875,249.183594 C94.5546953,249.873701 95.9218691,250.791661 97.09375,251.9375 C98.2395891,253.109381 99.1510383,254.470044 99.828125,256.019531 C100.505212,257.569018 100.84375,259.242179 100.84375,261.039062 L103.1875,261 C103.1875,258.916656 102.790369,256.95053 101.996094,255.101562 C101.201819,253.252595 100.11459,251.651048 98.734375,250.296875 C97.3802016,248.890618 95.7786551,247.796879 93.9296875,247.015625 C92.0807199,246.234371 90.101573,245.830729 87.9921875,245.804688 L87.9921875,245.804688 Z M87.9921875,250.570312 L87.9921875,252.914062 C89.1119848,252.940104 90.1666617,253.154946 91.15625,253.558594 C92.1458383,253.962242 93.0052047,254.541663 93.734375,255.296875 C94.4635453,256.026045 95.0364563,256.885412 95.453125,257.875 C95.8697937,258.864588 96.078125,259.906245 96.078125,261 L98.4609375,261.039062 C98.4609375,259.55468 98.1875027,258.187506 97.640625,256.9375 C97.0937473,255.687494 96.3515672,254.580734 95.4140625,253.617188 C94.450516,252.679683 93.3372459,251.930992 92.0742188,251.371094 C90.8111916,250.811195 89.4505281,250.544271 87.9921875,250.570312 L87.9921875,250.570312 Z M90.2578125,256.46875 C89.9453109,256.494792 89.6523451,256.559895 89.3789062,256.664062 C89.1054674,256.76823 88.8645844,256.937499 88.65625,257.171875 C88.4479156,257.354168 88.2851568,257.58854 88.1679688,257.875 C88.0507807,258.16146 87.9921875,258.447915 87.9921875,258.734375 C87.9921875,259.072918 88.0507807,259.372395 88.1679688,259.632812 C88.2851568,259.89323 88.4479156,260.140624 88.65625,260.375 C88.8645844,260.557293 89.1054674,260.713541 89.3789062,260.84375 C89.6523451,260.973959 89.9453109,261.026042 90.2578125,261 C90.5703141,261.026042 90.8697902,260.973959 91.15625,260.84375 C91.4427098,260.713541 91.6770824,260.557293 91.859375,260.375 C92.0677094,260.140624 92.2369785,259.89323 92.3671875,259.632812 C92.4973965,259.372395 92.5625,259.072918 92.5625,258.734375 C92.5625,258.447915 92.4973965,258.16146 92.3671875,257.875 C92.2369785,257.58854 92.0677094,257.354168 91.859375,257.171875 C91.6770824,256.937499 91.4427098,256.76823 91.15625,256.664062 C90.8697902,256.559895 90.5703141,256.494792 90.2578125,256.46875 L90.2578125,256.46875 Z" id="broadcast" sketch:type="MSShapeGroup"></path>
        </g>
    </g>
</svg>