<?xml version="1.0" encoding="UTF-8" standalone="no"?>
<svg width="20px" height="17px" viewBox="0 0 20 17" version="1.1" xmlns="http://www.w3.org/2000/svg" xmlns:xlink="http://www.w3.org/1999/xlink" xmlns:sketch="http://www.bohemiancoding.com/sketch/ns">
    <!-- Generator: Sketch 3.3 (11970) - http://www.bohemiancoding.com/sketch -->
    <title>browser</title>
    <desc>Created with Sketch.</desc>
    <defs></defs>
    <g id="cheatsheet" stroke="none" stroke-width="1" fill="none" fill-rule="evenodd" sketch:type="MSPage">
        <g id="ligatures" sketch:type="MSArtboardGroup" transform="translate(-86.000000, -294.000000)" fill="#4A4A4A">
            <path d="M104.007812,294.984375 L87.9921875,294.984375 C87.7317695,294.984375 87.4778658,295.036458 87.2304688,295.140625 C86.9830717,295.244792 86.7682301,295.38802 86.5859375,295.570312 C86.4036449,295.752605 86.2604172,295.967447 86.15625,296.214844 C86.0520828,296.462241 86,296.729165 86,297.015625 L86,309.007812 C86,309.26823 86.0520828,309.522134 86.15625,309.769531 C86.2604172,310.016928 86.4036449,310.23177 86.5859375,310.414062 C86.7682301,310.596355 86.9830717,310.739583 87.2304688,310.84375 C87.4778658,310.947917 87.7317695,311 87.9921875,311 L104.007812,311 C104.26823,311 104.522134,310.947917 104.769531,310.84375 C105.016928,310.739583 105.23177,310.596355 105.414062,310.414062 C105.596355,310.23177 105.739583,310.016928 105.84375,309.769531 C105.947917,309.522134 106,309.26823 106,309.007812 L106,297.015625 C106,296.729165 105.947917,296.462241 105.84375,296.214844 C105.739583,295.967447 105.596355,295.752605 105.414062,295.570312 C105.23177,295.38802 105.016928,295.244792 104.769531,295.140625 C104.522134,295.036458 104.26823,294.984375 104.007812,294.984375 L104.007812,294.984375 Z M90.609375,296.859375 C90.8177094,296.859375 90.9934889,296.930989 91.1367188,297.074219 C91.2799486,297.217449 91.3515625,297.393228 91.3515625,297.601562 C91.3515625,297.809897 91.2799486,297.985676 91.1367188,298.128906 C90.9934889,298.272136 90.8177094,298.34375 90.609375,298.34375 C90.4010406,298.34375 90.2252611,298.272136 90.0820312,298.128906 C89.9388014,297.985676 89.8671875,297.809897 89.8671875,297.601562 C89.8671875,297.393228 89.9388014,297.217449 90.0820312,297.074219 C90.2252611,296.930989 90.4010406,296.859375 90.609375,296.859375 L90.609375,296.859375 Z M87.8359375,297.601562 C87.8359375,297.393228 87.9140617,297.217449 88.0703125,297.074219 C88.2265633,296.930989 88.4088531,296.859375 88.6171875,296.859375 C88.8255219,296.859375 89.0013014,296.930989 89.1445312,297.074219 C89.2877611,297.217449 89.359375,297.393228 89.359375,297.601562 C89.359375,297.809897 89.2877611,297.985676 89.1445312,298.128906 C89.0013014,298.272136 88.8255219,298.34375 88.6171875,298.34375 C88.4088531,298.34375 88.2265633,298.272136 88.0703125,298.128906 C87.9140617,297.985676 87.8359375,297.809897 87.8359375,297.601562 L87.8359375,297.601562 Z M104.007812,309.007812 L87.9921875,309.007812 L87.9921875,299.789062 L104.007812,299.789062 L104.007812,309.007812 Z M104.007812,298.1875 L92.015625,298.1875 L92.015625,297.015625 L104.007812,297.015625 L104.007812,298.1875 Z" id="browser" sketch:type="MSShapeGroup"></path>
        </g>
    </g>
</svg>