<?xml version="1.0" encoding="UTF-8" standalone="no"?>
<svg width="18px" height="19px" viewBox="0 0 18 19" version="1.1" xmlns="http://www.w3.org/2000/svg" xmlns:xlink="http://www.w3.org/1999/xlink" xmlns:sketch="http://www.bohemiancoding.com/sketch/ns">
    <!-- Generator: Sketch 3.3 (11970) - http://www.bohemiancoding.com/sketch -->
    <title>calendar</title>
    <desc>Created with Sketch.</desc>
    <defs></defs>
    <g id="cheatsheet" stroke="none" stroke-width="1" fill="none" fill-rule="evenodd" sketch:type="MSPage">
        <g id="ligatures" sketch:type="MSArtboardGroup" transform="translate(-87.000000, -342.000000)" fill="#4A4A4A">
            <path d="M102.992188,344.984375 L102.09375,344.984375 L102.09375,347.015625 L98.890625,347.015625 L98.890625,344.984375 L93.109375,344.984375 L93.109375,347.015625 L89.90625,347.015625 L89.90625,344.984375 L89.0078125,344.984375 C88.7213527,344.984375 88.4609387,345.036458 88.2265625,345.140625 C87.9921863,345.244792 87.7838551,345.38802 87.6015625,345.570312 C87.4192699,345.752605 87.2760422,345.967447 87.171875,346.214844 C87.0677078,346.462241 87.015625,346.729165 87.015625,347.015625 L87.015625,359.007812 C87.015625,359.26823 87.0677078,359.522134 87.171875,359.769531 C87.2760422,360.016928 87.4192699,360.23177 87.6015625,360.414062 C87.7838551,360.596355 87.9921863,360.739583 88.2265625,360.84375 C88.4609387,360.947917 88.7213527,361 89.0078125,361 L102.992188,361 C103.278647,361 103.539061,360.947917 103.773438,360.84375 C104.007814,360.739583 104.216145,360.596355 104.398438,360.414062 C104.58073,360.23177 104.723958,360.016928 104.828125,359.769531 C104.932292,359.522134 104.984375,359.26823 104.984375,359.007812 L104.984375,347.015625 C104.984375,346.729165 104.932292,346.462241 104.828125,346.214844 C104.723958,345.967447 104.58073,345.752605 104.398438,345.570312 C104.216145,345.38802 104.007814,345.244792 103.773438,345.140625 C103.539061,345.036458 103.278647,344.984375 102.992188,344.984375 L102.992188,344.984375 Z M102.992188,359.007812 L89.0078125,359.007812 L89.0078125,351 L102.992188,351 L102.992188,359.007812 Z M92.2109375,342.992188 L90.8046875,342.992188 L90.8046875,346.390625 L92.2109375,346.390625 L92.2109375,342.992188 Z M101.195312,342.992188 L99.7890625,342.992188 L99.7890625,346.390625 L101.195312,346.390625 L101.195312,342.992188 Z" id="calendar" sketch:type="MSShapeGroup"></path>
        </g>
    </g>
</svg>