<?xml version="1.0" encoding="UTF-8" standalone="no"?>
<svg width="20px" height="16px" viewBox="0 0 20 16" version="1.1" xmlns="http://www.w3.org/2000/svg" xmlns:xlink="http://www.w3.org/1999/xlink" xmlns:sketch="http://www.bohemiancoding.com/sketch/ns">
    <!-- Generator: Sketch 3.3 (11970) - http://www.bohemiancoding.com/sketch -->
    <title>camera</title>
    <desc>Created with Sketch.</desc>
    <defs></defs>
    <g id="cheatsheet" stroke="none" stroke-width="1" fill="none" fill-rule="evenodd" sketch:type="MSPage">
        <g id="ligatures" sketch:type="MSArtboardGroup" transform="translate(-86.000000, -394.000000)" fill="#4A4A4A">
            <path d="M96,399.984375 C95.5833313,399.984375 95.1927102,400.062499 94.828125,400.21875 C94.4635398,400.375001 94.151043,400.596353 93.890625,400.882812 C93.6041652,401.14323 93.3828133,401.455727 93.2265625,401.820312 C93.0703117,402.184898 92.9921875,402.575519 92.9921875,402.992188 C92.9921875,403.408856 93.0703117,403.799477 93.2265625,404.164062 C93.3828133,404.528648 93.6041652,404.854165 93.890625,405.140625 C94.151043,405.401043 94.4635398,405.609374 94.828125,405.765625 C95.1927102,405.921876 95.5833313,406 96,406 C96.4166687,406 96.8072898,405.921876 97.171875,405.765625 C97.5364602,405.609374 97.848957,405.401043 98.109375,405.140625 C98.3958348,404.854165 98.6171867,404.528648 98.7734375,404.164062 C98.9296883,403.799477 99.0078125,403.408856 99.0078125,402.992188 C99.0078125,402.575519 98.9296883,402.184898 98.7734375,401.820312 C98.6171867,401.455727 98.3958348,401.14323 98.109375,400.882812 C97.848957,400.596353 97.5364602,400.375001 97.171875,400.21875 C96.8072898,400.062499 96.4166687,399.984375 96,399.984375 L96,399.984375 Z M104.007812,397.015625 L101.585938,397.015625 C101.429687,397.015625 101.273438,396.957032 101.117188,396.839844 C100.960937,396.722656 100.856771,396.585938 100.804688,396.429688 L100.179688,394.554688 C100.127604,394.398437 100.023438,394.26823 99.8671875,394.164062 C99.7109367,394.059895 99.5546883,394.007812 99.3984375,394.007812 L92.6015625,394.007812 C92.4453117,394.007812 92.2890633,394.059895 92.1328125,394.164062 C91.9765617,394.26823 91.8723961,394.398437 91.8203125,394.554688 L91.1953125,396.429688 C91.1432289,396.585938 91.0390633,396.722656 90.8828125,396.839844 C90.7265617,396.957032 90.5703133,397.015625 90.4140625,397.015625 L87.9921875,397.015625 C87.7317695,397.015625 87.4778658,397.067708 87.2304688,397.171875 C86.9830717,397.276042 86.7682301,397.41927 86.5859375,397.601562 C86.4036449,397.783855 86.2604172,397.992186 86.15625,398.226562 C86.0520828,398.460939 86,398.721353 86,399.007812 L86,407.992188 C86,408.278647 86.0520828,408.539061 86.15625,408.773438 C86.2604172,409.007814 86.4036449,409.216145 86.5859375,409.398438 C86.7682301,409.58073 86.9830717,409.723958 87.2304688,409.828125 C87.4778658,409.932292 87.7317695,409.984375 87.9921875,409.984375 L104.007812,409.984375 C104.26823,409.984375 104.522134,409.932292 104.769531,409.828125 C105.016928,409.723958 105.23177,409.58073 105.414062,409.398438 C105.596355,409.216145 105.739583,409.007814 105.84375,408.773438 C105.947917,408.539061 106,408.278647 106,407.992188 L106,399.007812 C106,398.721353 105.947917,398.460939 105.84375,398.226562 C105.739583,397.992186 105.596355,397.783855 105.414062,397.601562 C105.23177,397.41927 105.016928,397.276042 104.769531,397.171875 C104.522134,397.067708 104.26823,397.015625 104.007812,397.015625 L104.007812,397.015625 Z M96,407.992188 C95.2968715,407.992188 94.6458363,407.86198 94.046875,407.601562 C93.4479137,407.341145 92.9140648,406.989586 92.4453125,406.546875 C92.002602,406.078123 91.651043,405.544274 91.390625,404.945312 C91.130207,404.346351 91,403.695316 91,402.992188 C91,402.315101 91.130207,401.670576 91.390625,401.058594 C91.651043,400.446612 92.002602,399.919273 92.4453125,399.476562 C92.9140648,399.00781 93.4479137,398.64323 94.046875,398.382812 C94.6458363,398.122395 95.2968715,397.992188 96,397.992188 C96.7031285,397.992188 97.3541637,398.122395 97.953125,398.382812 C98.5520863,398.64323 99.0859352,399.00781 99.5546875,399.476562 C99.997398,399.919273 100.348957,400.446612 100.609375,401.058594 C100.869793,401.670576 101,402.315101 101,402.992188 C101,403.695316 100.869793,404.346351 100.609375,404.945312 C100.348957,405.544274 99.997398,406.078123 99.5546875,406.546875 C99.0859352,406.989586 98.5520863,407.341145 97.953125,407.601562 C97.3541637,407.86198 96.7031285,407.992188 96,407.992188 L96,407.992188 Z M103.304688,400.414062 C103.096353,400.414062 102.927084,400.342449 102.796875,400.199219 C102.666666,400.055989 102.601562,399.89323 102.601562,399.710938 C102.601562,399.502603 102.666666,399.333334 102.796875,399.203125 C102.927084,399.072916 103.096353,399.007812 103.304688,399.007812 C103.48698,399.007812 103.649739,399.072916 103.792969,399.203125 C103.936199,399.333334 104.007812,399.502603 104.007812,399.710938 C104.007812,399.89323 103.936199,400.055989 103.792969,400.199219 C103.649739,400.342449 103.48698,400.414062 103.304688,400.414062 L103.304688,400.414062 Z" id="camera" sketch:type="MSShapeGroup"></path>
        </g>
    </g>
</svg>