<?xml version="1.0" encoding="UTF-8" standalone="no"?>
<svg width="18px" height="18px" viewBox="0 0 18 18" version="1.1" xmlns="http://www.w3.org/2000/svg" xmlns:xlink="http://www.w3.org/1999/xlink" xmlns:sketch="http://www.bohemiancoding.com/sketch/ns">
    <!-- Generator: Sketch 3.3 (11970) - http://www.bohemiancoding.com/sketch -->
    <title>cart</title>
    <desc>Created with Sketch.</desc>
    <defs></defs>
    <g id="cheatsheet" stroke="none" stroke-width="1" fill="none" fill-rule="evenodd" sketch:type="MSPage">
        <g id="ligatures" sketch:type="MSArtboardGroup" transform="translate(-87.000000, -443.000000)" fill="#4A4A4A">
            <path d="M89.984375,459.007812 C89.984375,459.294272 90.0364578,459.554686 90.140625,459.789062 C90.2447922,460.023439 90.3880199,460.244791 90.5703125,460.453125 C90.7526051,460.609376 90.9674467,460.746093 91.2148438,460.863281 C91.4622408,460.980469 91.7291652,461.026042 92.015625,461 C92.276043,461.026042 92.5299467,460.980469 92.7773438,460.863281 C93.0247408,460.746093 93.2395824,460.609376 93.421875,460.453125 C93.6041676,460.244791 93.7473953,460.023439 93.8515625,459.789062 C93.9557297,459.554686 94.0078125,459.294272 94.0078125,459.007812 C94.0078125,458.747395 93.9557297,458.493491 93.8515625,458.246094 C93.7473953,457.998697 93.6041676,457.796876 93.421875,457.640625 C93.2395824,457.432291 93.0247408,457.282553 92.7773438,457.191406 C92.5299467,457.10026 92.276043,457.041667 92.015625,457.015625 C91.7291652,457.041667 91.4622408,457.10026 91.2148438,457.191406 C90.9674467,457.282553 90.7526051,457.432291 90.5703125,457.640625 C90.3880199,457.796876 90.2447922,457.998697 90.140625,458.246094 C90.0364578,458.493491 89.984375,458.747395 89.984375,459.007812 L89.984375,459.007812 Z M99.984375,459.046875 C99.984375,459.281251 100.036458,459.528645 100.140625,459.789062 C100.244792,460.04948 100.38802,460.257812 100.570312,460.414062 C100.752605,460.622397 100.967447,460.772135 101.214844,460.863281 C101.462241,460.954428 101.729165,461.013021 102.015625,461.039062 C102.276043,461.013021 102.529947,460.954428 102.777344,460.863281 C103.024741,460.772135 103.239582,460.622397 103.421875,460.414062 C103.604168,460.257812 103.747395,460.04948 103.851562,459.789062 C103.95573,459.528645 104.007812,459.281251 104.007812,459.046875 C104.007812,458.734373 103.95573,458.467449 103.851562,458.246094 C103.747395,458.024738 103.604168,457.809897 103.421875,457.601562 C103.239582,457.445312 103.024741,457.308594 102.777344,457.191406 C102.529947,457.074218 102.276043,457.028646 102.015625,457.054688 C101.729165,457.028646 101.462241,457.074218 101.214844,457.191406 C100.967447,457.308594 100.752605,457.445312 100.570312,457.601562 C100.38802,457.809897 100.244792,458.024738 100.140625,458.246094 C100.036458,458.467449 99.984375,458.734373 99.984375,459.046875 L99.984375,459.046875 Z M93.5390625,454.28125 L104.632812,451.15625 C104.73698,451.104166 104.821614,451.032553 104.886719,450.941406 C104.951823,450.85026 104.984375,450.739584 104.984375,450.609375 L104.984375,445.140625 L90.8828125,445.101562 L90.8828125,443.421875 C90.8828125,443.291666 90.8437504,443.194011 90.765625,443.128906 C90.6874996,443.063802 90.5963547,443.018229 90.4921875,442.992188 L87.40625,443.03125 C87.3020828,443.005208 87.2109379,443.03776 87.1328125,443.128906 C87.0546871,443.220053 87.015625,443.304687 87.015625,443.382812 L87.015625,445.023438 L88.9296875,444.984375 L90.921875,454.085938 L91.1171875,454.984375 L91.1171875,456.546875 C91.1171875,456.625 91.1562496,456.709635 91.234375,456.800781 C91.3125004,456.891928 91.4036453,456.924479 91.5078125,456.898438 L104.59375,456.9375 C104.697917,456.911458 104.789062,456.865886 104.867188,456.800781 C104.945313,456.735677 104.984375,456.638021 104.984375,456.507812 L104.984375,455.023438 L93.734375,454.984375 C93.1614555,455.010417 92.8684896,454.932293 92.8554688,454.75 C92.8424479,454.567707 93.0703102,454.42448 93.5390625,454.320312 L93.5390625,454.28125 Z" id="cart" sketch:type="MSShapeGroup"></path>
        </g>
    </g>
</svg>