<?xml version="1.0" encoding="UTF-8" standalone="no"?>
<svg width="20px" height="20px" viewBox="0 0 20 20" version="1.1" xmlns="http://www.w3.org/2000/svg" xmlns:xlink="http://www.w3.org/1999/xlink" xmlns:sketch="http://www.bohemiancoding.com/sketch/ns">
    <!-- Generator: Sketch 3.3 (11970) - http://www.bohemiancoding.com/sketch -->
    <title>cclicense</title>
    <desc>Created with Sketch.</desc>
    <defs></defs>
    <g id="cheatsheet" stroke="none" stroke-width="1" fill="none" fill-rule="evenodd" sketch:type="MSPage">
        <g id="ligatures" sketch:type="MSArtboardGroup" transform="translate(-86.000000, -492.000000)" fill="#4A4A4A">
            <path d="M95.8828125,492.40625 C94.5546809,492.432292 93.3112037,492.699216 92.1523438,493.207031 C90.9934838,493.714846 89.9843793,494.411454 89.125,495.296875 C88.2656207,496.182296 87.5950545,497.210932 87.1132812,498.382812 C86.631508,499.554693 86.390625,500.804681 86.390625,502.132812 C86.4166668,503.460944 86.6901016,504.704421 87.2109375,505.863281 C87.7317734,507.022141 88.4348914,508.031246 89.3203125,508.890625 C90.1796918,509.750004 91.1953066,510.420571 92.3671875,510.902344 C93.5390684,511.384117 94.7890559,511.611979 96.1171875,511.585938 C97.4453191,511.585938 98.6887963,511.325523 99.8476562,510.804688 C101.006516,510.283852 102.015621,509.580734 102.875,508.695312 C103.734379,507.809891 104.404946,506.781256 104.886719,505.609375 C105.368492,504.437494 105.609375,503.187507 105.609375,501.859375 C105.583333,500.531243 105.309898,499.287766 104.789062,498.128906 C104.268227,496.970046 103.565109,495.973962 102.679688,495.140625 C101.820308,494.281246 100.804693,493.604169 99.6328125,493.109375 C98.4609316,492.614581 97.2109441,492.380208 95.8828125,492.40625 L95.8828125,492.40625 Z M96.1171875,509.59375 C95.0494738,509.59375 94.05339,509.40495 93.1289062,509.027344 C92.2044225,508.649738 91.4036492,508.122399 90.7265625,507.445312 C90.023434,506.768226 89.4700541,505.967453 89.0664062,505.042969 C88.6627584,504.118485 88.4479168,503.135422 88.421875,502.09375 C88.3958332,501.052078 88.578123,500.069015 88.96875,499.144531 C89.359377,498.220047 89.8932258,497.406254 90.5703125,496.703125 C91.2473992,496.026038 92.0416621,495.479169 92.953125,495.0625 C93.8645879,494.645831 94.8411406,494.4375 95.8828125,494.4375 C96.9505262,494.411458 97.94661,494.593748 98.8710938,494.984375 C99.7955775,495.375002 100.596351,495.908851 101.273438,496.585938 C101.976566,497.263024 102.529946,498.057287 102.933594,498.96875 C103.337242,499.880213 103.552083,500.856766 103.578125,501.898438 C103.604167,502.940109 103.421877,503.923172 103.03125,504.847656 C102.640623,505.77214 102.106774,506.585934 101.429688,507.289062 C100.752601,507.992191 99.9583379,508.545571 99.046875,508.949219 C98.1354121,509.352867 97.1588594,509.567708 96.1171875,509.59375 L96.1171875,509.59375 Z M93.65625,503.617188 C93.4479156,503.617188 93.2656258,503.584636 93.109375,503.519531 C92.9531242,503.454427 92.8229172,503.343751 92.71875,503.1875 C92.6145828,503.031249 92.5364586,502.85547 92.484375,502.660156 C92.4322914,502.464843 92.40625,502.250001 92.40625,502.015625 C92.40625,501.729165 92.4322914,501.488282 92.484375,501.292969 C92.5364586,501.097655 92.6145828,500.921876 92.71875,500.765625 C92.8229172,500.635416 92.9531242,500.537761 93.109375,500.472656 C93.2656258,500.407552 93.4479156,500.375 93.65625,500.375 C93.7343754,500.375 93.81901,500.388021 93.9101562,500.414062 C94.0013025,500.440104 94.0989578,500.479166 94.203125,500.53125 C94.2812504,500.583334 94.3593746,500.661458 94.4375,500.765625 C94.5156254,500.869792 94.5937496,500.986979 94.671875,501.117188 L95.8828125,500.453125 C95.7786453,500.244791 95.6419279,500.05599 95.4726562,499.886719 C95.3033846,499.717447 95.1145844,499.58073 94.90625,499.476562 C94.7239574,499.372395 94.5091158,499.287761 94.2617188,499.222656 C94.0143217,499.157552 93.7473973,499.125 93.4609375,499.125 C93.2526031,499.125 93.0638029,499.144531 92.8945312,499.183594 C92.7252596,499.222656 92.5625008,499.268229 92.40625,499.320312 C92.2239574,499.398438 92.0611986,499.483072 91.9179688,499.574219 C91.7747389,499.665365 91.6380215,499.776041 91.5078125,499.90625 C91.4036453,500.036459 91.2994797,500.179687 91.1953125,500.335938 C91.0911453,500.492188 91.0130211,500.648437 90.9609375,500.804688 C90.8828121,500.98698 90.8307293,501.17578 90.8046875,501.371094 C90.7786457,501.566407 90.765625,501.781249 90.765625,502.015625 C90.765625,502.223959 90.7786457,502.432291 90.8046875,502.640625 C90.8307293,502.848959 90.8828121,503.031249 90.9609375,503.1875 C91.0130211,503.369793 91.084635,503.539062 91.1757812,503.695312 C91.2669275,503.851563 91.3776035,503.98177 91.5078125,504.085938 C91.6380215,504.216146 91.7747389,504.333333 91.9179688,504.4375 C92.0611986,504.541667 92.2239574,504.619791 92.40625,504.671875 C92.5625008,504.723959 92.7317699,504.769531 92.9140625,504.808594 C93.0963551,504.847656 93.2916656,504.867188 93.5,504.867188 C93.630209,504.867188 93.7539057,504.860677 93.8710938,504.847656 C93.9882818,504.834635 94.1119785,504.802084 94.2421875,504.75 C94.3723965,504.723958 94.4895828,504.684896 94.59375,504.632812 C94.6979172,504.580729 94.8020828,504.528646 94.90625,504.476562 C95.0104172,504.398437 95.1145828,504.326823 95.21875,504.261719 C95.3229172,504.196614 95.4140621,504.11198 95.4921875,504.007812 C95.5703129,503.929687 95.6484371,503.838542 95.7265625,503.734375 C95.8046879,503.630208 95.8697914,503.526042 95.921875,503.421875 L94.7890625,502.835938 C94.7369789,502.966146 94.6718754,503.083333 94.59375,503.1875 C94.5156246,503.291667 94.4244797,503.369791 94.3203125,503.421875 C94.2421871,503.5 94.1445318,503.552083 94.0273438,503.578125 C93.9101557,503.604167 93.786459,503.617188 93.65625,503.617188 L93.65625,503.617188 Z M98.96875,503.617188 C98.7604156,503.617188 98.5781258,503.584636 98.421875,503.519531 C98.2656242,503.454427 98.1354172,503.343751 98.03125,503.1875 C97.9270828,503.031249 97.8489586,502.85547 97.796875,502.660156 C97.7447914,502.464843 97.71875,502.250001 97.71875,502.015625 C97.71875,501.729165 97.7447914,501.488282 97.796875,501.292969 C97.8489586,501.097655 97.9270828,500.921876 98.03125,500.765625 C98.1354172,500.635416 98.2656242,500.537761 98.421875,500.472656 C98.5781258,500.407552 98.7604156,500.375 98.96875,500.375 C99.0468754,500.375 99.13151,500.388021 99.2226562,500.414062 C99.3138025,500.440104 99.4114578,500.479166 99.515625,500.53125 C99.5937504,500.583334 99.678385,500.661458 99.7695312,500.765625 C99.8606775,500.869792 99.9322914,500.986979 99.984375,501.117188 L101.195312,500.453125 C101.091145,500.244791 100.954428,500.05599 100.785156,499.886719 C100.615885,499.717447 100.427084,499.58073 100.21875,499.476562 C100.036457,499.372395 99.8216158,499.287761 99.5742188,499.222656 C99.3268217,499.157552 99.0598973,499.125 98.7734375,499.125 C98.5911449,499.125 98.4088551,499.144531 98.2265625,499.183594 C98.0442699,499.222656 97.8750008,499.268229 97.71875,499.320312 C97.5624992,499.398438 97.4127611,499.483072 97.2695312,499.574219 C97.1263014,499.665365 96.989584,499.776041 96.859375,499.90625 C96.729166,500.036459 96.6119797,500.179687 96.5078125,500.335938 C96.4036453,500.492188 96.3255211,500.648437 96.2734375,500.804688 C96.2213539,500.98698 96.1757814,501.17578 96.1367188,501.371094 C96.0976561,501.566407 96.078125,501.781249 96.078125,502.015625 C96.078125,502.223959 96.0911457,502.432291 96.1171875,502.640625 C96.1432293,502.848959 96.1953121,503.031249 96.2734375,503.1875 C96.3255211,503.369793 96.397135,503.539062 96.4882812,503.695312 C96.5794275,503.851563 96.6901035,503.98177 96.8203125,504.085938 C96.9505215,504.216146 97.0872389,504.333333 97.2304688,504.4375 C97.3736986,504.541667 97.5364574,504.619791 97.71875,504.671875 C97.8750008,504.723959 98.0442699,504.769531 98.2265625,504.808594 C98.4088551,504.847656 98.6041656,504.867188 98.8125,504.867188 C98.942709,504.867188 99.0664057,504.860677 99.1835938,504.847656 C99.3007818,504.834635 99.4244785,504.802084 99.5546875,504.75 C99.6588547,504.723958 99.7695307,504.684896 99.8867188,504.632812 C100.003907,504.580729 100.114583,504.528646 100.21875,504.476562 C100.322917,504.398437 100.427083,504.326823 100.53125,504.261719 C100.635417,504.196614 100.726562,504.11198 100.804688,504.007812 C100.882813,503.929687 100.960937,503.838542 101.039062,503.734375 C101.117188,503.630208 101.182291,503.526042 101.234375,503.421875 L100.101562,502.835938 C100.049479,502.966146 99.9843754,503.083333 99.90625,503.1875 C99.8281246,503.291667 99.7369797,503.369791 99.6328125,503.421875 C99.5546871,503.5 99.4570318,503.552083 99.3398438,503.578125 C99.2226557,503.604167 99.098959,503.617188 98.96875,503.617188 L98.96875,503.617188 Z" id="cclicense" sketch:type="MSShapeGroup"></path>
        </g>
    </g>
</svg>