<?xml version="1.0" encoding="UTF-8" standalone="no"?>
<svg width="16px" height="13px" viewBox="0 0 16 13" version="1.1" xmlns="http://www.w3.org/2000/svg" xmlns:xlink="http://www.w3.org/1999/xlink" xmlns:sketch="http://www.bohemiancoding.com/sketch/ns">
    <!-- Generator: Sketch 3.3 (11970) - http://www.bohemiancoding.com/sketch -->
    <title>check</title>
    <desc>Created with Sketch.</desc>
    <defs></defs>
    <g id="cheatsheet" stroke="none" stroke-width="1" fill="none" fill-rule="evenodd" sketch:type="MSPage">
        <g id="ligatures" sketch:type="MSArtboardGroup" transform="translate(-88.000000, -548.000000)" fill="#4A4A4A">
            <path d="M94.1640625,560.804688 L103.8125,551.429688 C103.864584,551.377604 103.910156,551.319011 103.949219,551.253906 C103.988281,551.188802 104.007812,551.117188 104.007812,551.039062 C104.007812,550.960937 103.988281,550.882813 103.949219,550.804688 C103.910156,550.726562 103.864584,550.661459 103.8125,550.609375 L102.25,549.085938 C102.197916,549.033854 102.132813,548.988281 102.054688,548.949219 C101.976562,548.910156 101.898438,548.890625 101.820312,548.890625 C101.742187,548.890625 101.664063,548.910156 101.585938,548.949219 C101.507812,548.988281 101.442709,549.033854 101.390625,549.085938 L93.734375,556.507812 L90.609375,553.539062 C90.5572914,553.460937 90.4921879,553.408854 90.4140625,553.382812 C90.3359371,553.356771 90.2578129,553.34375 90.1796875,553.34375 C90.1015621,553.34375 90.0299482,553.356771 89.9648438,553.382812 C89.8997393,553.408854 89.8281254,553.460937 89.75,553.539062 L88.1875,555.0625 C88.1354164,555.114584 88.0898439,555.179687 88.0507812,555.257812 C88.0117186,555.335938 87.9921875,555.401041 87.9921875,555.453125 C87.9921875,555.557292 88.0117186,555.641927 88.0507812,555.707031 C88.0898439,555.772136 88.1354164,555.830729 88.1875,555.882812 L93.3046875,560.804688 C93.3567711,560.882813 93.4218746,560.934896 93.5,560.960938 C93.5781254,560.986979 93.6562496,561 93.734375,561 C93.8125004,561 93.8906246,560.986979 93.96875,560.960938 C94.0468754,560.934896 94.1119789,560.882813 94.1640625,560.804688 L94.1640625,560.804688 Z" id="check" sketch:type="MSShapeGroup"></path>
        </g>
    </g>
</svg>