<?xml version="1.0" encoding="UTF-8" standalone="no"?>
<svg width="20px" height="14px" viewBox="0 0 20 14" version="1.1" xmlns="http://www.w3.org/2000/svg" xmlns:xlink="http://www.w3.org/1999/xlink" xmlns:sketch="http://www.bohemiancoding.com/sketch/ns">
    <!-- Generator: Sketch 3.3 (11970) - http://www.bohemiancoding.com/sketch -->
    <title>creditcard</title>
    <desc>Created with Sketch.</desc>
    <defs></defs>
    <g id="cheatsheet" stroke="none" stroke-width="1" fill="none" fill-rule="evenodd" sketch:type="MSPage">
        <g id="ligatures" sketch:type="MSArtboardGroup" transform="translate(-86.000000, -597.000000)" fill="#4A4A4A">
            <path d="M104.007812,597.015625 L87.9921875,597.015625 C87.7317695,597.015625 87.4778658,597.067708 87.2304688,597.171875 C86.9830717,597.276042 86.7682301,597.41927 86.5859375,597.601562 C86.4036449,597.783855 86.2604172,597.992186 86.15625,598.226562 C86.0520828,598.460939 86,598.721353 86,599.007812 L86,609.007812 C86,609.26823 86.0520828,609.522134 86.15625,609.769531 C86.2604172,610.016928 86.4036449,610.23177 86.5859375,610.414062 C86.7682301,610.596355 86.9830717,610.739583 87.2304688,610.84375 C87.4778658,610.947917 87.7317695,611 87.9921875,611 L104.007812,611 C104.26823,611 104.522134,610.947917 104.769531,610.84375 C105.016928,610.739583 105.23177,610.596355 105.414062,610.414062 C105.596355,610.23177 105.739583,610.016928 105.84375,609.769531 C105.947917,609.522134 106,609.26823 106,609.007812 L106,599.007812 C106,598.721353 105.947917,598.460939 105.84375,598.226562 C105.739583,597.992186 105.596355,597.783855 105.414062,597.601562 C105.23177,597.41927 105.016928,597.276042 104.769531,597.171875 C104.522134,597.067708 104.26823,597.015625 104.007812,597.015625 L104.007812,597.015625 Z M104.007812,609.007812 L87.9921875,609.007812 L87.9921875,602.992188 L104.007812,602.992188 L104.007812,609.007812 Z M104.007812,599.984375 L87.9921875,599.984375 L87.9921875,599.007812 L104.007812,599.007812 L104.007812,599.984375 Z M89.984375,605.101562 L89.984375,605.6875 L90.609375,605.6875 L90.609375,605.101562 L89.984375,605.101562 Z M93.6171875,606.3125 L93.6171875,606.898438 L94.7890625,606.898438 L94.7890625,606.3125 L95.4140625,606.3125 L95.4140625,605.6875 L96,605.6875 L96,605.101562 L94.7890625,605.101562 L94.7890625,605.6875 L94.203125,605.6875 L94.203125,606.3125 L93.6171875,606.3125 Z M96,606.898438 L96,606.3125 L95.4140625,606.3125 L95.4140625,606.898438 L96,606.898438 Z M92.9921875,606.898438 L92.9921875,606.3125 L91.78125,606.3125 L91.78125,606.898438 L92.9921875,606.898438 Z M93.6171875,605.6875 L94.203125,605.6875 L94.203125,605.101562 L92.9921875,605.101562 L92.9921875,606.3125 L93.6171875,606.3125 L93.6171875,605.6875 Z M91.1953125,606.3125 L91.78125,606.3125 L91.78125,605.6875 L92.40625,605.6875 L92.40625,605.101562 L91.1953125,605.101562 L91.1953125,605.6875 L90.609375,605.6875 L90.609375,606.3125 L89.984375,606.3125 L89.984375,606.898438 L91.1953125,606.898438 L91.1953125,606.3125 Z" id="creditcard" sketch:type="MSShapeGroup"></path>
        </g>
    </g>
</svg>