<?xml version="1.0" encoding="UTF-8" standalone="no"?>
<svg width="12px" height="12px" viewBox="0 0 12 12" version="1.1" xmlns="http://www.w3.org/2000/svg" xmlns:xlink="http://www.w3.org/1999/xlink" xmlns:sketch="http://www.bohemiancoding.com/sketch/ns">
    <!-- Generator: Sketch 3.3 (11970) - http://www.bohemiancoding.com/sketch -->
    <title>cross</title>
    <desc>Created with Sketch.</desc>
    <defs></defs>
    <g id="cheatsheet" stroke="none" stroke-width="1" fill="none" fill-rule="evenodd" sketch:type="MSPage">
        <g id="ligatures" sketch:type="MSArtboardGroup" transform="translate(-90.000000, -649.000000)" fill="#4A4A4A">
            <path d="M98.34375,654.984375 L101.859375,651.46875 C101.963542,651.390625 102.015625,651.279949 102.015625,651.136719 C102.015625,650.993489 101.963542,650.882813 101.859375,650.804688 L100.21875,649.125 C100.114583,649.046875 99.9973965,649.007812 99.8671875,649.007812 C99.7369785,649.007812 99.6197922,649.046875 99.515625,649.125 L96,652.640625 L92.484375,649.125 C92.3802078,649.046875 92.2630215,649.007812 92.1328125,649.007812 C92.0026035,649.007812 91.8854172,649.046875 91.78125,649.125 L90.140625,650.804688 C90.0364578,650.882813 89.984375,650.993489 89.984375,651.136719 C89.984375,651.279949 90.0364578,651.390625 90.140625,651.46875 L93.65625,654.984375 L90.140625,658.5 C90.0364578,658.604167 89.984375,658.721354 89.984375,658.851562 C89.984375,658.981771 90.0364578,659.098958 90.140625,659.203125 L91.78125,660.84375 C91.8854172,660.947917 92.0026035,661 92.1328125,661 C92.2630215,661 92.3802078,660.947917 92.484375,660.84375 L96,657.328125 L99.515625,660.84375 C99.6197922,660.947917 99.7369785,661 99.8671875,661 C99.9973965,661 100.114583,660.947917 100.21875,660.84375 L101.859375,659.203125 C101.963542,659.098958 102.015625,658.981771 102.015625,658.851562 C102.015625,658.721354 101.963542,658.604167 101.859375,658.5 L98.34375,654.984375 Z" id="cross" sketch:type="MSShapeGroup"></path>
        </g>
    </g>
</svg>