<?xml version="1.0" encoding="UTF-8" standalone="no"?>
<svg width="18px" height="19px" viewBox="0 0 18 19" version="1.1" xmlns="http://www.w3.org/2000/svg" xmlns:xlink="http://www.w3.org/1999/xlink" xmlns:sketch="http://www.bohemiancoding.com/sketch/ns">
    <!-- Generator: Sketch 3.3 (11970) - http://www.bohemiancoding.com/sketch -->
    <title>crosshairs</title>
    <desc>Created with Sketch.</desc>
    <defs></defs>
    <g id="cheatsheet" stroke="none" stroke-width="1" fill="none" fill-rule="evenodd" sketch:type="MSPage">
        <g id="ligatures" sketch:type="MSArtboardGroup" transform="translate(-87.000000, -693.000000)" fill="#4A4A4A">
            <path d="M96,693.890625 C94.8020773,693.890625 93.6822969,694.118487 92.640625,694.574219 C91.5989531,695.02995 90.6875039,695.648434 89.90625,696.429688 C89.1249961,697.210941 88.513023,698.122391 88.0703125,699.164062 C87.627602,700.205734 87.40625,701.312494 87.40625,702.484375 C87.40625,703.682298 87.627602,704.802078 88.0703125,705.84375 C88.513023,706.885422 89.1249961,707.796871 89.90625,708.578125 C90.6875039,709.359379 91.5989531,709.977862 92.640625,710.433594 C93.6822969,710.889325 94.8020773,711.117188 96,711.117188 C97.1979227,711.117188 98.3177031,710.889325 99.359375,710.433594 C100.401047,709.977862 101.312496,709.359379 102.09375,708.578125 C102.875004,707.796871 103.486977,706.885422 103.929688,705.84375 C104.372398,704.802078 104.59375,703.682298 104.59375,702.484375 C104.59375,701.312494 104.372398,700.205734 103.929688,699.164062 C103.486977,698.122391 102.875004,697.210941 102.09375,696.429688 C101.312496,695.648434 100.401047,695.02995 99.359375,694.574219 C98.3177031,694.118487 97.1979227,693.890625 96,693.890625 L96,693.890625 Z M96.703125,709.476562 L96.703125,705.609375 L95.296875,705.609375 L95.296875,709.476562 C94.4635375,709.398437 93.6888057,709.177085 92.9726562,708.8125 C92.2565068,708.447915 91.611982,707.99219 91.0390625,707.445312 C90.4921848,706.898435 90.0429705,706.26042 89.6914062,705.53125 C89.339842,704.80208 89.1250004,704.020837 89.046875,703.1875 L92.9140625,703.1875 L92.9140625,701.78125 L89.046875,701.78125 C89.1250004,700.973954 89.339842,700.205733 89.6914062,699.476562 C90.0429705,698.747392 90.4921848,698.109378 91.0390625,697.5625 C91.611982,696.98958 92.2565068,696.527346 92.9726562,696.175781 C93.6888057,695.824217 94.4635375,695.609375 95.296875,695.53125 L95.296875,699.398438 L96.703125,699.398438 L96.703125,695.53125 C97.5364625,695.609375 98.3111943,695.824217 99.0273438,696.175781 C99.7434932,696.527346 100.388018,696.98958 100.960938,697.5625 C101.507815,698.109378 101.957029,698.747392 102.308594,699.476562 C102.660158,700.205733 102.875,700.973954 102.953125,701.78125 L99.0859375,701.78125 L99.0859375,703.1875 L102.953125,703.1875 C102.875,704.020837 102.660158,704.80208 102.308594,705.53125 C101.957029,706.26042 101.507815,706.898435 100.960938,707.445312 C100.388018,707.99219 99.7434932,708.447915 99.0273438,708.8125 C98.3111943,709.177085 97.5364625,709.398437 96.703125,709.476562 L96.703125,709.476562 Z" id="crosshairs" sketch:type="MSShapeGroup"></path>
        </g>
    </g>
</svg>