<?xml version="1.0" encoding="UTF-8" standalone="no"?>
<svg width="14px" height="19px" viewBox="0 0 14 19" version="1.1" xmlns="http://www.w3.org/2000/svg" xmlns:xlink="http://www.w3.org/1999/xlink" xmlns:sketch="http://www.bohemiancoding.com/sketch/ns">
    <!-- Generator: Sketch 3.3 (11970) - http://www.bohemiancoding.com/sketch -->
    <title>document</title>
    <desc>Created with Sketch.</desc>
    <defs></defs>
    <g id="cheatsheet" stroke="none" stroke-width="1" fill="none" fill-rule="evenodd" sketch:type="MSPage">
        <g id="ligatures" sketch:type="MSArtboardGroup" transform="translate(-89.000000, -742.000000)" fill="#4A4A4A">
            <path d="M93.2265625,752.875 L98.8125,752.875 L98.8125,751.078125 L93.2265625,751.078125 L93.2265625,752.875 Z M101,742.992188 L91,742.992188 C90.7135402,742.992188 90.4531262,743.04427 90.21875,743.148438 C89.9843738,743.252605 89.7760426,743.395832 89.59375,743.578125 C89.4114574,743.760418 89.2682297,743.975259 89.1640625,744.222656 C89.0598953,744.470053 89.0078125,744.723957 89.0078125,744.984375 L89.0078125,759.007812 C89.0078125,759.26823 89.0598953,759.522134 89.1640625,759.769531 C89.2682297,760.016928 89.4114574,760.23177 89.59375,760.414062 C89.7760426,760.596355 89.9843738,760.739583 90.21875,760.84375 C90.4531262,760.947917 90.7135402,761 91,761 L101,761 C101.28646,761 101.546874,760.947917 101.78125,760.84375 C102.015626,760.739583 102.223957,760.596355 102.40625,760.414062 C102.588543,760.23177 102.73177,760.016928 102.835938,759.769531 C102.940105,759.522134 102.992188,759.26823 102.992188,759.007812 L102.992188,744.984375 C102.992188,744.723957 102.940105,744.470053 102.835938,744.222656 C102.73177,743.975259 102.588543,743.760418 102.40625,743.578125 C102.223957,743.395832 102.015626,743.252605 101.78125,743.148438 C101.546874,743.04427 101.28646,742.992188 101,742.992188 L101,742.992188 Z M101,759.007812 L91,759.007812 L91,744.984375 L101,744.984375 L101,759.007812 Z M98.8125,747.171875 L93.1875,747.171875 L93.1875,748.929688 L98.8125,748.929688 L98.8125,747.171875 Z M98.8125,755.023438 L93.1875,755.023438 L93.1875,756.78125 L98.8125,756.78125 L98.8125,755.023438 Z" id="document" sketch:type="MSShapeGroup"></path>
        </g>
    </g>
</svg>