<?xml version="1.0" encoding="UTF-8" standalone="no"?>
<svg width="18px" height="11px" viewBox="0 0 18 11" version="1.1" xmlns="http://www.w3.org/2000/svg" xmlns:xlink="http://www.w3.org/1999/xlink" xmlns:sketch="http://www.bohemiancoding.com/sketch/ns">
    <!-- Generator: Sketch 3.3 (11970) - http://www.bohemiancoding.com/sketch -->
    <title>downstrokethin</title>
    <desc>Created with Sketch.</desc>
    <defs></defs>
    <g id="cheatsheet" stroke="none" stroke-width="1" fill="none" fill-rule="evenodd" sketch:type="MSPage">
        <g id="ligatures" sketch:type="MSArtboardGroup" transform="translate(-87.000000, -848.000000)" fill="#4A4A4A">
            <path d="M88.578125,849.085938 C88.447916,848.955729 88.2851572,848.890625 88.0898438,848.890625 C87.8945303,848.890625 87.7317715,848.955729 87.6015625,849.085938 C87.4713535,849.242188 87.40625,849.411457 87.40625,849.59375 C87.40625,849.776043 87.4713535,849.932291 87.6015625,850.0625 L95.4921875,857.914062 C95.6484383,858.044271 95.8177074,858.109375 96,858.109375 C96.1822926,858.109375 96.3515617,858.044271 96.5078125,857.914062 L104.398438,850.0625 C104.528646,849.932291 104.59375,849.776043 104.59375,849.59375 C104.59375,849.411457 104.528646,849.242188 104.398438,849.085938 C104.268229,848.955729 104.10547,848.890625 103.910156,848.890625 C103.714843,848.890625 103.552084,848.955729 103.421875,849.085938 L96,856.234375 L88.578125,849.085938 Z" id="downstrokethin" sketch:type="MSShapeGroup"></path>
        </g>
    </g>
</svg>