<?xml version="1.0" encoding="UTF-8" standalone="no"?>
<svg width="12px" height="8px" viewBox="0 0 12 8" version="1.1" xmlns="http://www.w3.org/2000/svg" xmlns:xlink="http://www.w3.org/1999/xlink" xmlns:sketch="http://www.bohemiancoding.com/sketch/ns">
    <!-- Generator: Sketch 3.3 (11970) - http://www.bohemiancoding.com/sketch -->
    <title>downstroke</title>
    <desc>Created with Sketch.</desc>
    <defs></defs>
    <g id="cheatsheet" stroke="none" stroke-width="1" fill="none" fill-rule="evenodd" sketch:type="MSPage">
        <g id="ligatures" sketch:type="MSArtboardGroup" transform="translate(-90.000000, -801.000000)" fill="#4A4A4A">
            <path d="M96.3515625,808.851562 C96.2994789,808.903646 96.2473961,808.942708 96.1953125,808.96875 C96.1432289,808.994792 96.0781254,809.007812 96,809.007812 C95.9218746,809.007812 95.8567711,808.994792 95.8046875,808.96875 C95.7526039,808.942708 95.7005211,808.903646 95.6484375,808.851562 L90.140625,803.5 C90.0885414,803.447916 90.0494793,803.395834 90.0234375,803.34375 C89.9973957,803.291666 89.984375,803.226563 89.984375,803.148438 C89.984375,803.096354 89.9973957,803.044271 90.0234375,802.992188 C90.0494793,802.940104 90.0885414,802.888021 90.140625,802.835938 L91.390625,801.664062 C91.4427086,801.611979 91.4947914,801.572917 91.546875,801.546875 C91.5989586,801.520833 91.6640621,801.507812 91.7421875,801.507812 C91.7942711,801.507812 91.8463539,801.520833 91.8984375,801.546875 C91.9505211,801.572917 92.0026039,801.611979 92.0546875,801.664062 L96,805.492188 L99.9453125,801.664062 C99.9973961,801.611979 100.049479,801.572917 100.101562,801.546875 C100.153646,801.520833 100.21875,801.507812 100.296875,801.507812 C100.348959,801.507812 100.407552,801.520833 100.472656,801.546875 C100.537761,801.572917 100.583333,801.611979 100.609375,801.664062 L101.859375,802.835938 C101.911459,802.888021 101.950521,802.940104 101.976562,802.992188 C102.002604,803.044271 102.015625,803.109375 102.015625,803.1875 C102.015625,803.239584 102.002604,803.291666 101.976562,803.34375 C101.950521,803.395834 101.911459,803.447916 101.859375,803.5 L96.3515625,808.851562 Z" id="downstroke" sketch:type="MSShapeGroup"></path>
        </g>
    </g>
</svg>