<?xml version="1.0" encoding="UTF-8" standalone="no"?>
<svg width="15px" height="14px" viewBox="0 0 15 14" version="1.1" xmlns="http://www.w3.org/2000/svg" xmlns:xlink="http://www.w3.org/1999/xlink" xmlns:sketch="http://www.bohemiancoding.com/sketch/ns">
    <!-- Generator: Sketch 3.3 (11970) - http://www.bohemiancoding.com/sketch -->
    <title>download 2</title>
    <desc>Created with Sketch.</desc>
    <defs></defs>
    <g id="Offene-Stelle" stroke="none" stroke-width="1" fill="none" fill-rule="evenodd" sketch:type="MSPage">
        <g id="Stellenausschreibung" sketch:type="MSArtboardGroup" transform="translate(-687.000000, -2350.000000)" fill="#2F2F2F">
            <g id="Interesse" sketch:type="MSLayerGroup" transform="translate(291.000000, 2255.000000)">
                <g id="jetz-online-bewerben-+-weitersagen-+-download" transform="translate(0.000000, 82.000000)" sketch:type="MSShapeGroup">
                    <g id="download" transform="translate(376.000000, 0.000000)">
                        <path d="M29,13 L29,18.9414062 L31.3554688,18.9414062 L27.2070312,24.0390625 L23.1640625,18.9414062 L25.4140625,18.9414062 L25.4140625,13 L29,13 Z M34.4140625,22.2109375 L34.4140625,26.1835938 C34.4140625,26.3242195 34.3613287,26.4472651 34.2558594,26.5527344 C34.1503901,26.6582037 34.0156258,26.7109375 33.8515625,26.7109375 L20.5625,26.7109375 C20.3984367,26.7109375 20.2636724,26.6582037 20.1582031,26.5527344 C20.0527338,26.4472651 20,26.3242195 20,26.1835938 L20,22.2109375 L21.7929688,22.2109375 L21.7929688,24.9179688 L32.5859375,24.9179688 L32.5859375,22.2109375 L34.4140625,22.2109375 Z" id="download-2"></path>
                    </g>
                </g>
            </g>
        </g>
    </g>
</svg>