<?xml version="1.0" encoding="UTF-8" standalone="no"?>
<svg width="41px" height="50px" viewBox="0 0 41 50" version="1.1" xmlns="http://www.w3.org/2000/svg" xmlns:xlink="http://www.w3.org/1999/xlink" xmlns:sketch="http://www.bohemiancoding.com/sketch/ns">
    <!-- Generator: Sketch 3.3 (11970) - http://www.bohemiancoding.com/sketch -->
    <title>Shape 19</title>
    <desc>Created with Sketch.</desc>
    <defs></defs>
    <g id="Aktuelles" stroke="none" stroke-width="1" fill="none" fill-rule="evenodd" sketch:type="MSPage">
        <g id="Aktuelles-Veranstaltungen-" sketch:type="MSArtboardGroup" transform="translate(-214.000000, -612.000000)" fill="#4A4A4A">
            <path d="M254.579895,650.388648 C254.84172,650.072928 255,649.66246 255,649.213935 L255,622.023578 C255,618.706174 252.396322,616.009431 249.193402,616.009431 L247.678267,616.009431 L247.678267,613.804244 C247.678267,612.808301 246.897861,612 245.936288,612 C244.974715,612 244.194309,612.808301 244.194309,613.804244 L244.194309,616.009431 L223.677663,616.009431 L223.677663,613.804244 C223.677663,612.808301 222.897256,612 221.935684,612 C220.974111,612 220.193704,612.808301 220.193704,613.804244 L220.193704,616.009431 L220.193704,616.009431 L219.806598,616.009431 C216.603678,616.009431 214,618.706174 214,622.023578 L214,655.93294 C214,659.245532 216.603678,661.942275 219.806598,661.942275 L234.659826,661.942275 C234.799792,661.980033 234.945872,662 235.09534,662 C235.154181,662 235.213021,661.995189 235.271861,661.991179 C235.996012,661.912394 252.71717,660.061007 254.579895,650.388648 Z M251.516041,646.638365 L251.516041,630.844326 L217.483959,630.844326 L217.483959,655.93294 C217.483959,657.257656 218.525275,658.333787 219.806598,658.333787 L235.033544,658.333787 C236.068468,657.985212 239.123338,656.754597 240.652642,653.946657 C241.759766,651.912272 241.870479,649.375104 240.986327,646.41053 C240.798194,645.776238 240.95923,645.090626 241.405951,644.615909 C241.854994,644.141192 242.517721,643.963174 243.131672,644.146004 L251.516041,646.638365 Z M220.193704,619.617919 L220.193704,621.622634 C220.193704,622.618577 220.974111,623.426878 221.935684,623.426878 C222.897256,623.426878 223.677663,622.619379 223.677663,621.622634 L223.677663,619.617919 L244.194309,619.617919 L244.194309,621.622634 C244.194309,622.618577 244.974715,623.426878 245.936288,623.426878 C246.897861,623.426878 247.678267,622.619379 247.678267,621.622634 L247.678267,619.617919 L249.193402,619.617919 C250.474725,619.617919 251.516041,620.69405 251.516041,622.023578 L251.516041,627.235838 L217.483959,627.235838 L217.483959,622.023578 C217.483959,620.69405 218.525275,619.617919 219.806598,619.617919 L220.193704,619.617919 L220.193704,619.617919 Z M244.966557,648.444114 C245.281661,651.155291 244.848876,653.60345 243.668976,655.750099 C243.539682,655.985052 243.405743,656.210382 243.265611,656.426891 C246.795248,655.12543 250.11817,653.128733 251.020903,650.243546 L244.966557,648.444114 L244.966557,648.444114 Z" id="Shape-19" sketch:type="MSShapeGroup"></path>
        </g>
    </g>
</svg>
