<?xml version="1.0" encoding="UTF-8" standalone="no"?>
<svg width="20px" height="16px" viewBox="0 0 20 16" version="1.1" xmlns="http://www.w3.org/2000/svg" xmlns:xlink="http://www.w3.org/1999/xlink" xmlns:sketch="http://www.bohemiancoding.com/sketch/ns">
    <!-- Generator: Sketch 3.3 (11970) - http://www.bohemiancoding.com/sketch -->
    <title>export</title>
    <desc>Created with Sketch.</desc>
    <defs></defs>
    <g id="cheatsheet" stroke="none" stroke-width="1" fill="none" fill-rule="evenodd" sketch:type="MSPage">
        <g id="ligatures" sketch:type="MSArtboardGroup" transform="translate(-86.000000, -895.000000)" fill="#4A4A4A">
            <path d="M101,908.8125 L87.9921875,908.8125 L87.9921875,899.789062 L90.609375,899.789062 C90.609375,899.789062 90.7851545,899.593752 91.1367188,899.203125 C91.488283,898.812498 92.0286422,898.343753 92.7578125,897.796875 L87.015625,897.796875 C86.8593742,897.796875 86.7226568,897.822916 86.6054688,897.875 C86.4882807,897.927084 86.3906254,898.005208 86.3125,898.109375 C86.2083328,898.1875 86.1302086,898.285156 86.078125,898.402344 C86.0260414,898.519532 86,898.656249 86,898.8125 L86,909.789062 C86,909.945313 86.0260414,910.082031 86.078125,910.199219 C86.1302086,910.316407 86.2083328,910.414062 86.3125,910.492188 C86.3906254,910.596355 86.4882807,910.674479 86.6054688,910.726562 C86.7226568,910.778646 86.8593742,910.804688 87.015625,910.804688 L102.015625,910.804688 C102.145834,910.804688 102.269531,910.778646 102.386719,910.726562 C102.503907,910.674479 102.614583,910.596355 102.71875,910.492188 C102.796875,910.414062 102.861979,910.316407 102.914062,910.199219 C102.966146,910.082031 102.992188,909.945313 102.992188,909.789062 L102.992188,906.039062 L101,907.679688 L101,908.8125 Z M99.359375,901.859375 L99.359375,905.414062 L106,900.179688 L99.359375,895.21875 L99.359375,898.34375 C95.3228965,898.34375 92.9726596,899.671862 92.3085938,902.328125 C91.6445279,904.984388 91.3125,906.3125 91.3125,906.3125 C91.8854195,905.374995 92.4192684,904.613284 92.9140625,904.027344 C93.4088566,903.441403 93.9557262,902.992189 94.5546875,902.679688 C95.127607,902.341144 95.7981732,902.119792 96.5664062,902.015625 C97.3346393,901.911458 98.2656195,901.859375 99.359375,901.859375 L99.359375,901.859375 Z" id="export" sketch:type="MSShapeGroup"></path>
        </g>
    </g>
</svg>