<?xml version="1.0" encoding="UTF-8" standalone="no"?>
<svg width="10px" height="19px" viewBox="0 0 10 19" version="1.1" xmlns="http://www.w3.org/2000/svg" xmlns:xlink="http://www.w3.org/1999/xlink" xmlns:sketch="http://www.bohemiancoding.com/sketch/ns">
    <!-- Generator: Sketch 3.3 (11970) - http://www.bohemiancoding.com/sketch -->
    <title>facebook</title>
    <desc>Created with Sketch.</desc>
    <defs></defs>
    <g id="cheatsheet" stroke="none" stroke-width="1" fill="none" fill-rule="evenodd" sketch:type="MSPage">
        <g id="ligatures" sketch:type="MSArtboardGroup" transform="translate(-91.000000, -942.000000)" fill="#4A4A4A">
            <path d="M101,946.117188 L98.1484375,946.117188 C97.9661449,946.117188 97.8033861,946.214843 97.6601562,946.410156 C97.5169264,946.60547 97.4453125,946.859373 97.4453125,947.171875 L97.4453125,949.242188 L101,949.242188 L101,952.171875 L97.4453125,952.171875 L97.4453125,961 L94.046875,961 L94.046875,952.171875 L91,952.171875 L91,949.242188 L94.046875,949.242188 L94.046875,947.484375 C94.046875,946.885414 94.1510406,946.312503 94.359375,945.765625 C94.5677094,945.218747 94.8541648,944.736981 95.21875,944.320312 C95.5833352,943.903644 96.0130184,943.578126 96.5078125,943.34375 C97.0026066,943.109374 97.5494762,942.992188 98.1484375,942.992188 L101,942.992188 L101,946.117188 Z" id="facebook" sketch:type="MSShapeGroup"></path>
        </g>
    </g>
</svg>