<?xml version="1.0" encoding="UTF-8" standalone="no"?>
<svg width="18px" height="8px" viewBox="0 0 18 8" version="1.1" xmlns="http://www.w3.org/2000/svg" xmlns:xlink="http://www.w3.org/1999/xlink" xmlns:sketch="http://www.bohemiancoding.com/sketch/ns">
    <!-- Generator: Sketch 3.3 (11970) - http://www.bohemiancoding.com/sketch -->
    <title>flickr</title>
    <desc>Created with Sketch.</desc>
    <defs></defs>
    <g id="cheatsheet" stroke="none" stroke-width="1" fill="none" fill-rule="evenodd" sketch:type="MSPage">
        <g id="ligatures" sketch:type="MSArtboardGroup" transform="translate(-87.000000, -999.000000)" fill="#4A4A4A">
            <path d="M90.921875,1007.01562 C90.3749973,1007.01562 89.8671898,1006.91146 89.3984375,1006.70312 C88.9296852,1006.49479 88.5130227,1006.20834 88.1484375,1005.84375 C87.7838523,1005.47916 87.5039072,1005.04948 87.3085938,1004.55469 C87.1132803,1004.05989 87.015625,1003.53907 87.015625,1002.99219 C87.015625,1002.44531 87.1132803,1001.93099 87.3085938,1001.44922 C87.5039072,1000.96745 87.7838523,1000.54427 88.1484375,1000.17969 C88.5130227,999.815102 88.9296852,999.528647 89.3984375,999.320312 C89.8671898,999.111978 90.3749973,999.007812 90.921875,999.007812 C91.4687527,999.007812 91.9765602,999.111978 92.4453125,999.320312 C92.9140648,999.528647 93.3307273,999.815102 93.6953125,1000.17969 C94.0598977,1000.54427 94.3398428,1000.96745 94.5351562,1001.44922 C94.7304697,1001.93099 94.828125,1002.44531 94.828125,1002.99219 C94.828125,1003.53907 94.7304697,1004.05989 94.5351562,1004.55469 C94.3398428,1005.04948 94.0598977,1005.47916 93.6953125,1005.84375 C93.3307273,1006.20834 92.9140648,1006.49479 92.4453125,1006.70312 C91.9765602,1006.91146 91.4687527,1007.01562 90.921875,1007.01562 L90.921875,1007.01562 Z M101.078125,1007.01562 C100.531247,1007.01562 100.02344,1006.91146 99.5546875,1006.70312 C99.0859352,1006.49479 98.6692727,1006.20834 98.3046875,1005.84375 C97.9401023,1005.47916 97.6536469,1005.04948 97.4453125,1004.55469 C97.2369781,1004.05989 97.1328125,1003.53907 97.1328125,1002.99219 C97.1328125,1002.44531 97.2369781,1001.93099 97.4453125,1001.44922 C97.6536469,1000.96745 97.9401023,1000.54427 98.3046875,1000.17969 C98.6692727,999.815102 99.0859352,999.528647 99.5546875,999.320312 C100.02344,999.111978 100.531247,999.007812 101.078125,999.007812 C101.625003,999.007812 102.13281,999.111978 102.601562,999.320312 C103.070315,999.528647 103.486977,999.815102 103.851562,1000.17969 C104.216148,1000.54427 104.496093,1000.96745 104.691406,1001.44922 C104.88672,1001.93099 104.984375,1002.44531 104.984375,1002.99219 C104.984375,1003.53907 104.88672,1004.05989 104.691406,1004.55469 C104.496093,1005.04948 104.216148,1005.47916 103.851562,1005.84375 C103.486977,1006.20834 103.070315,1006.49479 102.601562,1006.70312 C102.13281,1006.91146 101.625003,1007.01562 101.078125,1007.01562 L101.078125,1007.01562 Z" id="flickr" sketch:type="MSShapeGroup"></path>
        </g>
    </g>
</svg>