<?xml version="1.0" encoding="UTF-8" standalone="no"?>
<svg width="18px" height="17px" viewBox="0 0 18 17" version="1.1" xmlns="http://www.w3.org/2000/svg" xmlns:xlink="http://www.w3.org/1999/xlink" xmlns:sketch="http://www.bohemiancoding.com/sketch/ns">
    <!-- Generator: Sketch 3.3 (11970) - http://www.bohemiancoding.com/sketch -->
    <title>floppy</title>
    <desc>Created with Sketch.</desc>
    <defs></defs>
    <g id="cheatsheet" stroke="none" stroke-width="1" fill="none" fill-rule="evenodd" sketch:type="MSPage">
        <g id="ligatures" sketch:type="MSArtboardGroup" transform="translate(-87.000000, -1044.000000)" fill="#4A4A4A">
            <path d="M101.15625,1044.98438 L89.984375,1044.98438 C89.723957,1044.98438 89.4700533,1045.03646 89.2226562,1045.14062 C88.9752592,1045.24479 88.7604176,1045.38802 88.578125,1045.57031 C88.3958324,1045.75261 88.2526047,1045.96745 88.1484375,1046.21484 C88.0442703,1046.46224 87.9921875,1046.72917 87.9921875,1047.01562 L87.9921875,1059.00781 C87.9921875,1059.26823 88.0442703,1059.52213 88.1484375,1059.76953 C88.2526047,1060.01693 88.3958324,1060.23177 88.578125,1060.41406 C88.7604176,1060.59636 88.9752592,1060.73958 89.2226562,1060.84375 C89.4700533,1060.94792 89.723957,1061 89.984375,1061 L102.015625,1061 C102.276043,1061 102.529947,1060.94792 102.777344,1060.84375 C103.024741,1060.73958 103.239582,1060.59636 103.421875,1060.41406 C103.604168,1060.23177 103.747395,1060.01693 103.851562,1059.76953 C103.95573,1059.52213 104.007812,1059.26823 104.007812,1059.00781 L104.007812,1048.10938 L101.15625,1044.98438 Z M99.984375,1051 C99.984375,1051.13021 99.9583336,1051.26042 99.90625,1051.39062 C99.8541664,1051.52083 99.7890629,1051.625 99.7109375,1051.70312 C99.6067703,1051.80729 99.4960943,1051.88542 99.3789062,1051.9375 C99.2617182,1051.98958 99.1380215,1052.01562 99.0078125,1052.01562 L92.9921875,1052.01562 C92.8619785,1052.01562 92.7382818,1051.98958 92.6210938,1051.9375 C92.5039057,1051.88542 92.3932297,1051.80729 92.2890625,1051.70312 C92.2109371,1051.625 92.1458336,1051.52083 92.09375,1051.39062 C92.0416664,1051.26042 92.015625,1051.13021 92.015625,1051 L92.015625,1046 L99.984375,1046 L99.984375,1051 Z M99.0078125,1047.01562 L97.015625,1047.01562 L97.015625,1051 L99.0078125,1051 L99.0078125,1047.01562 Z" id="floppy" sketch:type="MSShapeGroup"></path>
        </g>
    </g>
</svg>