<?xml version="1.0" encoding="UTF-8" standalone="no"?>
<svg width="20px" height="17px" viewBox="0 0 20 17" version="1.1" xmlns="http://www.w3.org/2000/svg" xmlns:xlink="http://www.w3.org/1999/xlink" xmlns:sketch="http://www.bohemiancoding.com/sketch/ns">
    <!-- Generator: Sketch 3.3 (11970) - http://www.bohemiancoding.com/sketch -->
    <title>folder</title>
    <desc>Created with Sketch.</desc>
    <defs></defs>
    <g id="cheatsheet" stroke="none" stroke-width="1" fill="none" fill-rule="evenodd" sketch:type="MSPage">
        <g id="ligatures" sketch:type="MSArtboardGroup" transform="translate(-86.000000, -1094.000000)" fill="#4A4A4A">
            <path d="M105.0625,1099.98438 L86.9375,1099.98438 C86.7031238,1099.98438 86.520834,1100.01042 86.390625,1100.0625 C86.260416,1100.11458 86.1692711,1100.19271 86.1171875,1100.29688 C86.0390621,1100.375 86,1100.47917 86,1100.60938 L86,1101 L86.8203125,1110.02344 C86.8463543,1110.15365 86.8723957,1110.27734 86.8984375,1110.39453 C86.9244793,1110.51172 86.9765621,1110.6224 87.0546875,1110.72656 C87.1328129,1110.80469 87.2434889,1110.86979 87.3867188,1110.92188 C87.5299486,1110.97396 87.7187488,1111 87.953125,1111 L104.046875,1111 C104.281251,1111 104.470051,1110.97396 104.613281,1110.92188 C104.756511,1110.86979 104.867187,1110.80469 104.945312,1110.72656 C105.023438,1110.6224 105.075521,1110.51172 105.101562,1110.39453 C105.127604,1110.27734 105.153646,1110.15365 105.179688,1110.02344 L106,1101 L106,1100.60938 C106,1100.47917 105.960938,1100.375 105.882812,1100.29688 C105.830729,1100.19271 105.739584,1100.11458 105.609375,1100.0625 C105.479166,1100.01042 105.296876,1099.98438 105.0625,1099.98438 L105.0625,1099.98438 Z M104.398438,1097.79688 C104.372396,1097.69271 104.320313,1097.58854 104.242188,1097.48438 C104.164062,1097.38021 104.072917,1097.30208 103.96875,1097.25 C103.864583,1097.17187 103.747396,1097.11328 103.617188,1097.07422 C103.486979,1097.03516 103.343751,1097.01562 103.1875,1097.01562 L96.390625,1097.01562 C96.2343742,1097.01562 96.0781258,1096.99609 95.921875,1096.95703 C95.7656242,1096.91797 95.6093758,1096.85938 95.453125,1096.78125 C95.2968742,1096.72917 95.1471361,1096.65755 95.0039062,1096.56641 C94.8606764,1096.47526 94.7500004,1096.39063 94.671875,1096.3125 L94.046875,1095.6875 C93.9687496,1095.60937 93.8580736,1095.52474 93.7148438,1095.43359 C93.5716139,1095.34245 93.4218758,1095.27083 93.265625,1095.21875 C93.1093742,1095.14062 92.9531258,1095.08203 92.796875,1095.04297 C92.6406242,1095.00391 92.4843758,1094.98438 92.328125,1094.98438 L89.0859375,1094.98438 C88.9557285,1094.98438 88.8255215,1095.01042 88.6953125,1095.0625 C88.5651035,1095.11458 88.4479172,1095.19271 88.34375,1095.29688 C88.2395828,1095.375 88.1549482,1095.47917 88.0898438,1095.60938 C88.0247393,1095.73958 87.9791668,1095.86979 87.953125,1096 L87.6796875,1098.61719 L104.59375,1098.61719 L104.398438,1097.79688 Z" id="folder" sketch:type="MSShapeGroup"></path>
        </g>
    </g>
</svg>