<?xml version="1.0" encoding="UTF-8" standalone="no"?>
<svg width="18px" height="18px" viewBox="0 0 18 18" version="1.1" xmlns="http://www.w3.org/2000/svg" xmlns:xlink="http://www.w3.org/1999/xlink" xmlns:sketch="http://www.bohemiancoding.com/sketch/ns">
    <!-- Generator: Sketch 3.3 (11970) - http://www.bohemiancoding.com/sketch -->
    <title>gear</title>
    <desc>Created with Sketch.</desc>
    <defs></defs>
    <g id="cheatsheet" stroke="none" stroke-width="1" fill="none" fill-rule="evenodd" sketch:type="MSPage">
        <g id="ligatures" sketch:type="MSArtboardGroup" transform="translate(-87.000000, -1143.000000)" fill="#4A4A4A">
            <path d="M102.796875,1152.01562 C102.796875,1151.75521 102.835937,1151.50781 102.914062,1151.27344 C102.992188,1151.03906 103.096354,1150.81771 103.226562,1150.60938 C103.356771,1150.40104 103.526041,1150.21224 103.734375,1150.04297 C103.942709,1149.8737 104.164061,1149.71094 104.398438,1149.55469 C104.346354,1149.39844 104.294271,1149.2487 104.242188,1149.10547 C104.190104,1148.96224 104.138021,1148.82552 104.085938,1148.69531 C104.033854,1148.5651 103.975261,1148.42839 103.910156,1148.28516 C103.845052,1148.14193 103.773438,1148.00521 103.695312,1147.875 C103.434895,1147.95313 103.180991,1147.98568 102.933594,1147.97266 C102.686197,1147.95964 102.445314,1147.91406 102.210938,1147.83594 C102.002603,1147.75781 101.794272,1147.64714 101.585938,1147.50391 C101.377603,1147.36068 101.182293,1147.19792 101,1147.01562 C100.817707,1146.83333 100.667969,1146.63802 100.550781,1146.42969 C100.433593,1146.22135 100.335938,1146 100.257812,1145.76562 C100.205729,1145.55729 100.186198,1145.32943 100.199219,1145.08203 C100.21224,1144.83463 100.244791,1144.56771 100.296875,1144.28125 C100.166666,1144.22917 100.036459,1144.17057 99.90625,1144.10547 C99.776041,1144.04036 99.645834,1143.96875 99.515625,1143.89062 C99.3593742,1143.83854 99.2096361,1143.78646 99.0664062,1143.73438 C98.9231764,1143.68229 98.786459,1143.64323 98.65625,1143.61719 C98.4999992,1143.85156 98.3242197,1144.06641 98.1289062,1144.26172 C97.9335928,1144.45703 97.7187512,1144.63281 97.484375,1144.78906 C97.2760406,1144.91927 97.041668,1145.02344 96.78125,1145.10156 C96.520832,1145.17969 96.260418,1145.21875 96,1145.21875 C95.739582,1145.21875 95.479168,1145.17969 95.21875,1145.10156 C94.958332,1145.02344 94.7239594,1144.91927 94.515625,1144.78906 C94.2812488,1144.63281 94.0664072,1144.45703 93.8710938,1144.26172 C93.6757803,1144.06641 93.5000008,1143.85156 93.34375,1143.61719 C93.213541,1143.64323 93.0768236,1143.68229 92.9335938,1143.73438 C92.7903639,1143.78646 92.6406258,1143.83854 92.484375,1143.89062 C92.354166,1143.96875 92.223959,1144.04036 92.09375,1144.10547 C91.963541,1144.17057 91.833334,1144.22917 91.703125,1144.28125 C91.7552086,1144.56771 91.7877604,1144.83463 91.8007812,1145.08203 C91.8138021,1145.32943 91.7942711,1145.55729 91.7421875,1145.76562 C91.6640621,1146 91.5664068,1146.22135 91.4492188,1146.42969 C91.3320307,1146.63802 91.1822926,1146.83333 91,1147.01562 C90.8177074,1147.19792 90.6223969,1147.36068 90.4140625,1147.50391 C90.2057281,1147.64714 89.9973969,1147.75781 89.7890625,1147.83594 C89.5546863,1147.91406 89.3138033,1147.95964 89.0664062,1147.97266 C88.8190092,1147.98568 88.5651055,1147.95313 88.3046875,1147.875 C88.2265621,1148.00521 88.1549482,1148.14193 88.0898438,1148.28516 C88.0247393,1148.42839 87.9661461,1148.5651 87.9140625,1148.69531 C87.8619789,1148.82552 87.8098961,1148.96224 87.7578125,1149.10547 C87.7057289,1149.2487 87.6536461,1149.39844 87.6015625,1149.55469 C87.8359387,1149.71094 88.0572906,1149.8737 88.265625,1150.04297 C88.4739594,1150.21224 88.6432285,1150.40104 88.7734375,1150.60938 C88.9036465,1150.81771 89.0078121,1151.03906 89.0859375,1151.27344 C89.1640629,1151.50781 89.203125,1151.75521 89.203125,1152.01562 C89.203125,1152.27604 89.1640629,1152.52995 89.0859375,1152.77734 C89.0078121,1153.02474 88.9036465,1153.26562 88.7734375,1153.5 C88.6432285,1153.73438 88.4739594,1153.94922 88.265625,1154.14453 C88.0572906,1154.33984 87.8359387,1154.5026 87.6015625,1154.63281 C87.6536461,1154.78906 87.7057289,1154.9388 87.7578125,1155.08203 C87.8098961,1155.22526 87.8619789,1155.36198 87.9140625,1155.49219 C87.9661461,1155.64844 88.0247393,1155.79167 88.0898438,1155.92188 C88.1549482,1156.05208 88.2265621,1156.18229 88.3046875,1156.3125 C88.5651055,1156.23437 88.8190092,1156.19531 89.0664062,1156.19531 C89.3138033,1156.19531 89.5546863,1156.22135 89.7890625,1156.27344 C89.9973969,1156.32552 90.2057281,1156.41016 90.4140625,1156.52734 C90.6223969,1156.64453 90.8177074,1156.80729 91,1157.01562 C91.1822926,1157.19792 91.3320307,1157.38672 91.4492188,1157.58203 C91.5664068,1157.77734 91.6640621,1157.99219 91.7421875,1158.22656 C91.7942711,1158.46094 91.8138021,1158.69531 91.8007812,1158.92969 C91.7877604,1159.16406 91.7552086,1159.42448 91.703125,1159.71094 C91.833334,1159.78906 91.963541,1159.86068 92.09375,1159.92578 C92.223959,1159.99089 92.354166,1160.04948 92.484375,1160.10156 C92.6406258,1160.15365 92.7903639,1160.20573 92.9335938,1160.25781 C93.0768236,1160.3099 93.213541,1160.36198 93.34375,1160.41406 C93.5000008,1160.15364 93.6757803,1159.92578 93.8710938,1159.73047 C94.0664072,1159.53516 94.2812488,1159.3724 94.515625,1159.24219 C94.7239594,1159.08594 94.958332,1158.96875 95.21875,1158.89062 C95.479168,1158.8125 95.739582,1158.77344 96,1158.77344 C96.260418,1158.77344 96.520832,1158.8125 96.78125,1158.89062 C97.041668,1158.96875 97.2760406,1159.08594 97.484375,1159.24219 C97.7187512,1159.3724 97.9335928,1159.53516 98.1289062,1159.73047 C98.3242197,1159.92578 98.4999992,1160.15364 98.65625,1160.41406 C98.786459,1160.36198 98.9231764,1160.3099 99.0664062,1160.25781 C99.2096361,1160.20573 99.3593742,1160.15365 99.515625,1160.10156 C99.645834,1160.04948 99.776041,1159.99089 99.90625,1159.92578 C100.036459,1159.86068 100.166666,1159.78906 100.296875,1159.71094 C100.244791,1159.42448 100.21224,1159.16406 100.199219,1158.92969 C100.186198,1158.69531 100.205729,1158.46094 100.257812,1158.22656 C100.335938,1157.99219 100.433593,1157.77734 100.550781,1157.58203 C100.667969,1157.38672 100.817707,1157.19792 101,1157.01562 C101.182293,1156.80729 101.377603,1156.63802 101.585938,1156.50781 C101.794272,1156.3776 102.002603,1156.26042 102.210938,1156.15625 C102.445314,1156.07812 102.686197,1156.03255 102.933594,1156.01953 C103.180991,1156.00651 103.434895,1156.03906 103.695312,1156.11719 C103.773438,1155.98698 103.845052,1155.85026 103.910156,1155.70703 C103.975261,1155.5638 104.033854,1155.42708 104.085938,1155.29688 C104.138021,1155.16667 104.190104,1155.02995 104.242188,1154.88672 C104.294271,1154.74349 104.346354,1154.59375 104.398438,1154.4375 C104.164061,1154.30729 103.942709,1154.15104 103.734375,1153.96875 C103.526041,1153.78646 103.356771,1153.59115 103.226562,1153.38281 C103.096354,1153.20052 102.992188,1152.99219 102.914062,1152.75781 C102.835937,1152.52344 102.796875,1152.27604 102.796875,1152.01562 L102.796875,1152.01562 Z M96,1155.64844 C95.5052059,1155.64844 95.0364605,1155.55078 94.59375,1155.35547 C94.1510395,1155.16016 93.7604184,1154.90625 93.421875,1154.59375 C93.0833316,1154.25521 92.8229176,1153.86459 92.640625,1153.42188 C92.4583324,1152.97916 92.3671875,1152.51042 92.3671875,1152.01562 C92.3671875,1151.49479 92.4583324,1151.01302 92.640625,1150.57031 C92.8229176,1150.1276 93.0833316,1149.73698 93.421875,1149.39844 C93.7604184,1149.08594 94.1510395,1148.83203 94.59375,1148.63672 C95.0364605,1148.44141 95.5052059,1148.34375 96,1148.34375 C96.4947941,1148.34375 96.9635395,1148.44141 97.40625,1148.63672 C97.8489605,1148.83203 98.2395816,1149.08594 98.578125,1149.39844 C98.9166684,1149.73698 99.1835928,1150.1276 99.3789062,1150.57031 C99.5742197,1151.01302 99.671875,1151.49479 99.671875,1152.01562 C99.671875,1152.51042 99.5742197,1152.97916 99.3789062,1153.42188 C99.1835928,1153.86459 98.9166684,1154.25521 98.578125,1154.59375 C98.2395816,1154.90625 97.8489605,1155.16016 97.40625,1155.35547 C96.9635395,1155.55078 96.4947941,1155.64844 96,1155.64844 L96,1155.64844 Z" id="gear" sketch:type="MSShapeGroup"></path>
        </g>
    </g>
</svg>