<?xml version="1.0" encoding="UTF-8" standalone="no"?>
<svg width="18px" height="19px" viewBox="0 0 18 19" version="1.1" xmlns="http://www.w3.org/2000/svg" xmlns:xlink="http://www.w3.org/1999/xlink" xmlns:sketch="http://www.bohemiancoding.com/sketch/ns">
    <!-- Generator: Sketch 3.3 (11970) - http://www.bohemiancoding.com/sketch -->
    <title>googleplus</title>
    <desc>Created with Sketch.</desc>
    <defs></defs>
    <g id="cheatsheet" stroke="none" stroke-width="1" fill="none" fill-rule="evenodd" sketch:type="MSPage">
        <g id="ligatures" sketch:type="MSArtboardGroup" transform="translate(-87.000000, -1193.000000)" fill="#4A4A4A">
            <path d="M87.9921875,1198.07031 C87.9921875,1198.4349 88.0247393,1198.77995 88.0898438,1199.10547 C88.1549482,1199.43099 88.2395828,1199.72396 88.34375,1199.98438 C88.473959,1200.27083 88.6302074,1200.51172 88.8125,1200.70703 C88.9947926,1200.90234 89.2161445,1201.10417 89.4765625,1201.3125 C89.6848969,1201.41667 89.8932281,1201.51432 90.1015625,1201.60547 C90.3098969,1201.69662 90.5052074,1201.74219 90.6875,1201.74219 C90.8958344,1201.82031 91.0846346,1201.85938 91.2539062,1201.85938 C91.4231779,1201.85938 91.572916,1201.8724 91.703125,1201.89844 C91.7552086,1201.8724 91.8072914,1201.86589 91.859375,1201.87891 C91.9114586,1201.89193 91.9505207,1201.88542 91.9765625,1201.85938 C91.9765625,1201.88542 91.9830729,1202.10026 91.9960938,1202.50391 C92.0091146,1202.90755 92.1979148,1203.36979 92.5625,1203.89062 L92.5234375,1203.85156 C92.2109359,1203.8776 91.748701,1203.91667 91.1367188,1203.96875 C90.5247365,1204.02083 89.9192738,1204.17708 89.3203125,1204.4375 C88.6953094,1204.67188 88.1614605,1205.04297 87.71875,1205.55078 C87.2760395,1206.0586 87.0546875,1206.72916 87.0546875,1207.5625 C87.0546875,1208.47396 87.2565084,1209.17057 87.6601562,1209.65234 C88.0638041,1210.13412 88.5260391,1210.50521 89.046875,1210.76562 C89.5937527,1210.97396 90.1210912,1211.11719 90.6289062,1211.19531 C91.1367213,1211.27344 91.4817699,1211.29948 91.6640625,1211.27344 C91.6901043,1211.29948 91.7161457,1211.30599 91.7421875,1211.29297 C91.7682293,1211.27995 91.78125,1211.28646 91.78125,1211.3125 C91.78125,1211.28646 91.7942707,1211.27995 91.8203125,1211.29297 C91.8463543,1211.30599 91.8854164,1211.29948 91.9375,1211.27344 C92.067709,1211.29948 92.2369781,1211.29948 92.4453125,1211.27344 C92.6536469,1211.2474 92.8880195,1211.22135 93.1484375,1211.19531 C93.4088555,1211.11719 93.6888006,1211.04557 93.9882812,1210.98047 C94.2877619,1210.91536 94.5937484,1210.79167 94.90625,1210.60938 C95.296877,1210.45312 95.6354152,1210.23828 95.921875,1209.96484 C96.2083348,1209.6914 96.4557281,1209.41146 96.6640625,1209.125 C96.8463551,1208.76041 96.9895828,1208.38932 97.09375,1208.01172 C97.1979172,1207.63411 97.25,1207.21094 97.25,1206.74219 C97.25,1206.32552 97.1783861,1205.92839 97.0351562,1205.55078 C96.8919264,1205.17318 96.7291676,1204.85417 96.546875,1204.59375 C96.3385406,1204.28125 96.1106783,1204.01432 95.8632812,1203.79297 C95.6158842,1203.57161 95.3880219,1203.35677 95.1796875,1203.14844 C94.8932277,1202.9401 94.6523447,1202.72526 94.4570312,1202.50391 C94.2617178,1202.28255 94.1640625,1202.09375 94.1640625,1201.9375 C94.1640625,1201.70312 94.2421867,1201.50781 94.3984375,1201.35156 C94.5546883,1201.19531 94.7369781,1201.01302 94.9453125,1200.80469 C95.1015633,1200.67448 95.2643221,1200.50521 95.4335938,1200.29688 C95.6028654,1200.08854 95.7395828,1199.88021 95.84375,1199.67188 C95.973959,1199.38542 96.0781246,1199.08594 96.15625,1198.77344 C96.2343754,1198.46094 96.2734375,1198.08334 96.2734375,1197.64062 C96.2734375,1197.30208 96.2604168,1196.97656 96.234375,1196.66406 C96.2083332,1196.35156 96.1432297,1196.07813 96.0390625,1195.84375 C95.9348953,1195.55729 95.7981779,1195.32292 95.6289062,1195.14062 C95.4596346,1194.95833 95.2187516,1194.77604 94.90625,1194.59375 C94.9843754,1194.59375 95.1080721,1194.57422 95.2773438,1194.53516 C95.4466154,1194.49609 95.5833328,1194.48958 95.6875,1194.51562 C95.8437508,1194.46354 96.0130199,1194.43099 96.1953125,1194.41797 C96.3776051,1194.40495 96.5468742,1194.35938 96.703125,1194.28125 C96.8593758,1194.25521 96.9895828,1194.19662 97.09375,1194.10547 C97.1979172,1194.01432 97.25,1193.91667 97.25,1193.8125 L97.25,1193.65625 L92.640625,1193.69531 C92.6145832,1193.66927 91.833341,1193.87109 90.296875,1194.30078 C88.760409,1194.73047 87.9921875,1195.97395 87.9921875,1198.03125 L87.9921875,1198.07031 Z M95.4140625,1207.09375 C95.4401043,1207.43229 95.3880215,1207.75781 95.2578125,1208.07031 C95.1276035,1208.38281 94.932293,1208.63021 94.671875,1208.8125 C94.411457,1209.07292 94.0989602,1209.26823 93.734375,1209.39844 C93.3697898,1209.52865 92.9531273,1209.61979 92.484375,1209.67188 C92.0416645,1209.67188 91.6119812,1209.63932 91.1953125,1209.57422 C90.7786438,1209.50911 90.4140641,1209.3724 90.1015625,1209.16406 C89.8151027,1209.00781 89.5742197,1208.78646 89.3789062,1208.5 C89.1835928,1208.21354 89.0729168,1207.90104 89.046875,1207.5625 C89.046875,1207.38021 89.0598957,1207.21094 89.0859375,1207.05469 C89.1119793,1206.89844 89.1640621,1206.72917 89.2421875,1206.54688 C89.3203129,1206.41667 89.4114578,1206.27344 89.515625,1206.11719 C89.6197922,1205.96094 89.7499992,1205.83073 89.90625,1205.72656 C90.036459,1205.57031 90.1927074,1205.4401 90.375,1205.33594 C90.5572926,1205.23177 90.7395824,1205.1276 90.921875,1205.02344 C91.1041676,1204.97135 91.3059885,1204.91927 91.5273438,1204.86719 C91.748699,1204.8151 91.9635406,1204.78906 92.171875,1204.78906 C92.2239586,1204.76302 92.2760414,1204.75651 92.328125,1204.76953 C92.3802086,1204.78255 92.4322914,1204.77604 92.484375,1204.75 C92.9010437,1204.77604 93.2851545,1204.84115 93.6367188,1204.94531 C93.988283,1205.04948 94.2942695,1205.21875 94.5546875,1205.45312 C94.8151055,1205.63542 95.0169264,1205.86979 95.1601562,1206.15625 C95.3033861,1206.44271 95.3880207,1206.74219 95.4140625,1207.05469 L95.4140625,1207.09375 Z M94.203125,1197.13281 C94.333334,1197.4974 94.3854168,1197.88151 94.359375,1198.28516 C94.3333332,1198.6888 94.255209,1199.04687 94.125,1199.35938 C93.994791,1199.69792 93.8255219,1199.97786 93.6171875,1200.19922 C93.4088531,1200.42057 93.1744805,1200.58333 92.9140625,1200.6875 C92.8359371,1200.66146 92.7643232,1200.66146 92.6992188,1200.6875 C92.6341143,1200.71354 92.5755211,1200.71354 92.5234375,1200.6875 C92.2630195,1200.71354 92.0156262,1200.66146 91.78125,1200.53125 C91.5468738,1200.40104 91.3255219,1200.24479 91.1171875,1200.0625 C90.9088531,1199.82812 90.7200529,1199.56771 90.5507812,1199.28125 C90.3815096,1198.99479 90.2578129,1198.66927 90.1796875,1198.30469 C90.1276039,1198.12239 90.0885418,1197.93359 90.0625,1197.73828 C90.0364582,1197.54297 90.0234375,1197.38021 90.0234375,1197.25 C90.0234375,1197.04167 90.0429686,1196.85938 90.0820312,1196.70312 C90.1210939,1196.54687 90.1666664,1196.37761 90.21875,1196.19531 C90.2708336,1196.0651 90.3359371,1195.92188 90.4140625,1195.76562 C90.4921879,1195.60937 90.5833328,1195.49219 90.6875,1195.41406 C90.7916672,1195.28385 90.9023432,1195.19271 91.0195312,1195.14062 C91.1367193,1195.08854 91.260416,1195.02344 91.390625,1194.94531 C91.4427086,1194.97135 91.5013018,1194.97135 91.5664062,1194.94531 C91.6315107,1194.91927 91.7031246,1194.91927 91.78125,1194.94531 C92.0677098,1194.91927 92.3346342,1194.94531 92.5820312,1195.02344 C92.8294283,1195.10156 93.0572906,1195.21875 93.265625,1195.375 C93.4739594,1195.55729 93.6562492,1195.78515 93.8125,1196.05859 C93.9687508,1196.33203 94.0989578,1196.6901 94.203125,1197.13281 L94.203125,1197.13281 Z M101.976562,1200.53125 L101.976562,1197.5625 L100.0625,1197.52344 L100.0625,1200.57031 L97.0546875,1200.53125 L97.0546875,1202.48438 L100.0625,1202.44531 L100.0625,1205.49219 L101.976562,1205.45312 L101.976562,1202.48438 L104.945312,1202.44531 L104.945312,1200.57031 L101.976562,1200.53125 Z" id="googleplus" sketch:type="MSShapeGroup"></path>
        </g>
    </g>
</svg>