<?xml version="1.0" encoding="UTF-8" standalone="no"?>
<svg width="18px" height="14px" viewBox="0 0 18 14" version="1.1" xmlns="http://www.w3.org/2000/svg" xmlns:xlink="http://www.w3.org/1999/xlink" xmlns:sketch="http://www.bohemiancoding.com/sketch/ns">
    <!-- Generator: Sketch 3.3 (11970) - http://www.bohemiancoding.com/sketch -->
    <title>heart</title>
    <desc>Created with Sketch.</desc>
    <defs></defs>
    <g id="cheatsheet" stroke="none" stroke-width="1" fill="none" fill-rule="evenodd" sketch:type="MSPage">
        <g id="ligatures" sketch:type="MSArtboardGroup" transform="translate(-87.000000, -1247.000000)" fill="#4A4A4A">
            <path d="M103.1875,1248.14844 C102.770831,1247.75781 102.302086,1247.47136 101.78125,1247.28906 C101.260414,1247.10677 100.726565,1247.01562 100.179688,1247.01562 C99.606768,1247.01562 99.0598984,1247.10677 98.5390625,1247.28906 C98.0182266,1247.47136 97.5494812,1247.75781 97.1328125,1248.14844 L96,1249.20312 L94.8671875,1248.14844 C94.4505188,1247.75781 93.9752631,1247.47136 93.4414062,1247.28906 C92.9075494,1247.10677 92.3671902,1247.01562 91.8203125,1247.01562 C91.2734348,1247.01562 90.7395859,1247.10677 90.21875,1247.28906 C89.6979141,1247.47136 89.2291687,1247.75781 88.8125,1248.14844 C88.3437477,1248.59115 87.9921887,1249.07942 87.7578125,1249.61328 C87.5234363,1250.14714 87.40625,1250.70052 87.40625,1251.27344 C87.40625,1251.84636 87.5234363,1252.40625 87.7578125,1252.95312 C87.9921887,1253.5 88.3437477,1253.98177 88.8125,1254.39844 L96,1261 L103.1875,1254.39844 C103.656252,1253.98177 104.007811,1253.5 104.242188,1252.95312 C104.476564,1252.40625 104.59375,1251.84636 104.59375,1251.27344 C104.59375,1250.70052 104.476564,1250.14714 104.242188,1249.61328 C104.007811,1249.07942 103.656252,1248.59115 103.1875,1248.14844 L103.1875,1248.14844 Z" id="heart" sketch:type="MSShapeGroup"></path>
        </g>
    </g>
</svg>