<?xml version="1.0" encoding="UTF-8" standalone="no"?>
<svg width="18px" height="18px" viewBox="0 0 18 18" version="1.1" xmlns="http://www.w3.org/2000/svg" xmlns:xlink="http://www.w3.org/1999/xlink" xmlns:sketch="http://www.bohemiancoding.com/sketch/ns">
    <!-- Generator: Sketch 3.3 (11970) - http://www.bohemiancoding.com/sketch -->
    <title>helpcircle</title>
    <desc>Created with Sketch.</desc>
    <defs></defs>
    <g id="cheatsheet" stroke="none" stroke-width="1" fill="none" fill-rule="evenodd" sketch:type="MSPage">
        <g id="ligatures" sketch:type="MSArtboardGroup" transform="translate(-536.000000, -93.000000)" fill="#4A4A4A">
            <path d="M545,92.9921875 C543.749994,92.9921875 542.57813,93.2265602 541.484375,93.6953125 C540.39062,94.1640648 539.440108,94.8151 538.632812,95.6484375 C537.825517,96.4557332 537.187502,97.4062445 536.71875,98.5 C536.249998,99.5937555 536.015625,100.765619 536.015625,102.015625 C536.015625,103.239589 536.249998,104.398432 536.71875,105.492188 C537.187502,106.585943 537.825517,107.549475 538.632812,108.382812 C539.440108,109.190108 540.39062,109.828123 541.484375,110.296875 C542.57813,110.765627 543.749994,111 545,111 C546.250006,111 547.42187,110.765627 548.515625,110.296875 C549.60938,109.828123 550.559892,109.190108 551.367188,108.382812 C552.174483,107.549475 552.812498,106.585943 553.28125,105.492188 C553.750002,104.398432 553.984375,103.239589 553.984375,102.015625 C553.984375,100.765619 553.750002,99.5937555 553.28125,98.5 C552.812498,97.4062445 552.174483,96.4557332 551.367188,95.6484375 C550.559892,94.8151 549.60938,94.1640648 548.515625,93.6953125 C547.42187,93.2265602 546.250006,92.9921875 545,92.9921875 L545,92.9921875 Z M543.789062,107.71875 C543.60677,107.71875 543.444011,107.692709 543.300781,107.640625 C543.157551,107.588541 543.033855,107.510417 542.929688,107.40625 C542.82552,107.328125 542.747396,107.223959 542.695312,107.09375 C542.643229,106.963541 542.617188,106.820313 542.617188,106.664062 C542.617188,106.455728 542.65625,106.273438 542.734375,106.117188 C542.8125,105.960937 542.929687,105.817709 543.085938,105.6875 C543.216146,105.557291 543.365885,105.459636 543.535156,105.394531 C543.704428,105.329427 543.880207,105.296875 544.0625,105.296875 C544.270834,105.296875 544.446614,105.329427 544.589844,105.394531 C544.733074,105.459636 544.85677,105.54427 544.960938,105.648438 C545.039063,105.778646 545.104166,105.915364 545.15625,106.058594 C545.208334,106.201824 545.234375,106.351562 545.234375,106.507812 C545.234375,106.690105 545.195313,106.859374 545.117188,107.015625 C545.039062,107.171876 544.934896,107.302083 544.804688,107.40625 C544.674479,107.510417 544.52474,107.588541 544.355469,107.640625 C544.186197,107.692709 543.997397,107.71875 543.789062,107.71875 L543.789062,107.71875 Z M545.742188,102.757812 C545.664062,102.783854 545.605469,102.822916 545.566406,102.875 C545.527344,102.927084 545.494792,102.992187 545.46875,103.070312 C545.442708,103.17448 545.416667,103.311197 545.390625,103.480469 C545.364583,103.64974 545.338542,103.838541 545.3125,104.046875 C545.130207,104.125 544.889324,104.190104 544.589844,104.242188 C544.290363,104.294271 543.945314,104.333333 543.554688,104.359375 C543.502604,104.229166 543.444011,104.027345 543.378906,103.753906 C543.313802,103.480467 543.28125,103.200522 543.28125,102.914062 L543.28125,102.71875 C543.28125,102.640625 543.294271,102.575521 543.320312,102.523438 C543.763023,102.236978 544.153644,101.976564 544.492188,101.742188 C544.830731,101.507811 545.117186,101.273439 545.351562,101.039062 C545.585939,100.804686 545.768229,100.563803 545.898438,100.316406 C546.028646,100.069009 546.09375,99.7890641 546.09375,99.4765625 C546.09375,99.3463535 546.074219,99.2226568 546.035156,99.1054688 C545.996094,98.9882807 545.9375,98.8776047 545.859375,98.7734375 C545.78125,98.6953121 545.690105,98.6302086 545.585938,98.578125 C545.48177,98.5260414 545.351563,98.5 545.195312,98.5 C545.065104,98.5 544.941407,98.5130207 544.824219,98.5390625 C544.707031,98.5651043 544.583334,98.6171871 544.453125,98.6953125 C544.401041,98.7213543 544.36849,98.7473957 544.355469,98.7734375 C544.342448,98.7994793 544.335938,98.8385414 544.335938,98.890625 L543.789062,100.21875 C543.632812,100.192708 543.489584,100.173177 543.359375,100.160156 C543.229166,100.147135 543.085938,100.127604 542.929688,100.101562 C542.799479,100.101562 542.669271,100.088542 542.539062,100.0625 C542.408854,100.036458 542.278646,100.023438 542.148438,100.023438 C542.200521,99.8151031 542.252604,99.6002615 542.304688,99.3789062 C542.356771,99.157551 542.395833,98.9427094 542.421875,98.734375 C542.473959,98.5260406 542.526041,98.311199 542.578125,98.0898438 C542.630209,97.8684885 542.682291,97.6536469 542.734375,97.4453125 C542.916668,97.3671871 543.124999,97.2955732 543.359375,97.2304688 C543.593751,97.1653643 543.854165,97.1067711 544.140625,97.0546875 C544.427085,97.0026039 544.720051,96.9635418 545.019531,96.9375 C545.319012,96.9114582 545.624998,96.8984375 545.9375,96.8984375 C546.432294,96.8984375 546.868488,96.9505203 547.246094,97.0546875 C547.6237,97.1588547 547.942707,97.3020824 548.203125,97.484375 C548.463543,97.6666676 548.665364,97.9010402 548.808594,98.1875 C548.951824,98.4739598 549.023438,98.7864566 549.023438,99.125 C549.023438,99.4635434 548.977865,99.7825506 548.886719,100.082031 C548.795572,100.381512 548.632814,100.687498 548.398438,101 C548.13802,101.28646 547.799481,101.572915 547.382812,101.859375 C546.966144,102.145835 546.419274,102.445311 545.742188,102.757812 L545.742188,102.757812 Z" id="helpcircle" sketch:type="MSShapeGroup"></path>
        </g>
    </g>
</svg>