<?xml version="1.0" encoding="UTF-8" standalone="no"?>
<svg width="18px" height="18px" viewBox="0 0 18 18" version="1.1" xmlns="http://www.w3.org/2000/svg" xmlns:xlink="http://www.w3.org/1999/xlink" xmlns:sketch="http://www.bohemiancoding.com/sketch/ns">
    <!-- Generator: Sketch 3.3 (11970) - http://www.bohemiancoding.com/sketch -->
    <title>house</title>
    <desc>Created with Sketch.</desc>
    <defs></defs>
    <g id="cheatsheet" stroke="none" stroke-width="1" fill="none" fill-rule="evenodd" sketch:type="MSPage">
        <g id="ligatures" sketch:type="MSArtboardGroup" transform="translate(-536.000000, -144.000000)" fill="#4A4A4A">
            <path d="M553.789062,153.304688 L545.78125,145.257812 C545.651041,145.153645 545.527344,145.075521 545.410156,145.023438 C545.292968,144.971354 545.156251,144.945312 545,144.945312 C544.895833,144.945312 544.772136,144.971354 544.628906,145.023438 C544.485676,145.075521 544.375,145.153645 544.296875,145.257812 L536.210938,153.304688 C536.054687,153.513022 536.002604,153.695312 536.054688,153.851562 C536.106771,154.007813 536.289061,154.085938 536.601562,154.085938 L538.242188,154.085938 L538.28125,160.257812 C538.255208,160.466147 538.28776,160.648437 538.378906,160.804688 C538.470053,160.960938 538.697915,161.039062 539.0625,161.039062 L543.007812,161.039062 L542.96875,154.867188 L547.070312,154.867188 L547.03125,161.039062 L551.171875,161.039062 C551.458335,161.039062 551.634114,160.960938 551.699219,160.804688 C551.764323,160.648437 551.783854,160.466147 551.757812,160.257812 L551.796875,154.085938 L553.4375,154.085938 C553.750002,154.085938 553.932291,154.007813 553.984375,153.851562 C554.036459,153.695312 553.984376,153.513022 553.828125,153.304688 L553.789062,153.304688 Z" id="house" sketch:type="MSShapeGroup"></path>
        </g>
    </g>
</svg>