<?xml version="1.0" encoding="UTF-8" standalone="no"?>
<svg width="20px" height="9px" viewBox="0 0 20 9" version="1.1" xmlns="http://www.w3.org/2000/svg" xmlns:xlink="http://www.w3.org/1999/xlink" xmlns:sketch="http://www.bohemiancoding.com/sketch/ns">
    <!-- Generator: Sketch 3.3 (11970) - http://www.bohemiancoding.com/sketch -->
    <title>inbox</title>
    <desc>Created with Sketch.</desc>
    <defs></defs>
    <g id="cheatsheet" stroke="none" stroke-width="1" fill="none" fill-rule="evenodd" sketch:type="MSPage">
        <g id="ligatures" sketch:type="MSArtboardGroup" transform="translate(-535.000000, -202.000000)" fill="#4A4A4A">
            <path d="M554.335938,205.53125 C554.23177,205.427083 554.04948,205.244793 553.789062,204.984375 C553.528645,204.723957 553.242189,204.450522 552.929688,204.164062 C552.617186,203.851561 552.304689,203.539064 551.992188,203.226562 C551.679686,202.914061 551.406251,202.640626 551.171875,202.40625 C551.041666,202.276041 550.885418,202.178386 550.703125,202.113281 C550.520832,202.048177 550.338543,202.015625 550.15625,202.015625 L547.421875,202.015625 L545,202.015625 L542.578125,202.015625 L539.84375,202.015625 C539.661457,202.015625 539.479168,202.054687 539.296875,202.132812 C539.114582,202.210938 538.958334,202.302083 538.828125,202.40625 C538.593749,202.640626 538.320314,202.914061 538.007812,203.226562 C537.695311,203.539064 537.382814,203.851561 537.070312,204.164062 C536.757811,204.450522 536.471355,204.723957 536.210938,204.984375 C535.95052,205.244793 535.76823,205.427083 535.664062,205.53125 C535.533854,205.661459 535.423178,205.785156 535.332031,205.902344 C535.240885,206.019532 535.169271,206.143229 535.117188,206.273438 C535.065104,206.377605 535.032552,206.488281 535.019531,206.605469 C535.00651,206.722657 535.013021,206.846354 535.039062,206.976562 L535.585938,210.0625 C535.611979,210.192709 535.670572,210.316406 535.761719,210.433594 C535.852865,210.550782 535.95052,210.648437 536.054688,210.726562 C536.158855,210.804688 536.282551,210.869791 536.425781,210.921875 C536.569011,210.973959 536.705729,211 536.835938,211 L553.164062,211 C553.294271,211 553.430989,210.973959 553.574219,210.921875 C553.717449,210.869791 553.841145,210.804688 553.945312,210.726562 C554.04948,210.648437 554.147135,210.550782 554.238281,210.433594 C554.329428,210.316406 554.388021,210.192709 554.414062,210.0625 L554.960938,206.976562 C554.986979,206.846354 554.99349,206.722657 554.980469,206.605469 C554.967448,206.488281 554.934896,206.377605 554.882812,206.273438 C554.830729,206.143229 554.759115,206.019532 554.667969,205.902344 C554.576822,205.785156 554.466146,205.661459 554.335938,205.53125 L554.335938,205.53125 Z M549.0625,206.195312 C549.010416,206.195312 548.958334,206.208333 548.90625,206.234375 C548.854166,206.260417 548.828125,206.299479 548.828125,206.351562 L548.007812,208.382812 L541.992188,208.382812 L541.210938,206.351562 C541.184896,206.299479 541.145834,206.260417 541.09375,206.234375 C541.041666,206.208333 540.989584,206.195312 540.9375,206.195312 L537.421875,206.195312 L539.453125,203.890625 L550.546875,203.890625 L552.578125,206.195312 L549.0625,206.195312 Z" id="inbox" sketch:type="MSShapeGroup"></path>
        </g>
    </g>
</svg>