<?xml version="1.0" encoding="UTF-8" standalone="no"?>
<svg width="18px" height="18px" viewBox="0 0 18 18" version="1.1" xmlns="http://www.w3.org/2000/svg" xmlns:xlink="http://www.w3.org/1999/xlink" xmlns:sketch="http://www.bohemiancoding.com/sketch/ns">
    <!-- Generator: Sketch 3.3 (11970) - http://www.bohemiancoding.com/sketch -->
    <title>infocircle</title>
    <desc>Created with Sketch.</desc>
    <defs></defs>
    <g id="cheatsheet" stroke="none" stroke-width="1" fill="none" fill-rule="evenodd" sketch:type="MSPage">
        <g id="ligatures" sketch:type="MSArtboardGroup" transform="translate(-536.000000, -243.000000)" fill="#4A4A4A">
            <path d="M545,242.992188 C543.749994,242.992188 542.57813,243.22656 541.484375,243.695312 C540.39062,244.164065 539.440108,244.8151 538.632812,245.648438 C537.825517,246.455733 537.187502,247.406245 536.71875,248.5 C536.249998,249.593755 536.015625,250.765619 536.015625,252.015625 C536.015625,253.239589 536.249998,254.398432 536.71875,255.492188 C537.187502,256.585943 537.825517,257.536454 538.632812,258.34375 C539.440108,259.177087 540.39062,259.828123 541.484375,260.296875 C542.57813,260.765627 543.749994,261 545,261 C546.250006,261 547.42187,260.765627 548.515625,260.296875 C549.60938,259.828123 550.559892,259.177087 551.367188,258.34375 C552.174483,257.536454 552.812498,256.585943 553.28125,255.492188 C553.750002,254.398432 553.984375,253.239589 553.984375,252.015625 C553.984375,250.765619 553.750002,249.593755 553.28125,248.5 C552.812498,247.406245 552.174483,246.455733 551.367188,245.648438 C550.559892,244.8151 549.60938,244.164065 548.515625,243.695312 C547.42187,243.22656 546.250006,242.992188 545,242.992188 L545,242.992188 Z M545.429688,246.15625 C545.664064,246.15625 545.859374,246.188802 546.015625,246.253906 C546.171876,246.319011 546.302083,246.403645 546.40625,246.507812 C546.510417,246.61198 546.582031,246.729166 546.621094,246.859375 C546.660156,246.989584 546.679688,247.119791 546.679688,247.25 C546.679688,247.484376 546.640625,247.679687 546.5625,247.835938 C546.484375,247.992188 546.39323,248.135416 546.289062,248.265625 C546.158854,248.369792 546.015626,248.454427 545.859375,248.519531 C545.703124,248.584636 545.533855,248.617188 545.351562,248.617188 C545.143228,248.617188 544.960938,248.578125 544.804688,248.5 C544.648437,248.421875 544.51823,248.33073 544.414062,248.226562 C544.309895,248.122395 544.231771,247.998699 544.179688,247.855469 C544.127604,247.712239 544.101562,247.562501 544.101562,247.40625 C544.101562,247.223957 544.134114,247.061199 544.199219,246.917969 C544.264323,246.774739 544.348958,246.638021 544.453125,246.507812 C544.583334,246.403645 544.733072,246.319011 544.902344,246.253906 C545.071615,246.188802 545.247395,246.15625 545.429688,246.15625 L545.429688,246.15625 Z M544.023438,257.054688 C543.945312,257.054688 543.815105,256.970053 543.632812,256.800781 C543.45052,256.63151 543.346354,256.481771 543.320312,256.351562 C543.398438,255.986977 543.476562,255.596356 543.554688,255.179688 C543.632813,254.763019 543.723958,254.359377 543.828125,253.96875 C543.90625,253.552081 543.984375,253.16146 544.0625,252.796875 C544.140625,252.43229 544.205729,252.106772 544.257812,251.820312 L543.085938,251.78125 L543.085938,251.15625 C543.085938,250.947916 543.098958,250.752605 543.125,250.570312 C543.671878,250.492187 544.257809,250.401042 544.882812,250.296875 C545.507816,250.192708 545.872395,250.140625 545.976562,250.140625 C546.08073,250.140625 546.210937,250.212239 546.367188,250.355469 C546.523438,250.498699 546.640625,250.635416 546.71875,250.765625 C546.640625,251.078127 546.55599,251.481768 546.464844,251.976562 C546.373697,252.471357 546.263021,252.953123 546.132812,253.421875 C546.054687,253.916669 545.963542,254.365883 545.859375,254.769531 C545.755208,255.173179 545.703125,255.440104 545.703125,255.570312 C545.651041,255.622396 545.638021,255.654948 545.664062,255.667969 L545.703125,255.6875 C545.807292,255.6875 545.937499,255.674479 546.09375,255.648438 C546.250001,255.622396 546.445311,255.583334 546.679688,255.53125 C546.679688,255.739584 546.692708,255.941405 546.71875,256.136719 C546.744792,256.332032 546.757812,256.533853 546.757812,256.742188 C546.627604,256.768229 546.458334,256.800781 546.25,256.839844 C546.041666,256.878906 545.833334,256.911458 545.625,256.9375 C545.390624,256.963542 545.14323,256.989583 544.882812,257.015625 C544.622395,257.041667 544.322918,257.054688 543.984375,257.054688 L544.023438,257.054688 Z" id="infocircle" sketch:type="MSShapeGroup"></path>
        </g>
    </g>
</svg>