<?xml version="1.0" encoding="UTF-8" standalone="no"?>
<svg width="18px" height="18px" viewBox="0 0 18 18" version="1.1" xmlns="http://www.w3.org/2000/svg" xmlns:xlink="http://www.w3.org/1999/xlink" xmlns:sketch="http://www.bohemiancoding.com/sketch/ns">
    <!-- Generator: Sketch 3.3 (11970) - http://www.bohemiancoding.com/sketch -->
    <title>instagram</title>
    <desc>Created with Sketch.</desc>
    <defs></defs>
    <g id="cheatsheet" stroke="none" stroke-width="1" fill="none" fill-rule="evenodd" sketch:type="MSPage">
        <g id="ligatures" sketch:type="MSArtboardGroup" transform="translate(-536.000000, -293.000000)" fill="#4A4A4A">
            <path d="M550.195312,302.015625 C550.195312,302.744795 550.058595,303.421872 549.785156,304.046875 C549.511717,304.671878 549.140627,305.231768 548.671875,305.726562 C548.203123,306.169273 547.656253,306.533853 547.03125,306.820312 C546.406247,307.106772 545.72917,307.236979 545,307.210938 C544.27083,307.236979 543.593753,307.106772 542.96875,306.820312 C542.343747,306.533853 541.796877,306.169273 541.328125,305.726562 C540.859373,305.231768 540.488283,304.671878 540.214844,304.046875 C539.941405,303.421872 539.804688,302.744795 539.804688,302.015625 C539.804688,301.859374 539.811198,301.690105 539.824219,301.507812 C539.83724,301.32552 539.856771,301.169271 539.882812,301.039062 L536.40625,301 L536.40625,307.953125 C536.40625,308.291668 536.477864,308.630207 536.621094,308.96875 C536.764324,309.307293 536.953124,309.593749 537.1875,309.828125 C537.421876,310.088543 537.701821,310.283854 538.027344,310.414062 C538.352866,310.544271 538.710936,310.622396 539.101562,310.648438 L550.898438,310.609375 C551.289064,310.635417 551.647134,310.570313 551.972656,310.414062 C552.298179,310.257812 552.578124,310.075522 552.8125,309.867188 C553.046876,309.580728 553.235676,309.281252 553.378906,308.96875 C553.522136,308.656248 553.59375,308.304689 553.59375,307.914062 L553.59375,301.039062 L550.117188,301 C550.143229,301.182293 550.16276,301.351562 550.175781,301.507812 C550.188802,301.664063 550.195312,301.846353 550.195312,302.054688 L550.195312,302.015625 Z M550.898438,293.382812 L539.101562,293.421875 C538.710936,293.395833 538.352866,293.460937 538.027344,293.617188 C537.701821,293.773438 537.421876,293.968749 537.1875,294.203125 C536.953124,294.463543 536.764324,294.749998 536.621094,295.0625 C536.477864,295.375002 536.40625,295.726561 536.40625,296.117188 L536.40625,299.007812 L540.742188,299.046875 C540.976564,298.68229 541.249998,298.369793 541.5625,298.109375 C541.875002,297.848957 542.21354,297.614584 542.578125,297.40625 C542.94271,297.249999 543.326821,297.106771 543.730469,296.976562 C544.134117,296.846354 544.557289,296.794271 545,296.820312 C545.442711,296.794271 545.865883,296.846354 546.269531,296.976562 C546.673179,297.106771 547.05729,297.249999 547.421875,297.40625 C547.78646,297.614584 548.124998,297.848957 548.4375,298.109375 C548.750002,298.369793 549.023436,298.68229 549.257812,299.046875 L553.59375,299.007812 L553.59375,296.117188 C553.59375,295.726561 553.522136,295.375002 553.378906,295.0625 C553.235676,294.749998 553.046876,294.463543 552.8125,294.203125 C552.578124,293.968749 552.298179,293.773438 551.972656,293.617188 C551.647134,293.460937 551.289064,293.395833 550.898438,293.421875 L550.898438,293.382812 Z M552.226562,296.703125 C552.226562,296.885418 552.18099,297.015625 552.089844,297.09375 C551.998697,297.171875 551.888021,297.223958 551.757812,297.25 L550.3125,297.210938 C550.182291,297.236979 550.071615,297.197917 549.980469,297.09375 C549.889322,296.989583 549.84375,296.872396 549.84375,296.742188 L549.84375,295.296875 C549.84375,295.166666 549.889322,295.04948 549.980469,294.945312 C550.071615,294.841145 550.182291,294.802083 550.3125,294.828125 L551.757812,294.789062 C551.888021,294.815104 551.998697,294.867187 552.089844,294.945312 C552.18099,295.023438 552.226562,295.153645 552.226562,295.335938 L552.226562,296.703125 Z M548.203125,302.054688 C548.203125,301.585935 548.11849,301.162762 547.949219,300.785156 C547.779947,300.40755 547.552085,300.062502 547.265625,299.75 C546.979165,299.489582 546.640627,299.26823 546.25,299.085938 C545.859373,298.903645 545.442711,298.825521 545,298.851562 C544.557289,298.825521 544.140627,298.903645 543.75,299.085938 C543.359373,299.26823 543.020835,299.489582 542.734375,299.75 C542.447915,300.062502 542.220053,300.40755 542.050781,300.785156 C541.88151,301.162762 541.796875,301.585935 541.796875,302.054688 C541.796875,302.471356 541.88151,302.874998 542.050781,303.265625 C542.220053,303.656252 542.447915,303.99479 542.734375,304.28125 C543.020835,304.593752 543.359373,304.828124 543.75,304.984375 C544.140627,305.140626 544.557289,305.231771 545,305.257812 C545.442711,305.231771 545.859373,305.140626 546.25,304.984375 C546.640627,304.828124 546.979165,304.593752 547.265625,304.28125 C547.552085,303.99479 547.779947,303.656252 547.949219,303.265625 C548.11849,302.874998 548.203125,302.471356 548.203125,302.054688 L548.203125,302.054688 Z" id="instagram" sketch:type="MSShapeGroup"></path>
        </g>
    </g>
</svg>