<?xml version="1.0" encoding="UTF-8" standalone="no"?>
<svg width="10px" height="19px" viewBox="0 0 10 19" version="1.1" xmlns="http://www.w3.org/2000/svg" xmlns:xlink="http://www.w3.org/1999/xlink" xmlns:sketch="http://www.bohemiancoding.com/sketch/ns">
    <!-- Generator: Sketch 3.3 (11970) - http://www.bohemiancoding.com/sketch -->
    <title>leftstrokethin</title>
    <desc>Created with Sketch.</desc>
    <defs></defs>
    <g id="cheatsheet" stroke="none" stroke-width="1" fill="none" fill-rule="evenodd" sketch:type="MSPage">
        <g id="ligatures" sketch:type="MSArtboardGroup" transform="translate(-540.000000, -393.000000)" fill="#4A4A4A">
            <path d="M549.414062,409.90625 C549.544271,410.036459 549.609375,410.199218 549.609375,410.394531 C549.609375,410.589845 549.544271,410.739583 549.414062,410.84375 C549.257812,411.026043 549.088543,411.110677 548.90625,411.097656 C548.723957,411.084635 548.567709,411.013021 548.4375,410.882812 L540.585938,402.953125 C540.455729,402.848958 540.390625,402.692709 540.390625,402.484375 C540.390625,402.276041 540.455729,402.119792 540.585938,402.015625 L548.4375,394.046875 C548.567709,393.942708 548.723957,393.884115 548.90625,393.871094 C549.088543,393.858073 549.257812,393.929687 549.414062,394.085938 C549.544271,394.216146 549.609375,394.378905 549.609375,394.574219 C549.609375,394.769532 549.544271,394.91927 549.414062,395.023438 L542.265625,402.484375 L549.414062,409.867188 L549.414062,409.90625 Z" id="leftstrokethin" sketch:type="MSShapeGroup"></path>
        </g>
    </g>
</svg>