<?xml version="1.0" encoding="UTF-8" standalone="no"?>
<svg width="8px" height="12px" viewBox="0 0 8 12" version="1.1" xmlns="http://www.w3.org/2000/svg" xmlns:xlink="http://www.w3.org/1999/xlink" xmlns:sketch="http://www.bohemiancoding.com/sketch/ns">
    <!-- Generator: Sketch 3.3 (11970) - http://www.bohemiancoding.com/sketch -->
    <title>leftstroke</title>
    <desc>Created with Sketch.</desc>
    <defs></defs>
    <g id="cheatsheet" stroke="none" stroke-width="1" fill="none" fill-rule="evenodd" sketch:type="MSPage">
        <g id="ligatures" sketch:type="MSArtboardGroup" transform="translate(-541.000000, -349.000000)" fill="#4A4A4A">
            <path d="M541.132812,354.671875 L546.484375,349.164062 C546.536459,349.111979 546.588541,349.079427 546.640625,349.066406 C546.692709,349.053385 546.757812,349.033854 546.835938,349.007812 C546.861979,349.033854 546.914062,349.053385 546.992188,349.066406 C547.070313,349.079427 547.109375,349.111979 547.109375,349.164062 L548.359375,350.375 C548.385417,350.453125 548.417969,350.511719 548.457031,350.550781 C548.496094,350.589844 548.502604,350.648437 548.476562,350.726562 C548.502604,350.778646 548.496094,350.837239 548.457031,350.902344 C548.417969,350.967448 548.385417,351.013021 548.359375,351.039062 L544.492188,355.023438 L548.359375,358.929688 C548.385417,359.007813 548.417969,359.066406 548.457031,359.105469 C548.496094,359.144531 548.502604,359.216145 548.476562,359.320312 C548.502604,359.346354 548.496094,359.398437 548.457031,359.476562 C548.417969,359.554688 548.385417,359.59375 548.359375,359.59375 L547.109375,360.882812 C547.109375,360.908854 547.070313,360.941406 546.992188,360.980469 C546.914062,361.019531 546.861979,361.026042 546.835938,361 C546.757812,361.026042 546.699219,361.019531 546.660156,360.980469 C546.621094,360.941406 546.5625,360.908854 546.484375,360.882812 L541.132812,355.335938 C541.054687,355.309896 541.015625,355.264323 541.015625,355.199219 C541.015625,355.134114 541.002604,355.075521 540.976562,355.023438 C541.002604,354.945312 541.015625,354.886719 541.015625,354.847656 C541.015625,354.808594 541.054687,354.75 541.132812,354.671875 L541.09375,354.710938 L541.132812,354.671875 Z" id="leftstroke" sketch:type="MSShapeGroup"></path>
        </g>
    </g>
</svg>