<?xml version="1.0" encoding="UTF-8" standalone="no"?>
<svg width="18px" height="18px" viewBox="0 0 18 18" version="1.1" xmlns="http://www.w3.org/2000/svg" xmlns:xlink="http://www.w3.org/1999/xlink" xmlns:sketch="http://www.bohemiancoding.com/sketch/ns">
    <!-- Generator: Sketch 3.3 (11970) - http://www.bohemiancoding.com/sketch -->
    <title>linkedin</title>
    <desc>Created with Sketch.</desc>
    <defs></defs>
    <g id="cheatsheet" stroke="none" stroke-width="1" fill="none" fill-rule="evenodd" sketch:type="MSPage">
        <g id="ligatures" sketch:type="MSArtboardGroup" transform="translate(-536.000000, -493.000000)" fill="#4A4A4A">
            <path d="M540.078125,495.0625 C540.078125,495.322918 540.032553,495.570311 539.941406,495.804688 C539.85026,496.039064 539.713543,496.247395 539.53125,496.429688 C539.348957,496.585938 539.127605,496.716145 538.867188,496.820312 C538.60677,496.92448 538.320314,496.976562 538.007812,496.976562 C537.695311,496.976562 537.415366,496.92448 537.167969,496.820312 C536.920572,496.716145 536.718751,496.585938 536.5625,496.429688 C536.380207,496.247395 536.24349,496.039064 536.152344,495.804688 C536.061197,495.570311 536.015625,495.322918 536.015625,495.0625 C536.015625,494.77604 536.061197,494.515626 536.152344,494.28125 C536.24349,494.046874 536.380207,493.851563 536.5625,493.695312 C536.744793,493.51302 536.959634,493.369792 537.207031,493.265625 C537.454428,493.161458 537.734373,493.109375 538.046875,493.109375 C538.359377,493.109375 538.639322,493.161458 538.886719,493.265625 C539.134116,493.369792 539.348957,493.51302 539.53125,493.695312 C539.687501,493.851563 539.817708,494.046874 539.921875,494.28125 C540.026042,494.515626 540.078125,494.77604 540.078125,495.0625 L540.078125,495.0625 Z M536.09375,510.882812 L536.09375,498.5 L539.960938,498.5 L539.960938,510.882812 L536.09375,510.882812 Z M542.265625,502.445312 C542.265625,502.054686 542.259115,501.683596 542.246094,501.332031 C542.233073,500.980467 542.226562,500.635418 542.226562,500.296875 C542.200521,499.984373 542.1875,499.678387 542.1875,499.378906 C542.1875,499.079426 542.174479,498.78646 542.148438,498.5 L545.507812,498.5 L545.664062,500.21875 L545.742188,500.21875 C545.872396,500.010416 546.048176,499.789064 546.269531,499.554688 C546.490887,499.320311 546.757811,499.11198 547.070312,498.929688 C547.382814,498.721353 547.747394,498.552084 548.164062,498.421875 C548.580731,498.291666 549.049477,498.226562 549.570312,498.226562 C550.195316,498.226562 550.781247,498.330728 551.328125,498.539062 C551.875003,498.747397 552.343748,499.072914 552.734375,499.515625 C553.125002,499.958336 553.430988,500.511715 553.652344,501.175781 C553.873699,501.839847 553.984375,502.6276 553.984375,503.539062 L553.984375,510.882812 L550.15625,510.882812 L550.15625,504.007812 C550.15625,503.617186 550.117188,503.259116 550.039062,502.933594 C549.960937,502.608071 549.843751,502.315105 549.6875,502.054688 C549.531249,501.820311 549.329428,501.638021 549.082031,501.507812 C548.834634,501.377604 548.541668,501.3125 548.203125,501.3125 C547.942707,501.3125 547.701824,501.358072 547.480469,501.449219 C547.259113,501.540365 547.070313,501.651041 546.914062,501.78125 C546.757812,501.911459 546.621094,502.067707 546.503906,502.25 C546.386718,502.432293 546.289063,502.601562 546.210938,502.757812 C546.158854,502.888021 546.126302,503.03776 546.113281,503.207031 C546.10026,503.376303 546.09375,503.552082 546.09375,503.734375 L546.09375,510.882812 L542.265625,510.882812 L542.265625,502.445312 Z" id="linkedin" sketch:type="MSShapeGroup"></path>
        </g>
    </g>
</svg>