<?xml version="1.0" encoding="UTF-8" standalone="no"?>
<svg width="16px" height="16px" viewBox="0 0 16 16" version="1.1" xmlns="http://www.w3.org/2000/svg" xmlns:xlink="http://www.w3.org/1999/xlink" xmlns:sketch="http://www.bohemiancoding.com/sketch/ns">
    <!-- Generator: Sketch 3.3 (11970) - http://www.bohemiancoding.com/sketch -->
    <title>link</title>
    <desc>Created with Sketch.</desc>
    <defs></defs>
    <g id="cheatsheet" stroke="none" stroke-width="1" fill="none" fill-rule="evenodd" sketch:type="MSPage">
        <g id="ligatures" sketch:type="MSArtboardGroup" transform="translate(-537.000000, -445.000000)" fill="#4A4A4A">
            <path d="M542.851562,457.679688 L542.03125,458.5 C541.874999,458.682293 541.686199,458.8125 541.464844,458.890625 C541.243488,458.96875 541.015626,459.007812 540.78125,459.007812 C540.546874,459.007812 540.319012,458.96875 540.097656,458.890625 C539.876301,458.8125 539.67448,458.682293 539.492188,458.5 C539.414062,458.421875 539.342448,458.33073 539.277344,458.226562 C539.212239,458.122395 539.153646,458.01823 539.101562,457.914062 C539.075521,457.809895 539.049479,457.699219 539.023438,457.582031 C538.997396,457.464843 538.984375,457.354167 538.984375,457.25 C538.984375,457.119791 538.997396,457.002605 539.023438,456.898438 C539.049479,456.79427 539.075521,456.690105 539.101562,456.585938 C539.153646,456.48177 539.212239,456.377605 539.277344,456.273438 C539.342448,456.16927 539.414062,456.078125 539.492188,456 L542.5,453.03125 C542.656251,452.874999 542.838541,452.71224 543.046875,452.542969 C543.255209,452.373697 543.476561,452.25 543.710938,452.171875 C543.945314,452.067708 544.186197,452.022135 544.433594,452.035156 C544.680991,452.048177 544.908853,452.158853 545.117188,452.367188 C545.221355,452.471355 545.332031,452.542969 545.449219,452.582031 C545.566407,452.621094 545.690104,452.640625 545.820312,452.640625 C545.950521,452.640625 546.074218,452.621094 546.191406,452.582031 C546.308594,452.542969 546.41927,452.471355 546.523438,452.367188 C546.601563,452.26302 546.666666,452.152344 546.71875,452.035156 C546.770834,451.917968 546.796875,451.794271 546.796875,451.664062 C546.796875,451.533854 546.770834,451.410157 546.71875,451.292969 C546.666666,451.175781 546.601563,451.065105 546.523438,450.960938 C546.158852,450.596352 545.755211,450.342449 545.3125,450.199219 C544.869789,450.055989 544.414065,450.010416 543.945312,450.0625 C543.47656,450.114584 543.001304,450.277342 542.519531,450.550781 C542.037758,450.82422 541.562502,451.182289 541.09375,451.625 L538.125,454.59375 C537.942707,454.776043 537.779949,454.964843 537.636719,455.160156 C537.493489,455.35547 537.382813,455.570311 537.304688,455.804688 C537.20052,456.039064 537.122396,456.273436 537.070312,456.507812 C537.018229,456.742189 536.992188,456.989582 536.992188,457.25 C536.992188,457.510418 537.018229,457.757811 537.070312,457.992188 C537.122396,458.226564 537.20052,458.460936 537.304688,458.695312 C537.382813,458.903647 537.493489,459.111978 537.636719,459.320312 C537.779949,459.528647 537.942707,459.723957 538.125,459.90625 C538.307293,460.088543 538.502603,460.251301 538.710938,460.394531 C538.919272,460.537761 539.140624,460.648437 539.375,460.726562 C539.583334,460.83073 539.811197,460.902344 540.058594,460.941406 C540.305991,460.980469 540.546874,461 540.78125,461 C541.015626,461 541.256509,460.980469 541.503906,460.941406 C541.751303,460.902344 541.979166,460.83073 542.1875,460.726562 C542.421876,460.648437 542.643228,460.537761 542.851562,460.394531 C543.059897,460.251301 543.255207,460.088543 543.4375,459.90625 L544.257812,459.085938 C544.36198,459.007812 544.433594,458.903646 544.472656,458.773438 C544.511719,458.643229 544.53125,458.513021 544.53125,458.382812 C544.53125,458.278645 544.511719,458.161459 544.472656,458.03125 C544.433594,457.901041 544.36198,457.783855 544.257812,457.679688 C544.153645,457.601562 544.042969,457.536459 543.925781,457.484375 C543.808593,457.432291 543.684896,457.40625 543.554688,457.40625 C543.424479,457.40625 543.300782,457.432291 543.183594,457.484375 C543.066406,457.536459 542.95573,457.601562 542.851562,457.679688 L542.851562,457.679688 Z M551.875,446.195312 C551.510415,445.830727 551.100263,445.544272 550.644531,445.335938 C550.1888,445.127603 549.739586,445.010417 549.296875,444.984375 C548.828123,444.984375 548.378908,445.06901 547.949219,445.238281 C547.519529,445.407553 547.122398,445.661457 546.757812,446 L545.742188,447.015625 C545.63802,447.119792 545.566406,447.230468 545.527344,447.347656 C545.488281,447.464844 545.46875,447.588541 545.46875,447.71875 C545.442708,447.848959 545.455729,447.972656 545.507812,448.089844 C545.559896,448.207032 545.63802,448.317708 545.742188,448.421875 C545.846355,448.526042 545.957031,448.597656 546.074219,448.636719 C546.191407,448.675781 546.315104,448.695312 546.445312,448.695312 C546.575521,448.695312 546.699218,448.675781 546.816406,448.636719 C546.933594,448.597656 547.04427,448.526042 547.148438,448.421875 L548.164062,447.40625 C548.346355,447.223957 548.541666,447.106771 548.75,447.054688 C548.958334,447.002604 549.166666,446.989583 549.375,447.015625 C549.583334,447.041667 549.785155,447.10677 549.980469,447.210938 C550.175782,447.315105 550.351562,447.445312 550.507812,447.601562 C550.585938,447.70573 550.657552,447.803385 550.722656,447.894531 C550.787761,447.985678 550.846354,448.083333 550.898438,448.1875 C550.924479,448.291667 550.950521,448.402343 550.976562,448.519531 C551.002604,448.636719 551.015625,448.747395 551.015625,448.851562 C551.015625,448.981771 551.002604,449.105468 550.976562,449.222656 C550.950521,449.339844 550.924479,449.45052 550.898438,449.554688 C550.846354,449.658855 550.787761,449.75651 550.722656,449.847656 C550.657552,449.938803 550.585938,450.023437 550.507812,450.101562 L547.304688,453.265625 C546.575517,453.994795 546.028648,454.294271 545.664062,454.164062 C545.299477,454.033854 545.039063,453.890626 544.882812,453.734375 C544.778645,453.65625 544.667969,453.591146 544.550781,453.539062 C544.433593,453.486979 544.309896,453.460938 544.179688,453.460938 C544.049479,453.460938 543.925782,453.486979 543.808594,453.539062 C543.691406,453.591146 543.58073,453.66927 543.476562,453.773438 C543.398437,453.851563 543.333334,453.955729 543.28125,454.085938 C543.229166,454.216146 543.203125,454.333333 543.203125,454.4375 C543.203125,454.567709 543.229166,454.697916 543.28125,454.828125 C543.333334,454.958334 543.398437,455.0625 543.476562,455.140625 C543.658855,455.322918 543.834635,455.472656 544.003906,455.589844 C544.173178,455.707032 544.361978,455.804687 544.570312,455.882812 C544.752605,455.98698 544.941405,456.058594 545.136719,456.097656 C545.332032,456.136719 545.520832,456.15625 545.703125,456.15625 C545.963543,456.15625 546.217447,456.123698 546.464844,456.058594 C546.712241,455.993489 546.966145,455.895834 547.226562,455.765625 C547.460939,455.661458 547.708332,455.51823 547.96875,455.335938 C548.229168,455.153645 548.476561,454.932293 548.710938,454.671875 L551.875,451.507812 C552.057293,451.351562 552.220051,451.169272 552.363281,450.960938 C552.506511,450.752603 552.617187,450.531251 552.695312,450.296875 C552.79948,450.088541 552.877604,449.860678 552.929688,449.613281 C552.981771,449.365884 553.007812,449.11198 553.007812,448.851562 C553.007812,448.617186 552.981771,448.376303 552.929688,448.128906 C552.877604,447.881509 552.79948,447.653647 552.695312,447.445312 C552.617187,447.210936 552.506511,446.989584 552.363281,446.78125 C552.220051,446.572916 552.057293,446.377605 551.875,446.195312 L551.875,446.195312 Z" id="link" sketch:type="MSShapeGroup"></path>
        </g>
    </g>
</svg>