<?xml version="1.0" encoding="UTF-8" standalone="no"?>
<svg width="14px" height="12px" viewBox="0 0 14 12" version="1.1" xmlns="http://www.w3.org/2000/svg" xmlns:xlink="http://www.w3.org/1999/xlink" xmlns:sketch="http://www.bohemiancoding.com/sketch/ns">
    <!-- Generator: Sketch 3.3 (11970) - http://www.bohemiancoding.com/sketch -->
    <title>list</title>
    <desc>Created with Sketch.</desc>
    <defs></defs>
    <g id="cheatsheet" stroke="none" stroke-width="1" fill="none" fill-rule="evenodd" sketch:type="MSPage">
        <g id="ligatures" sketch:type="MSArtboardGroup" transform="translate(-538.000000, -549.000000)" fill="#4A4A4A">
            <path d="M551.484375,552.015625 L542.5,552.015625 C542.369791,552.015625 542.252605,551.963542 542.148438,551.859375 C542.04427,551.755208 541.992188,551.638021 541.992188,551.507812 L541.992188,549.515625 C541.992188,549.359374 542.04427,549.235678 542.148438,549.144531 C542.252605,549.053385 542.369791,549.007812 542.5,549.007812 L551.484375,549.007812 C551.640626,549.007812 551.764322,549.053385 551.855469,549.144531 C551.946615,549.235678 551.992188,549.359374 551.992188,549.515625 L551.992188,551.507812 C551.992188,551.638021 551.946615,551.755208 551.855469,551.859375 C551.764322,551.963542 551.640626,552.015625 551.484375,552.015625 L551.484375,552.015625 Z M551.484375,556.507812 L542.460938,556.507812 C542.330729,556.507812 542.213542,556.45573 542.109375,556.351562 C542.005208,556.247395 541.953125,556.130209 541.953125,556 L541.953125,554.007812 C541.953125,553.877604 542.005208,553.760417 542.109375,553.65625 C542.213542,553.552083 542.330729,553.5 542.460938,553.5 L551.484375,553.5 C551.614584,553.5 551.72526,553.552083 551.816406,553.65625 C551.907553,553.760417 551.953125,553.877604 551.953125,554.007812 L551.953125,556 C551.953125,556.130209 551.907553,556.247395 551.816406,556.351562 C551.72526,556.45573 551.614584,556.507812 551.484375,556.507812 L551.484375,556.507812 Z M551.484375,561 L542.460938,561 C542.330729,561 542.213542,560.947917 542.109375,560.84375 C542.005208,560.739583 541.953125,560.622396 541.953125,560.492188 L541.953125,558.5 C541.953125,558.369791 542.005208,558.252605 542.109375,558.148438 C542.213542,558.04427 542.330729,557.992188 542.460938,557.992188 L551.484375,557.992188 C551.614584,557.992188 551.72526,558.04427 551.816406,558.148438 C551.907553,558.252605 551.953125,558.369791 551.953125,558.5 L551.953125,560.492188 C551.953125,560.622396 551.907553,560.739583 551.816406,560.84375 C551.72526,560.947917 551.614584,561 551.484375,561 L551.484375,561 Z M541.015625,550.492188 C541.015625,550.700522 540.976563,550.895832 540.898438,551.078125 C540.820312,551.260418 540.703126,551.416666 540.546875,551.546875 C540.416666,551.703126 540.260418,551.820312 540.078125,551.898438 C539.895832,551.976563 539.700522,552.015625 539.492188,552.015625 C539.283853,552.015625 539.088543,551.976563 538.90625,551.898438 C538.723957,551.820312 538.567709,551.703126 538.4375,551.546875 C538.307291,551.416666 538.203125,551.260418 538.125,551.078125 C538.046875,550.895832 538.007812,550.700522 538.007812,550.492188 C538.007812,550.283853 538.046875,550.088543 538.125,549.90625 C538.203125,549.723957 538.307291,549.567709 538.4375,549.4375 C538.567709,549.307291 538.723957,549.203125 538.90625,549.125 C539.088543,549.046875 539.283853,549.007812 539.492188,549.007812 C539.700522,549.007812 539.895832,549.046875 540.078125,549.125 C540.260418,549.203125 540.416666,549.307291 540.546875,549.4375 C540.703126,549.567709 540.820312,549.723957 540.898438,549.90625 C540.976563,550.088543 541.015625,550.283853 541.015625,550.492188 L541.015625,550.492188 Z M541.015625,554.984375 C541.015625,555.192709 540.976563,555.38802 540.898438,555.570312 C540.820312,555.752605 540.703126,555.921874 540.546875,556.078125 C540.416666,556.208334 540.260418,556.3125 540.078125,556.390625 C539.895832,556.46875 539.700522,556.507812 539.492188,556.507812 C539.283853,556.507812 539.088543,556.46875 538.90625,556.390625 C538.723957,556.3125 538.567709,556.208334 538.4375,556.078125 C538.307291,555.921874 538.203125,555.752605 538.125,555.570312 C538.046875,555.38802 538.007812,555.192709 538.007812,554.984375 C538.007812,554.776041 538.046875,554.58073 538.125,554.398438 C538.203125,554.216145 538.307291,554.059896 538.4375,553.929688 C538.567709,553.799479 538.723957,553.695313 538.90625,553.617188 C539.088543,553.539062 539.283853,553.5 539.492188,553.5 C539.700522,553.5 539.895832,553.539062 540.078125,553.617188 C540.260418,553.695313 540.416666,553.799479 540.546875,553.929688 C540.703126,554.059896 540.820312,554.216145 540.898438,554.398438 C540.976563,554.58073 541.015625,554.776041 541.015625,554.984375 L541.015625,554.984375 Z M541.015625,559.515625 C541.015625,559.723959 540.976563,559.91927 540.898438,560.101562 C540.820312,560.283855 540.703126,560.440104 540.546875,560.570312 C540.416666,560.700521 540.260418,560.804687 540.078125,560.882812 C539.895832,560.960938 539.700522,561 539.492188,561 C539.283853,561 539.088543,560.960938 538.90625,560.882812 C538.723957,560.804687 538.567709,560.700521 538.4375,560.570312 C538.307291,560.440104 538.203125,560.283855 538.125,560.101562 C538.046875,559.91927 538.007812,559.723959 538.007812,559.515625 C538.007812,559.307291 538.046875,559.11198 538.125,558.929688 C538.203125,558.747395 538.307291,558.578126 538.4375,558.421875 C538.567709,558.291666 538.723957,558.1875 538.90625,558.109375 C539.088543,558.03125 539.283853,557.992188 539.492188,557.992188 C539.700522,557.992188 539.895832,558.03125 540.078125,558.109375 C540.260418,558.1875 540.416666,558.291666 540.546875,558.421875 C540.703126,558.578126 540.820312,558.747395 540.898438,558.929688 C540.976563,559.11198 541.015625,559.307291 541.015625,559.515625 L541.015625,559.515625 Z" id="list" sketch:type="MSShapeGroup"></path>
        </g>
    </g>
</svg>