<?xml version="1.0" encoding="UTF-8" standalone="no"?>
<svg width="14px" height="18px" viewBox="0 0 14 18" version="1.1" xmlns="http://www.w3.org/2000/svg" xmlns:xlink="http://www.w3.org/1999/xlink" xmlns:sketch="http://www.bohemiancoding.com/sketch/ns">
    <!-- Generator: Sketch 3.3 (11970) - http://www.bohemiancoding.com/sketch -->
    <title>lockopen</title>
    <desc>Created with Sketch.</desc>
    <defs></defs>
    <g id="cheatsheet" stroke="none" stroke-width="1" fill="none" fill-rule="evenodd" sketch:type="MSPage">
        <g id="ligatures" sketch:type="MSArtboardGroup" transform="translate(-538.000000, -643.000000)" fill="#4A4A4A">
            <path d="M550.78125,649.984375 L548.984375,649.984375 L548.984375,647.601562 C548.984375,646.872392 548.906251,646.221357 548.75,645.648438 C548.593749,645.075518 548.346356,644.593752 548.007812,644.203125 C547.669269,643.812498 547.252607,643.513022 546.757812,643.304688 C546.263018,643.096353 545.677087,642.992188 545,642.992188 C544.322913,642.992188 543.736982,643.096353 543.242188,643.304688 C542.747393,643.513022 542.330731,643.812498 541.992188,644.203125 C541.653644,644.593752 541.406251,645.075518 541.25,645.648438 C541.093749,646.221357 541.015625,646.872392 541.015625,647.601562 L541.015625,647.992188 L543.007812,647.992188 L543.007812,647.210938 C543.007812,646.846352 543.053385,646.527345 543.144531,646.253906 C543.235678,645.980467 543.372395,645.752605 543.554688,645.570312 C543.73698,645.38802 543.945311,645.244792 544.179688,645.140625 C544.414064,645.036458 544.687498,644.984375 545,644.984375 C545.312502,644.984375 545.585936,645.036458 545.820312,645.140625 C546.054689,645.244792 546.26302,645.38802 546.445312,645.570312 C546.627605,645.752605 546.764322,645.980467 546.855469,646.253906 C546.946615,646.527345 546.992188,646.846352 546.992188,647.210938 L546.992188,649.984375 L538.984375,649.984375 C538.854166,649.984375 538.730469,650.023437 538.613281,650.101562 C538.496093,650.179688 538.385417,650.270833 538.28125,650.375 C538.203125,650.505209 538.138021,650.641926 538.085938,650.785156 C538.033854,650.928386 538.007812,651.065104 538.007812,651.195312 L538.007812,659.007812 C538.007812,659.138021 538.033854,659.274739 538.085938,659.417969 C538.138021,659.561199 538.203125,659.684895 538.28125,659.789062 C538.359375,659.919271 538.457031,660.029947 538.574219,660.121094 C538.691407,660.21224 538.815104,660.270833 538.945312,660.296875 L540.15625,660.6875 C540.286459,660.739584 540.436197,660.785156 540.605469,660.824219 C540.77474,660.863281 540.95052,660.895833 541.132812,660.921875 C541.289063,660.947917 541.451822,660.967448 541.621094,660.980469 C541.790365,660.99349 541.953124,661 542.109375,661 L547.890625,661 C548.046876,661 548.209635,660.99349 548.378906,660.980469 C548.548178,660.967448 548.710937,660.947917 548.867188,660.921875 C549.04948,660.895833 549.22526,660.863281 549.394531,660.824219 C549.563803,660.785156 549.713541,660.739584 549.84375,660.6875 L551.054688,660.296875 C551.184896,660.270833 551.308593,660.21224 551.425781,660.121094 C551.542969,660.029947 551.640625,659.919271 551.71875,659.789062 C551.796875,659.684895 551.861979,659.561199 551.914062,659.417969 C551.966146,659.274739 551.992188,659.138021 551.992188,659.007812 L551.992188,651.195312 C551.992188,651.065104 551.959636,650.928386 551.894531,650.785156 C551.829427,650.641926 551.731771,650.505209 551.601562,650.375 C551.497395,650.270833 551.373699,650.179688 551.230469,650.101562 C551.087239,650.023437 550.937501,649.984375 550.78125,649.984375 L550.78125,649.984375 Z" id="lockopen" sketch:type="MSShapeGroup"></path>
        </g>
    </g>
</svg>