<?xml version="1.0" encoding="UTF-8" standalone="no"?>
<svg width="15px" height="17px" viewBox="0 0 15 17" version="1.1" xmlns="http://www.w3.org/2000/svg" xmlns:xlink="http://www.w3.org/1999/xlink" xmlns:sketch="http://www.bohemiancoding.com/sketch/ns">
    <!-- Generator: Sketch 3.3 (11970) - http://www.bohemiancoding.com/sketch -->
    <title>lock</title>
    <desc>Created with Sketch.</desc>
    <defs></defs>
    <g id="cheatsheet" stroke="none" stroke-width="1" fill="none" fill-rule="evenodd" sketch:type="MSPage">
        <g id="ligatures" sketch:type="MSArtboardGroup" transform="translate(-538.000000, -594.000000)" fill="#4A4A4A">
            <path d="M550.820312,599.984375 L549.023438,599.984375 L548.984375,598.617188 C549.010417,597.888017 548.938803,597.236982 548.769531,596.664062 C548.60026,596.091143 548.359377,595.609377 548.046875,595.21875 C547.68229,594.828123 547.259117,594.528647 546.777344,594.320312 C546.295571,594.111978 545.703129,594.007812 545,594.007812 C544.348955,594.007812 543.769534,594.111978 543.261719,594.320312 C542.753904,594.528647 542.343752,594.828123 542.03125,595.21875 C541.666665,595.609377 541.412761,596.091143 541.269531,596.664062 C541.126301,597.236982 541.041667,597.888017 541.015625,598.617188 L541.054688,599.984375 L538.984375,599.984375 C538.880208,599.984375 538.763021,600.023437 538.632812,600.101562 C538.502604,600.179688 538.398438,600.283854 538.320312,600.414062 C538.216145,600.51823 538.144531,600.641926 538.105469,600.785156 C538.066406,600.928386 538.033854,601.065104 538.007812,601.195312 L538.046875,609.007812 C538.020833,609.138021 538.040364,609.274739 538.105469,609.417969 C538.170573,609.561199 538.229166,609.684895 538.28125,609.789062 C538.385417,609.919271 538.489583,610.029947 538.59375,610.121094 C538.697917,610.21224 538.828124,610.270833 538.984375,610.296875 L540.15625,610.6875 C540.312501,610.739584 540.468749,610.785156 540.625,610.824219 C540.781251,610.863281 540.963541,610.895833 541.171875,610.921875 C541.302084,610.947917 541.458332,610.967448 541.640625,610.980469 C541.822918,610.99349 541.979166,611 542.109375,611 L547.929688,611 C548.059896,611 548.216145,610.99349 548.398438,610.980469 C548.58073,610.967448 548.736979,610.947917 548.867188,610.921875 C549.075522,610.895833 549.257812,610.863281 549.414062,610.824219 C549.570313,610.785156 549.726562,610.739584 549.882812,610.6875 L551.054688,610.296875 C551.210938,610.270833 551.341145,610.21224 551.445312,610.121094 C551.54948,610.029947 551.653645,609.919271 551.757812,609.789062 C551.809896,609.684895 551.868489,609.561199 551.933594,609.417969 C551.998698,609.274739 552.018229,609.138021 551.992188,609.007812 L552.03125,601.195312 C552.005208,601.065104 551.966146,600.928386 551.914062,600.785156 C551.861979,600.641926 551.757813,600.51823 551.601562,600.414062 C551.523437,600.283854 551.406251,600.179688 551.25,600.101562 C551.093749,600.023437 550.963542,599.984375 550.859375,599.984375 L550.820312,599.984375 Z M543.007812,598.1875 C543.033854,597.822915 543.085937,597.503908 543.164062,597.230469 C543.242188,596.95703 543.385416,596.729168 543.59375,596.546875 C543.750001,596.364582 543.951822,596.227865 544.199219,596.136719 C544.446616,596.045572 544.71354,596 545,596 C545.338543,596 545.618488,596.045572 545.839844,596.136719 C546.061199,596.227865 546.276041,596.364582 546.484375,596.546875 C546.640626,596.729168 546.770833,596.95703 546.875,597.230469 C546.979167,597.503908 547.018229,597.822915 546.992188,598.1875 L547.03125,599.984375 L543.007812,599.984375 L543.046875,598.1875 L543.007812,598.1875 Z" id="lock" sketch:type="MSShapeGroup"></path>
        </g>
    </g>
</svg>