<?xml version="1.0" encoding="UTF-8" standalone="no"?>
<svg width="16px" height="16px" viewBox="0 0 16 16" version="1.1" xmlns="http://www.w3.org/2000/svg" xmlns:xlink="http://www.w3.org/1999/xlink" xmlns:sketch="http://www.bohemiancoding.com/sketch/ns">
    <!-- Generator: Sketch 3.3 (11970) - http://www.bohemiancoding.com/sketch -->
    <title>loupe</title>
    <desc>Created with Sketch.</desc>
    <defs></defs>
    <g id="cheatsheet" stroke="none" stroke-width="1" fill="none" fill-rule="evenodd" sketch:type="MSPage">
        <g id="ligatures" sketch:type="MSArtboardGroup" transform="translate(-537.000000, -695.000000)" fill="#4A4A4A">
            <path d="M552.539062,708.460938 L548.75,704.671875 C548.906251,704.437499 549.036458,704.196616 549.140625,703.949219 C549.244792,703.701822 549.335937,703.447918 549.414062,703.1875 C549.492188,702.90104 549.550781,702.621095 549.589844,702.347656 C549.628906,702.074217 549.648438,701.781252 549.648438,701.46875 C549.648438,700.609371 549.479168,699.795577 549.140625,699.027344 C548.802082,698.259111 548.346357,697.588545 547.773438,697.015625 C547.174476,696.416664 546.490889,695.947918 545.722656,695.609375 C544.954423,695.270832 544.140629,695.101562 543.28125,695.101562 C542.421871,695.101562 541.621097,695.264321 540.878906,695.589844 C540.136715,695.915366 539.47917,696.35156 538.90625,696.898438 C538.359372,697.471357 537.923179,698.135413 537.597656,698.890625 C537.272134,699.645837 537.109375,700.4401 537.109375,701.273438 C537.109375,702.132817 537.278644,702.946611 537.617188,703.714844 C537.955731,704.483077 538.424476,705.166664 539.023438,705.765625 C539.596357,706.338545 540.266923,706.800779 541.035156,707.152344 C541.803389,707.503908 542.617183,707.679688 543.476562,707.679688 C543.763022,707.679688 544.042967,707.660156 544.316406,707.621094 C544.589845,707.582031 544.85677,707.523438 545.117188,707.445312 C545.377605,707.367187 545.631509,707.276042 545.878906,707.171875 C546.126303,707.067708 546.367186,706.950521 546.601562,706.820312 L550.390625,710.609375 C550.494792,710.713542 550.605468,710.785156 550.722656,710.824219 C550.839844,710.863281 550.95052,710.882812 551.054688,710.882812 C551.184896,710.882812 551.308593,710.863281 551.425781,710.824219 C551.542969,710.785156 551.640625,710.713542 551.71875,710.609375 L552.695312,709.671875 C552.773438,709.59375 552.832031,709.502605 552.871094,709.398438 C552.910156,709.29427 552.916667,709.190105 552.890625,709.085938 C552.864583,708.98177 552.825521,708.877605 552.773438,708.773438 C552.721354,708.66927 552.64323,708.565105 552.539062,708.460938 L552.539062,708.460938 Z M539.023438,701.273438 C539.023438,700.700518 539.134113,700.153648 539.355469,699.632812 C539.576824,699.111977 539.882811,698.656252 540.273438,698.265625 C540.638023,697.874998 541.080727,697.569012 541.601562,697.347656 C542.122398,697.126301 542.682289,697.015625 543.28125,697.015625 C543.880211,697.015625 544.446612,697.132811 544.980469,697.367188 C545.514326,697.601564 545.989581,697.927081 546.40625,698.34375 C546.822919,698.760419 547.154947,699.235674 547.402344,699.769531 C547.649741,700.303388 547.773438,700.869789 547.773438,701.46875 C547.773438,702.067711 547.656251,702.627602 547.421875,703.148438 C547.187499,703.669273 546.888023,704.124998 546.523438,704.515625 C546.132811,704.906252 545.677086,705.212238 545.15625,705.433594 C544.635414,705.654949 544.075524,705.765625 543.476562,705.765625 C542.877601,705.765625 542.311201,705.641928 541.777344,705.394531 C541.243487,705.147134 540.768231,704.815106 540.351562,704.398438 C539.934894,704.007811 539.609376,703.539065 539.375,702.992188 C539.140624,702.44531 539.023438,701.872399 539.023438,701.273438 L539.023438,701.273438 Z" id="loupe" sketch:type="MSShapeGroup"></path>
        </g>
    </g>
</svg>