<?xml version="1.0" encoding="UTF-8" standalone="no"?>
<svg width="20px" height="16px" viewBox="0 0 20 16" version="1.1" xmlns="http://www.w3.org/2000/svg" xmlns:xlink="http://www.w3.org/1999/xlink" xmlns:sketch="http://www.bohemiancoding.com/sketch/ns">
    <!-- Generator: Sketch 3.3 (11970) - http://www.bohemiancoding.com/sketch -->
    <title>map</title>
    <desc>Created with Sketch.</desc>
    <defs></defs>
    <g id="cheatsheet" stroke="none" stroke-width="1" fill="none" fill-rule="evenodd" sketch:type="MSPage">
        <g id="ligatures" sketch:type="MSArtboardGroup" transform="translate(-535.000000, -795.000000)" fill="#4A4A4A">
            <path d="M554.6875,798.03125 L550,795.101562 C549.895833,795.023437 549.785157,794.984375 549.667969,794.984375 C549.550781,794.984375 549.440105,795.023437 549.335938,795.101562 L545,797.796875 L540.664062,795.101562 C540.559895,795.023437 540.449219,794.984375 540.332031,794.984375 C540.214843,794.984375 540.104167,795.023437 540,795.101562 L535.3125,798.03125 C535.208333,798.083334 535.130209,798.161458 535.078125,798.265625 C535.026041,798.369792 535,798.486979 535,798.617188 L535,810.296875 C535,810.427084 535.032552,810.54427 535.097656,810.648438 C535.162761,810.752605 535.234375,810.84375 535.3125,810.921875 C535.416667,810.973959 535.527343,811 535.644531,811 C535.761719,811 535.872395,810.960938 535.976562,810.882812 L540.3125,808.1875 L544.648438,810.882812 C544.752605,810.960938 544.869791,811 545,811 C545.130209,811 545.247395,810.960938 545.351562,810.882812 L549.6875,808.1875 L554.023438,810.882812 C554.075521,810.934896 554.127604,810.967448 554.179688,810.980469 C554.231771,810.99349 554.283854,811 554.335938,811 C554.388021,811 554.446614,810.99349 554.511719,810.980469 C554.576823,810.967448 554.622396,810.947917 554.648438,810.921875 C554.752605,810.84375 554.830729,810.752605 554.882812,810.648438 C554.934896,810.54427 554.973958,810.427084 555,810.296875 L554.960938,798.617188 C554.986979,798.486979 554.967448,798.369792 554.902344,798.265625 C554.837239,798.161458 554.765625,798.083334 554.6875,798.03125 L554.6875,798.03125 Z M539.648438,807.015625 L536.289062,809.125 L536.25,799.007812 L539.6875,796.898438 L539.648438,807.015625 Z M544.335938,809.125 L540.9375,807.015625 L540.976562,796.898438 L544.296875,799.007812 L544.335938,809.125 Z M548.984375,807.015625 L545.664062,809.125 L545.625,799.007812 L549.023438,796.898438 L548.984375,807.015625 Z M553.671875,809.125 L550.273438,807.015625 L550.3125,796.898438 L553.632812,799.007812 L553.671875,809.125 Z" id="map" sketch:type="MSShapeGroup"></path>
        </g>
    </g>
</svg>