<?xml version="1.0" encoding="UTF-8" standalone="no"?>
<svg width="14px" height="12px" viewBox="0 0 14 12" version="1.1" xmlns="http://www.w3.org/2000/svg" xmlns:xlink="http://www.w3.org/1999/xlink" xmlns:sketch="http://www.bohemiancoding.com/sketch/ns">
    <!-- Generator: Sketch 3.3 (11970) - http://www.bohemiancoding.com/sketch -->
    <title>matrix</title>
    <desc>Created with Sketch.</desc>
    <defs></defs>
    <g id="cheatsheet" stroke="none" stroke-width="1" fill="none" fill-rule="evenodd" sketch:type="MSPage">
        <g id="ligatures" sketch:type="MSArtboardGroup" transform="translate(-538.000000, -849.000000)" fill="#4A4A4A">
            <path d="M543.515625,854.007812 L539.53125,854.007812 C539.374999,854.007812 539.251303,853.95573 539.160156,853.851562 C539.06901,853.747395 539.010417,853.630209 538.984375,853.5 L539.023438,849.515625 C538.997396,849.359374 539.042968,849.235678 539.160156,849.144531 C539.277344,849.053385 539.38802,849.007812 539.492188,849.007812 L543.554688,849.007812 C543.658855,849.007812 543.76302,849.053385 543.867188,849.144531 C543.971355,849.235678 544.010417,849.359374 543.984375,849.515625 L544.023438,853.5 C543.997396,853.630209 543.945313,853.747395 543.867188,853.851562 C543.789062,853.95573 543.671876,854.007812 543.515625,854.007812 L543.515625,854.007812 Z M550.546875,854.007812 L546.484375,854.007812 C546.380208,854.007812 546.276042,853.95573 546.171875,853.851562 C546.067708,853.747395 546.028646,853.630209 546.054688,853.5 L546.015625,849.515625 C546.041667,849.359374 546.09375,849.235678 546.171875,849.144531 C546.25,849.053385 546.367187,849.007812 546.523438,849.007812 L550.507812,849.007812 C550.664063,849.007812 550.78776,849.053385 550.878906,849.144531 C550.970053,849.235678 551.028646,849.359374 551.054688,849.515625 L551.015625,853.5 C551.041667,853.630209 550.996094,853.747395 550.878906,853.851562 C550.761718,853.95573 550.651042,854.007812 550.546875,854.007812 L550.546875,854.007812 Z M550.507812,861 L546.523438,861 C546.367187,861 546.25,860.947917 546.171875,860.84375 C546.09375,860.739583 546.041667,860.622396 546.015625,860.492188 L546.054688,856.507812 C546.028646,856.377604 546.067708,856.260417 546.171875,856.15625 C546.276042,856.052083 546.380208,856 546.484375,856 L550.546875,856 C550.651042,856 550.761718,856.052083 550.878906,856.15625 C550.996094,856.260417 551.041667,856.377604 551.015625,856.507812 L551.054688,860.492188 C551.028646,860.622396 550.970053,860.739583 550.878906,860.84375 C550.78776,860.947917 550.664063,861 550.507812,861 L550.507812,861 Z M543.554688,861 L539.492188,861 C539.38802,861 539.277344,860.947917 539.160156,860.84375 C539.042968,860.739583 538.997396,860.622396 539.023438,860.492188 L538.984375,856.507812 C539.010417,856.377604 539.06901,856.260417 539.160156,856.15625 C539.251303,856.052083 539.374999,856 539.53125,856 L543.515625,856 C543.671876,856 543.789062,856.052083 543.867188,856.15625 C543.945313,856.260417 543.997396,856.377604 544.023438,856.507812 L543.984375,860.492188 C544.010417,860.622396 543.971355,860.739583 543.867188,860.84375 C543.76302,860.947917 543.658855,861 543.554688,861 L543.554688,861 Z" id="matrix" sketch:type="MSShapeGroup"></path>
        </g>
    </g>
</svg>