<?xml version="1.0" encoding="UTF-8" standalone="no"?>
<svg width="18px" height="18px" viewBox="0 0 18 18" version="1.1" xmlns="http://www.w3.org/2000/svg" xmlns:xlink="http://www.w3.org/1999/xlink" xmlns:sketch="http://www.bohemiancoding.com/sketch/ns">
    <!-- Generator: Sketch 3.3 (11970) - http://www.bohemiancoding.com/sketch -->
    <title>minuscircle</title>
    <desc>Created with Sketch.</desc>
    <defs></defs>
    <g id="cheatsheet" stroke="none" stroke-width="1" fill="none" fill-rule="evenodd" sketch:type="MSPage">
        <g id="ligatures" sketch:type="MSArtboardGroup" transform="translate(-536.000000, -893.000000)" fill="#4A4A4A">
            <path d="M545,892.992188 C543.749994,892.992188 542.57813,893.22656 541.484375,893.695312 C540.39062,894.164065 539.440108,894.8151 538.632812,895.648438 C537.825517,896.455733 537.187502,897.406245 536.71875,898.5 C536.249998,899.593755 536.015625,900.765619 536.015625,902.015625 C536.015625,903.239589 536.249998,904.398432 536.71875,905.492188 C537.187502,906.585943 537.825517,907.549475 538.632812,908.382812 C539.440108,909.190108 540.39062,909.828123 541.484375,910.296875 C542.57813,910.765627 543.749994,911 545,911 C546.250006,911 547.42187,910.765627 548.515625,910.296875 C549.60938,909.828123 550.559892,909.190108 551.367188,908.382812 C552.174483,907.549475 552.812498,906.585943 553.28125,905.492188 C553.750002,904.398432 553.984375,903.239589 553.984375,902.015625 C553.984375,900.765619 553.750002,899.593755 553.28125,898.5 C552.812498,897.406245 552.174483,896.455733 551.367188,895.648438 C550.559892,894.8151 549.60938,894.164065 548.515625,893.695312 C547.42187,893.22656 546.250006,892.992188 545,892.992188 L545,892.992188 Z M551.015625,902.992188 L538.984375,902.992188 L538.984375,901 L551.015625,901 L551.015625,902.992188 Z" id="minuscircle" sketch:type="MSShapeGroup"></path>
        </g>
    </g>
</svg>