<?xml version="1.0" encoding="UTF-8" standalone="no"?>
<svg width="14px" height="21px" viewBox="0 0 14 21" version="1.1" xmlns="http://www.w3.org/2000/svg" xmlns:xlink="http://www.w3.org/1999/xlink" xmlns:sketch="http://www.bohemiancoding.com/sketch/ns">
    <!-- Generator: Sketch 3.3 (11970) - http://www.bohemiancoding.com/sketch -->
    <title>mobilephone</title>
    <desc>Created with Sketch.</desc>
    <defs></defs>
    <g id="cheatsheet" stroke="none" stroke-width="1" fill="none" fill-rule="evenodd" sketch:type="MSPage">
        <g id="ligatures" sketch:type="MSArtboardGroup" transform="translate(-538.000000, -942.000000)" fill="#4A4A4A">
            <path d="M550.039062,942.992188 L540,942.992188 C539.869791,942.992188 539.739584,943.018229 539.609375,943.070312 C539.479166,943.122396 539.375,943.20052 539.296875,943.304688 C539.192708,943.382813 539.114584,943.480468 539.0625,943.597656 C539.010416,943.714844 538.984375,943.851562 538.984375,944.007812 L538.984375,961 C538.984375,961.130209 539.010416,961.260416 539.0625,961.390625 C539.114584,961.520834 539.192708,961.625 539.296875,961.703125 C539.375,961.807292 539.479166,961.885416 539.609375,961.9375 C539.739584,961.989584 539.869791,962.015625 540,962.015625 L550.039062,962.015625 C550.169271,962.015625 550.292968,961.989584 550.410156,961.9375 C550.527344,961.885416 550.63802,961.807292 550.742188,961.703125 C550.820313,961.625 550.885416,961.520834 550.9375,961.390625 C550.989584,961.260416 551.015625,961.130209 551.015625,961 L551.015625,944.007812 C551.015625,943.851562 550.989584,943.714844 550.9375,943.597656 C550.885416,943.480468 550.820313,943.382813 550.742188,943.304688 C550.63802,943.20052 550.527344,943.122396 550.410156,943.070312 C550.292968,943.018229 550.169271,942.992188 550.039062,942.992188 L550.039062,942.992188 Z M545,960.492188 C544.869791,960.492188 544.739584,960.466146 544.609375,960.414062 C544.479166,960.361979 544.375,960.296875 544.296875,960.21875 C544.192708,960.114583 544.114584,960.003907 544.0625,959.886719 C544.010416,959.769531 543.984375,959.645834 543.984375,959.515625 C543.984375,959.359374 544.010416,959.222657 544.0625,959.105469 C544.114584,958.988281 544.192708,958.877605 544.296875,958.773438 C544.375,958.695312 544.479166,958.630209 544.609375,958.578125 C544.739584,958.526041 544.869791,958.5 545,958.5 C545.130209,958.5 545.260416,958.526041 545.390625,958.578125 C545.520834,958.630209 545.625,958.695312 545.703125,958.773438 C545.807292,958.877605 545.885416,958.988281 545.9375,959.105469 C545.989584,959.222657 546.015625,959.359374 546.015625,959.515625 C546.015625,959.645834 545.989584,959.769531 545.9375,959.886719 C545.885416,960.003907 545.807292,960.114583 545.703125,960.21875 C545.625,960.296875 545.520834,960.361979 545.390625,960.414062 C545.260416,960.466146 545.130209,960.492188 545,960.492188 L545,960.492188 Z M549.023438,957.015625 L541.015625,957.015625 L541.015625,944.984375 L549.023438,944.984375 L549.023438,957.015625 Z" id="mobilephone" sketch:type="MSShapeGroup"></path>
        </g>
    </g>
</svg>