<?xml version="1.0" encoding="UTF-8" standalone="no"?>
<svg width="51px" height="40px" viewBox="0 0 51 40" version="1.1" xmlns="http://www.w3.org/2000/svg" xmlns:xlink="http://www.w3.org/1999/xlink" xmlns:sketch="http://www.bohemiancoding.com/sketch/ns">
    <!-- Generator: Sketch 3.3 (11970) - http://www.bohemiancoding.com/sketch -->
    <title>Shape 5</title>
    <desc>Created with Sketch.</desc>
    <defs></defs>
    <g id="Aktuelles" stroke="none" stroke-width="1" fill="none" fill-rule="evenodd" sketch:type="MSPage">
        <g id="Aktuelles-News" sketch:type="MSArtboardGroup" transform="translate(-209.000000, -583.000000)" fill="#4A4A4A">
            <path d="M260,583 L260,617.006663 C260,620.172223 257.27405,623 254.41448,623 L216.24608,623 C211.52501,623 209,620.507941 209,614.44746 L209,589.600212 L216.0482,589.600212 L216.0482,583 L260,583 L260,583 Z M216.0482,593.235777 L212.58938,593.235777 L212.58938,614.447977 C212.58938,617.545877 213.3197,619.027167 214.25045,619.027167 C215.38214,619.027167 216.04769,617.545877 216.04769,614.447977 L216.04769,593.235777 L216.0482,593.235777 Z M256.41011,586.636598 L219.63809,586.636598 L219.63809,614.447977 C219.63809,616.603285 219.23927,618.151202 218.64002,619.363402 L254.41448,619.363402 C255.61043,619.363402 256.41011,617.949771 256.41011,617.007179 L256.41011,586.636598 L256.41011,586.636598 Z M233.8013,599.431062 L225.35672,599.431062 L225.35672,598.218862 L233.8013,598.218862 L233.8013,599.431062 L233.8013,599.431062 Z M233.8013,603.403894 L225.35672,603.403894 L225.35672,602.191695 L233.8013,602.191695 L233.8013,603.403894 L233.8013,603.403894 Z M233.8013,607.24244 L225.35672,607.24244 L225.35672,606.03024 L233.8013,606.03024 L233.8013,607.24244 L233.8013,607.24244 Z M233.8013,610.946698 L225.35672,610.946698 L225.35672,609.734499 L233.8013,609.734499 L233.8013,610.946698 L233.8013,610.946698 Z M233.8013,614.784211 L225.35672,614.784211 L225.35672,613.573044 L233.8013,613.573044 L233.8013,614.784211 L233.8013,614.784211 Z M226.61948,591.956951 L248.76266,591.956951 L248.76266,594.31369 L226.61948,594.31369 L226.61948,591.956951 L226.61948,591.956951 Z M237.1265,598.218862 L251.28767,598.218862 L251.28767,611.889291 L237.1265,611.889291 L237.1265,598.218862 L237.1265,598.218862 Z" id="Shape-5" sketch:type="MSShapeGroup"></path>
        </g>
    </g>
</svg>
