<?xml version="1.0" encoding="UTF-8" standalone="no"?>
<svg width="18px" height="20px" viewBox="0 0 18 20" version="1.1" xmlns="http://www.w3.org/2000/svg" xmlns:xlink="http://www.w3.org/1999/xlink" xmlns:sketch="http://www.bohemiancoding.com/sketch/ns">
    <!-- Generator: Sketch 3.3 (11970) - http://www.bohemiancoding.com/sketch -->
    <title>paperclip</title>
    <desc>Created with Sketch.</desc>
    <defs></defs>
    <g id="cheatsheet" stroke="none" stroke-width="1" fill="none" fill-rule="evenodd" sketch:type="MSPage">
        <g id="ligatures" sketch:type="MSArtboardGroup" transform="translate(-536.000000, -992.000000)" fill="#4A4A4A">
            <path d="M543.671875,1010.21875 C543.229164,1010.66146 542.734378,1010.98698 542.1875,1011.19531 C541.640622,1011.40365 541.067711,1011.50781 540.46875,1011.50781 C539.921872,1011.50781 539.361982,1011.40365 538.789062,1011.19531 C538.216143,1010.98698 537.721356,1010.66146 537.304688,1010.21875 C536.835935,1009.77604 536.503907,1009.27474 536.308594,1008.71484 C536.11328,1008.15495 536.002604,1007.58854 535.976562,1007.01562 C536.002604,1006.44271 536.11328,1005.8763 536.308594,1005.31641 C536.503907,1004.75651 536.835935,1004.26823 537.304688,1003.85156 C537.278646,1003.85156 539.02342,1002.10028 542.539062,998.597656 C546.054705,995.095035 547.786459,993.356771 547.734375,993.382812 C548.072918,993.070311 548.437498,992.835938 548.828125,992.679688 C549.218752,992.523437 549.635414,992.445312 550.078125,992.445312 C550.468752,992.445312 550.865883,992.523437 551.269531,992.679688 C551.673179,992.835938 552.031248,993.070311 552.34375,993.382812 C552.682293,993.695314 552.923176,994.053383 553.066406,994.457031 C553.209636,994.860679 553.294271,995.270831 553.320312,995.6875 C553.294271,996.104169 553.209636,996.514321 553.066406,996.917969 C552.923176,997.321617 552.682293,997.679686 552.34375,997.992188 C552.421875,997.940104 550.696632,999.665347 547.167969,1003.16797 C543.639305,1006.67059 541.888021,1008.42188 541.914062,1008.42188 C541.705728,1008.63021 541.484376,1008.77995 541.25,1008.87109 C541.015624,1008.96224 540.75521,1009.00781 540.46875,1009.00781 C540.234374,1009.00781 539.98698,1008.96224 539.726562,1008.87109 C539.466145,1008.77995 539.257813,1008.63021 539.101562,1008.42188 C538.867186,1008.23958 538.710938,1008.02474 538.632812,1007.77734 C538.554687,1007.52995 538.502604,1007.27604 538.476562,1007.01562 C538.502604,1006.75521 538.554687,1006.5013 538.632812,1006.25391 C538.710938,1006.00651 538.867186,1005.79167 539.101562,1005.60938 L546.679688,997.992188 L547.773438,999.046875 L540.117188,1006.66406 C540.039062,1006.76823 539.99349,1006.88542 539.980469,1007.01562 C539.967448,1007.14583 540.026041,1007.26302 540.15625,1007.36719 C540.234375,1007.47135 540.345051,1007.52344 540.488281,1007.52344 C540.631511,1007.52344 540.742187,1007.47135 540.820312,1007.36719 C540.846354,1007.36719 542.506494,1005.71356 545.800781,1002.40625 C549.095069,999.098942 550.924477,997.276043 551.289062,996.9375 C551.445313,996.755207 551.56901,996.559897 551.660156,996.351562 C551.751303,996.143228 551.783854,995.921876 551.757812,995.6875 C551.783854,995.479166 551.751303,995.264324 551.660156,995.042969 C551.56901,994.821613 551.445313,994.619793 551.289062,994.4375 C551.10677,994.281249 550.911459,994.157553 550.703125,994.066406 C550.494791,993.97526 550.260418,993.929688 550,993.929688 C549.817707,993.929688 549.609376,993.97526 549.375,994.066406 C549.140624,994.157553 548.958334,994.281249 548.828125,994.4375 C548.46354,994.776043 546.634131,996.605452 543.339844,999.925781 C540.045556,1003.24611 538.385417,1004.90625 538.359375,1004.90625 C538.072915,1005.19271 537.851563,1005.51823 537.695312,1005.88281 C537.539062,1006.2474 537.473958,1006.625 537.5,1007.01562 C537.473958,1007.40625 537.539062,1007.78385 537.695312,1008.14844 C537.851563,1008.51302 538.072915,1008.83854 538.359375,1009.125 C538.671877,1009.4375 539.003904,1009.66536 539.355469,1009.80859 C539.707033,1009.95182 540.091144,1010.02344 540.507812,1010.02344 C540.872398,1010.02344 541.243488,1009.95182 541.621094,1009.80859 C541.9987,1009.66536 542.317707,1009.4375 542.578125,1009.125 L552.734375,999.046875 L553.75,1000.10156 C553.776042,1000.10156 552.096371,1001.78774 548.710938,1005.16016 C545.325504,1008.53257 543.645833,1010.21875 543.671875,1010.21875 L543.671875,1010.21875 Z" id="paperclip" sketch:type="MSShapeGroup"></path>
        </g>
    </g>
</svg>