<?xml version="1.0" encoding="UTF-8" standalone="no"?>
<svg width="12px" height="14px" viewBox="0 0 12 14" version="1.1" xmlns="http://www.w3.org/2000/svg" xmlns:xlink="http://www.w3.org/1999/xlink" xmlns:sketch="http://www.bohemiancoding.com/sketch/ns">
    <!-- Generator: Sketch 3.3 (11970) - http://www.bohemiancoding.com/sketch -->
    <title>pause</title>
    <desc>Created with Sketch.</desc>
    <defs></defs>
    <g id="cheatsheet" stroke="none" stroke-width="1" fill="none" fill-rule="evenodd" sketch:type="MSPage">
        <g id="ligatures" sketch:type="MSArtboardGroup" transform="translate(-539.000000, -1045.000000)" fill="#4A4A4A">
            <path d="M548.515625,1044.98438 C548.255207,1044.98438 548.014324,1045.01042 547.792969,1045.0625 C547.571613,1045.11458 547.382813,1045.17969 547.226562,1045.25781 C547.070312,1045.36198 546.946615,1045.4987 546.855469,1045.66797 C546.764322,1045.83724 546.71875,1046.05208 546.71875,1046.3125 L546.71875,1057.71875 C546.71875,1057.95313 546.764322,1058.15495 546.855469,1058.32422 C546.946615,1058.49349 547.070312,1058.63021 547.226562,1058.73438 C547.382813,1058.83854 547.571613,1058.91016 547.792969,1058.94922 C548.014324,1058.98828 548.255207,1059.00781 548.515625,1059.00781 C548.750001,1059.00781 548.977863,1058.98828 549.199219,1058.94922 C549.420574,1058.91016 549.609374,1058.83854 549.765625,1058.73438 C549.921876,1058.63021 550.052083,1058.49349 550.15625,1058.32422 C550.260417,1058.15495 550.3125,1057.95313 550.3125,1057.71875 L550.3125,1046.3125 C550.3125,1046.05208 550.260417,1045.83724 550.15625,1045.66797 C550.052083,1045.4987 549.921876,1045.36198 549.765625,1045.25781 C549.609374,1045.17969 549.420574,1045.11458 549.199219,1045.0625 C548.977863,1045.01042 548.750001,1044.98438 548.515625,1044.98438 L548.515625,1044.98438 Z M541.484375,1044.98438 C541.249999,1044.98438 541.022137,1045.01042 540.800781,1045.0625 C540.579426,1045.11458 540.390626,1045.17969 540.234375,1045.25781 C540.078124,1045.36198 539.947917,1045.4987 539.84375,1045.66797 C539.739583,1045.83724 539.6875,1046.05208 539.6875,1046.3125 L539.6875,1057.71875 C539.6875,1057.95313 539.739583,1058.15495 539.84375,1058.32422 C539.947917,1058.49349 540.078124,1058.63021 540.234375,1058.73438 C540.390626,1058.83854 540.579426,1058.91016 540.800781,1058.94922 C541.022137,1058.98828 541.249999,1059.00781 541.484375,1059.00781 C541.744793,1059.00781 541.985676,1058.98828 542.207031,1058.94922 C542.428387,1058.91016 542.617187,1058.83854 542.773438,1058.73438 C542.929688,1058.63021 543.053385,1058.49349 543.144531,1058.32422 C543.235678,1058.15495 543.28125,1057.95313 543.28125,1057.71875 L543.28125,1046.3125 C543.28125,1046.05208 543.235678,1045.83724 543.144531,1045.66797 C543.053385,1045.4987 542.929688,1045.36198 542.773438,1045.25781 C542.617187,1045.17969 542.428387,1045.11458 542.207031,1045.0625 C541.985676,1045.01042 541.744793,1044.98438 541.484375,1044.98438 L541.484375,1044.98438 Z" id="pause" sketch:type="MSShapeGroup"></path>
        </g>
    </g>
</svg>