<?xml version="1.0" encoding="UTF-8" standalone="no"?>
<svg width="18px" height="18px" viewBox="0 0 18 18" version="1.1" xmlns="http://www.w3.org/2000/svg" xmlns:xlink="http://www.w3.org/1999/xlink" xmlns:sketch="http://www.bohemiancoding.com/sketch/ns">
    <!-- Generator: Sketch 3.3 (11970) - http://www.bohemiancoding.com/sketch -->
    <title>paypal</title>
    <desc>Created with Sketch.</desc>
    <defs></defs>
    <g id="cheatsheet" stroke="none" stroke-width="1" fill="none" fill-rule="evenodd" sketch:type="MSPage">
        <g id="ligatures" sketch:type="MSArtboardGroup" transform="translate(-536.000000, -1093.000000)" fill="#4A4A4A">
            <path d="M551.835938,1096.82031 C551.914063,1096.95052 551.979166,1097.08724 552.03125,1097.23047 C552.083334,1097.3737 552.122396,1097.52344 552.148438,1097.67969 C552.200521,1097.86198 552.233073,1098.03776 552.246094,1098.20703 C552.259115,1098.3763 552.265625,1098.55208 552.265625,1098.73438 C552.265625,1099.17709 552.220053,1099.59375 552.128906,1099.98438 C552.03776,1100.375 551.901043,1100.73958 551.71875,1101.07812 C551.536457,1101.44271 551.308595,1101.77474 551.035156,1102.07422 C550.761717,1102.3737 550.44271,1102.66667 550.078125,1102.95312 C549.71354,1103.21354 549.309898,1103.44141 548.867188,1103.63672 C548.424477,1103.83203 547.955732,1103.99479 547.460938,1104.125 C546.940102,1104.25521 546.386722,1104.35286 545.800781,1104.41797 C545.214841,1104.48307 544.596357,1104.51562 543.945312,1104.51562 L543.359375,1104.51562 C543.229166,1104.51562 543.11198,1104.54167 543.007812,1104.59375 C542.903645,1104.64583 542.79948,1104.69792 542.695312,1104.75 C542.591145,1104.82813 542.506511,1104.91927 542.441406,1105.02344 C542.376302,1105.1276 542.330729,1105.23177 542.304688,1105.33594 L541.5625,1108.46094 C541.5625,1108.59115 541.523438,1108.70182 541.445312,1108.79297 C541.367187,1108.88412 541.289063,1108.96875 541.210938,1109.04688 C541.10677,1109.125 541.002605,1109.18359 540.898438,1109.22266 C540.79427,1109.26172 540.677084,1109.28125 540.546875,1109.28125 L539.21875,1109.28125 L539.101562,1109.78906 C539.049479,1110.02344 539.088541,1110.21875 539.21875,1110.375 C539.348959,1110.53125 539.518228,1110.60938 539.726562,1110.60938 L541.875,1110.60938 C542.005209,1110.60938 542.122395,1110.58984 542.226562,1110.55078 C542.33073,1110.51172 542.434895,1110.45313 542.539062,1110.375 C542.64323,1110.29687 542.727864,1110.20573 542.792969,1110.10156 C542.858073,1109.9974 542.903646,1109.89323 542.929688,1109.78906 L543.671875,1106.66406 C543.697917,1106.5599 543.743489,1106.45573 543.808594,1106.35156 C543.873698,1106.2474 543.945312,1106.15625 544.023438,1106.07812 C544.127605,1106 544.23177,1105.94141 544.335938,1105.90234 C544.440105,1105.86328 544.557291,1105.84375 544.6875,1105.84375 L545.273438,1105.84375 C545.950524,1105.84375 546.575518,1105.8112 547.148438,1105.74609 C547.721357,1105.68099 548.268227,1105.58333 548.789062,1105.45312 C549.283857,1105.32292 549.752602,1105.16016 550.195312,1104.96484 C550.638023,1104.76953 551.041665,1104.52865 551.40625,1104.24219 C551.770835,1103.98177 552.089842,1103.70182 552.363281,1103.40234 C552.63672,1103.10286 552.864582,1102.77084 553.046875,1102.40625 C553.229168,1102.06771 553.365885,1101.70313 553.457031,1101.3125 C553.548178,1100.92187 553.59375,1100.50521 553.59375,1100.0625 C553.59375,1099.88021 553.58724,1099.69792 553.574219,1099.51562 C553.561198,1099.33333 553.541667,1099.16406 553.515625,1099.00781 C553.463541,1098.85156 553.411459,1098.70182 553.359375,1098.55859 C553.307291,1098.41536 553.255209,1098.27865 553.203125,1098.14844 C553.125,1098.01823 553.046875,1097.89453 552.96875,1097.77734 C552.890625,1097.66016 552.79948,1097.54948 552.695312,1097.44531 C552.591145,1097.34115 552.480469,1097.24349 552.363281,1097.15234 C552.246093,1097.0612 552.135417,1096.97656 552.03125,1096.89844 C551.979166,1096.89844 551.946615,1096.89193 551.933594,1096.87891 C551.920573,1096.86589 551.888021,1096.84635 551.835938,1096.82031 L551.835938,1096.82031 Z M540.234375,1107.17188 L540.976562,1104.00781 C541.002604,1103.90365 541.048177,1103.79948 541.113281,1103.69531 C541.178386,1103.59115 541.26302,1103.51302 541.367188,1103.46094 C541.445313,1103.38281 541.542968,1103.32422 541.660156,1103.28516 C541.777344,1103.24609 541.88802,1103.22656 541.992188,1103.22656 L542.617188,1103.22656 C543.268232,1103.22656 543.886716,1103.1875 544.472656,1103.10938 C545.058597,1103.03125 545.598956,1102.92708 546.09375,1102.79688 C546.614586,1102.66667 547.096352,1102.50391 547.539062,1102.30859 C547.981773,1102.11328 548.385415,1101.88542 548.75,1101.625 C549.114585,1101.36458 549.433592,1101.07813 549.707031,1100.76562 C549.98047,1100.45312 550.208332,1100.12761 550.390625,1099.78906 C550.572918,1099.42448 550.709635,1099.04688 550.800781,1098.65625 C550.891928,1098.26562 550.9375,1097.86198 550.9375,1097.44531 C550.9375,1097.23698 550.924479,1097.04818 550.898438,1096.87891 C550.872396,1096.70963 550.846354,1096.54688 550.820312,1096.39062 C550.794271,1096.23437 550.755209,1096.08464 550.703125,1095.94141 C550.651041,1095.79818 550.585938,1095.66146 550.507812,1095.53125 C550.455729,1095.40104 550.384115,1095.27734 550.292969,1095.16016 C550.201822,1095.04297 550.104167,1094.93229 550,1094.82812 C549.921875,1094.72396 549.824219,1094.6263 549.707031,1094.53516 C549.589843,1094.44401 549.466146,1094.35938 549.335938,1094.28125 C549.205729,1094.20312 549.069011,1094.125 548.925781,1094.04688 C548.782551,1093.96875 548.632813,1093.90365 548.476562,1093.85156 C548.320312,1093.79948 548.157553,1093.75391 547.988281,1093.71484 C547.81901,1093.67578 547.64323,1093.63021 547.460938,1093.57812 C547.278645,1093.55208 547.089845,1093.52604 546.894531,1093.5 C546.699218,1093.47396 546.497397,1093.46094 546.289062,1093.46094 C546.080728,1093.4349 545.865887,1093.41536 545.644531,1093.40234 C545.423176,1093.38932 545.195314,1093.38281 544.960938,1093.38281 L540.46875,1093.38281 C540.364583,1093.38281 540.253907,1093.40885 540.136719,1093.46094 C540.019531,1093.51302 539.921875,1093.5651 539.84375,1093.61719 C539.739583,1093.69531 539.654948,1093.78646 539.589844,1093.89062 C539.524739,1093.99479 539.479167,1094.09896 539.453125,1094.20312 L536.40625,1107.17188 C536.354166,1107.38021 536.393229,1107.5625 536.523438,1107.71875 C536.653646,1107.875 536.835936,1107.95312 537.070312,1107.95312 L539.21875,1107.95312 C539.322917,1107.95312 539.433593,1107.93359 539.550781,1107.89453 C539.667969,1107.85547 539.778645,1107.79688 539.882812,1107.71875 C539.960938,1107.64062 540.032552,1107.55599 540.097656,1107.46484 C540.162761,1107.3737 540.208333,1107.27604 540.234375,1107.17188 L540.234375,1107.17188 Z M541.992188,1099.63281 L542.65625,1096.89844 C542.682292,1096.79427 542.727864,1096.6901 542.792969,1096.58594 C542.858073,1096.48177 542.929687,1096.39063 543.007812,1096.3125 C543.11198,1096.23437 543.222656,1096.17578 543.339844,1096.13672 C543.457032,1096.09766 543.567708,1096.07812 543.671875,1096.07812 L544.375,1096.07812 C544.583334,1096.07812 544.778645,1096.09115 544.960938,1096.11719 C545.14323,1096.14323 545.312499,1096.16927 545.46875,1096.19531 C545.625001,1096.22135 545.761718,1096.26042 545.878906,1096.3125 C545.996094,1096.36458 546.10677,1096.42969 546.210938,1096.50781 C546.315105,1096.5599 546.40625,1096.63151 546.484375,1096.72266 C546.5625,1096.8138 546.640625,1096.91146 546.71875,1097.01562 C546.770834,1097.11979 546.809896,1097.23698 546.835938,1097.36719 C546.861979,1097.4974 546.875,1097.6276 546.875,1097.75781 C546.875,1097.96615 546.848959,1098.16797 546.796875,1098.36328 C546.744791,1098.55859 546.679688,1098.73437 546.601562,1098.89062 C546.523437,1099.07292 546.425782,1099.22917 546.308594,1099.35938 C546.191406,1099.48958 546.054688,1099.61979 545.898438,1099.75 C545.716145,1099.85417 545.533855,1099.95182 545.351562,1100.04297 C545.16927,1100.13412 544.960939,1100.20573 544.726562,1100.25781 C544.492186,1100.33594 544.251303,1100.38802 544.003906,1100.41406 C543.756509,1100.4401 543.476564,1100.45312 543.164062,1100.45312 L542.65625,1100.45312 C542.421874,1100.45312 542.239584,1100.375 542.109375,1100.21875 C541.979166,1100.0625 541.940104,1099.86719 541.992188,1099.63281 L541.992188,1099.63281 Z" id="paypal" sketch:type="MSShapeGroup"></path>
        </g>
    </g>
</svg>