<?xml version="1.0" encoding="UTF-8" standalone="no"?>
<svg width="17px" height="17px" viewBox="0 0 17 17" version="1.1" xmlns="http://www.w3.org/2000/svg" xmlns:xlink="http://www.w3.org/1999/xlink" xmlns:sketch="http://www.bohemiancoding.com/sketch/ns">
    <!-- Generator: Sketch 3.3 (11970) - http://www.bohemiancoding.com/sketch -->
    <title>pencil</title>
    <desc>Created with Sketch.</desc>
    <defs></defs>
    <g id="cheatsheet" stroke="none" stroke-width="1" fill="none" fill-rule="evenodd" sketch:type="MSPage">
        <g id="ligatures" sketch:type="MSArtboardGroup" transform="translate(-537.000000, -1144.000000)" fill="#4A4A4A">
            <path d="M553.007812,1149.00781 C553.033854,1148.98177 553.053385,1148.96224 553.066406,1148.94922 C553.079427,1148.9362 553.111979,1148.91667 553.164062,1148.89062 C553.26823,1148.76042 553.411457,1148.5586 553.59375,1148.28516 C553.776043,1148.01172 553.880208,1147.69271 553.90625,1147.32812 C554.010417,1146.96354 554.010417,1146.56641 553.90625,1146.13672 C553.802083,1145.70703 553.554689,1145.28386 553.164062,1144.86719 C552.773436,1144.5026 552.376304,1144.27474 551.972656,1144.18359 C551.569008,1144.09245 551.171877,1144.07292 550.78125,1144.125 C550.416665,1144.17708 550.078127,1144.28125 549.765625,1144.4375 C549.453123,1144.59375 549.244792,1144.73698 549.140625,1144.86719 C549.114583,1144.89323 549.095052,1144.91927 549.082031,1144.94531 C549.06901,1144.97135 549.036459,1144.98438 548.984375,1144.98438 L553.046875,1149.00781 L553.007812,1149.00781 Z M548.007812,1146 L538.046875,1156 L536.992188,1161 L542.03125,1159.98438 L551.992188,1149.98438 L548.046875,1146 L548.007812,1146 Z M541.289062,1157.48438 L540.546875,1156.70312 L547.226562,1149.98438 L548.046875,1150.80469 L541.289062,1157.48438 Z" id="pencil" sketch:type="MSShapeGroup"></path>
        </g>
    </g>
</svg>