<?xml version="1.0" encoding="UTF-8" standalone="no"?>
<svg width="20px" height="18px" viewBox="0 0 20 18" version="1.1" xmlns="http://www.w3.org/2000/svg" xmlns:xlink="http://www.w3.org/1999/xlink" xmlns:sketch="http://www.bohemiancoding.com/sketch/ns">
    <!-- Generator: Sketch 3.3 (11970) - http://www.bohemiancoding.com/sketch -->
    <title>personplus</title>
    <desc>Created with Sketch.</desc>
    <defs></defs>
    <g id="cheatsheet" stroke="none" stroke-width="1" fill="none" fill-rule="evenodd" sketch:type="MSPage">
        <g id="ligatures" sketch:type="MSArtboardGroup" transform="translate(-535.000000, -1243.000000)" fill="#4A4A4A">
            <path d="M547.382812,1256.42969 C546.757809,1256.19531 546.236981,1255.97396 545.820312,1255.76562 C545.403644,1255.55729 545.065105,1255.3099 544.804688,1255.02344 C544.54427,1254.8151 544.36198,1254.54818 544.257812,1254.22266 C544.153645,1253.89713 544.101562,1253.55209 544.101562,1253.1875 C544.101562,1252.90104 544.140625,1252.70573 544.21875,1252.60156 C544.296875,1252.4974 544.401041,1252.36719 544.53125,1252.21094 C544.635417,1252.10677 544.752604,1251.9375 544.882812,1251.70312 C545.013021,1251.46875 545.117187,1251.14323 545.195312,1250.72656 C545.221354,1250.51823 545.279947,1250.40104 545.371094,1250.375 C545.46224,1250.34896 545.559895,1250.28385 545.664062,1250.17969 C545.76823,1250.15365 545.865885,1250.05599 545.957031,1249.88672 C546.048178,1249.71745 546.106771,1249.4375 546.132812,1249.04688 C546.132812,1248.68229 546.067709,1248.44792 545.9375,1248.34375 C545.807291,1248.23958 545.742188,1248.17448 545.742188,1248.14844 C545.742188,1248.17448 545.78125,1247.98568 545.859375,1247.58203 C545.9375,1247.17838 545.989583,1246.79427 546.015625,1246.42969 C546.041667,1246.16927 546.009115,1245.85026 545.917969,1245.47266 C545.826822,1245.09505 545.638022,1244.71094 545.351562,1244.32031 C545.039061,1243.98177 544.615888,1243.66927 544.082031,1243.38281 C543.548174,1243.09635 542.851567,1242.96615 541.992188,1242.99219 C541.132808,1242.96615 540.436201,1243.09635 539.902344,1243.38281 C539.368487,1243.66927 538.958335,1243.98177 538.671875,1244.32031 C538.385415,1244.71094 538.196615,1245.09505 538.105469,1245.47266 C538.014322,1245.85026 537.96875,1246.16927 537.96875,1246.42969 C538.020834,1246.79427 538.079427,1247.17838 538.144531,1247.58203 C538.209636,1247.98568 538.242188,1248.17448 538.242188,1248.14844 C538.242188,1248.17448 538.183594,1248.23958 538.066406,1248.34375 C537.949218,1248.44792 537.890625,1248.68229 537.890625,1249.04688 C537.916667,1249.4375 537.97526,1249.71745 538.066406,1249.88672 C538.157553,1250.05599 538.255208,1250.15365 538.359375,1250.17969 C538.4375,1250.28385 538.522135,1250.34896 538.613281,1250.375 C538.704428,1250.40104 538.776041,1250.51823 538.828125,1250.72656 C538.90625,1251.14323 539.003906,1251.46875 539.121094,1251.70312 C539.238282,1251.9375 539.361979,1252.10677 539.492188,1252.21094 C539.596355,1252.36719 539.69401,1252.4974 539.785156,1252.60156 C539.876303,1252.70573 539.921875,1252.90104 539.921875,1253.1875 C539.921875,1253.55209 539.863282,1253.89713 539.746094,1254.22266 C539.628906,1254.54818 539.453126,1254.8151 539.21875,1255.02344 C538.958332,1255.3099 538.613283,1255.55729 538.183594,1255.76562 C537.753904,1255.97396 537.239586,1256.19531 536.640625,1256.42969 C536.484374,1256.48177 536.250002,1256.55338 535.9375,1256.64453 C535.624998,1256.73568 535.312502,1256.83333 535,1256.9375 L535,1261 L551.015625,1260.96094 C551.015625,1260.98698 551.015625,1260.72005 551.015625,1260.16016 L551.015625,1258.89062 C551.015625,1258.70833 550.944011,1258.53255 550.800781,1258.36328 C550.657551,1258.19401 550.429689,1257.97917 550.117188,1257.71875 C549.830728,1257.53646 549.459638,1257.32813 549.003906,1257.09375 C548.548175,1256.85937 548.007816,1256.63802 547.382812,1256.42969 L547.382812,1256.42969 Z M551.992188,1250.96094 L551.992188,1247.99219 L550,1247.95312 L550,1251 L546.992188,1250.96094 L546.992188,1252.99219 L550,1252.95312 L550,1256 L551.992188,1255.96094 L551.992188,1252.99219 L555,1252.95312 L555,1251 L551.992188,1250.96094 Z" id="personplus" sketch:type="MSShapeGroup"></path>
        </g>
    </g>
</svg>