<?xml version="1.0" encoding="UTF-8" standalone="no"?>
<svg width="19px" height="18px" viewBox="0 0 19 18" version="1.1" xmlns="http://www.w3.org/2000/svg" xmlns:xlink="http://www.w3.org/1999/xlink" xmlns:sketch="http://www.bohemiancoding.com/sketch/ns">
    <!-- Generator: Sketch 3.3 (11970) - http://www.bohemiancoding.com/sketch -->
    <title>person</title>
    <desc>Created with Sketch.</desc>
    <defs></defs>
    <g id="cheatsheet" stroke="none" stroke-width="1" fill="none" fill-rule="evenodd" sketch:type="MSPage">
        <g id="ligatures" sketch:type="MSArtboardGroup" transform="translate(-535.000000, -1193.000000)" fill="#4A4A4A">
            <path d="M549.804688,1206.42969 C549.179684,1206.19531 548.665367,1205.97396 548.261719,1205.76562 C547.858071,1205.55729 547.513022,1205.3099 547.226562,1205.02344 C546.992186,1204.8151 546.816407,1204.54818 546.699219,1204.22266 C546.582031,1203.89713 546.536458,1203.55209 546.5625,1203.1875 C546.536458,1202.90104 546.56901,1202.70573 546.660156,1202.60156 C546.751303,1202.4974 546.848958,1202.36719 546.953125,1202.21094 C547.083334,1202.10677 547.207031,1201.9375 547.324219,1201.70312 C547.441407,1201.46875 547.552083,1201.14323 547.65625,1200.72656 C547.65625,1200.51823 547.708333,1200.40104 547.8125,1200.375 C547.916667,1200.34896 548.007812,1200.28385 548.085938,1200.17969 C548.216146,1200.15365 548.313802,1200.05599 548.378906,1199.88672 C548.444011,1199.71745 548.515625,1199.4375 548.59375,1199.04688 C548.567708,1198.68229 548.496094,1198.44792 548.378906,1198.34375 C548.261718,1198.23958 548.190104,1198.17448 548.164062,1198.14844 C548.190104,1198.17448 548.235677,1197.98568 548.300781,1197.58203 C548.365886,1197.17838 548.424479,1196.79427 548.476562,1196.42969 C548.476562,1196.16927 548.4375,1195.85026 548.359375,1195.47266 C548.28125,1195.09505 548.085939,1194.71094 547.773438,1194.32031 C547.51302,1193.98177 547.109378,1193.66927 546.5625,1193.38281 C546.015622,1193.09635 545.325525,1192.96615 544.492188,1192.99219 C543.606766,1192.96615 542.910159,1193.09635 542.402344,1193.38281 C541.894529,1193.66927 541.484377,1193.98177 541.171875,1194.32031 C540.911457,1194.71094 540.729167,1195.09505 540.625,1195.47266 C540.520833,1195.85026 540.481771,1196.16927 540.507812,1196.42969 C540.533854,1196.79427 540.585937,1197.17838 540.664062,1197.58203 C540.742188,1197.98568 540.768229,1198.17448 540.742188,1198.14844 C540.768229,1198.17448 540.716146,1198.23958 540.585938,1198.34375 C540.455729,1198.44792 540.403646,1198.68229 540.429688,1199.04688 C540.429688,1199.4375 540.48177,1199.71745 540.585938,1199.88672 C540.690105,1200.05599 540.78125,1200.15365 540.859375,1200.17969 C540.963542,1200.28385 541.054687,1200.34896 541.132812,1200.375 C541.210938,1200.40104 541.289062,1200.51823 541.367188,1200.72656 C541.419271,1201.14323 541.510416,1201.46875 541.640625,1201.70312 C541.770834,1201.9375 541.88802,1202.10677 541.992188,1202.21094 C542.122396,1202.36719 542.220052,1202.4974 542.285156,1202.60156 C542.350261,1202.70573 542.395833,1202.90104 542.421875,1203.1875 C542.395833,1203.55209 542.33724,1203.89713 542.246094,1204.22266 C542.154947,1204.54818 541.966147,1204.8151 541.679688,1205.02344 C541.471353,1205.3099 541.152346,1205.55729 540.722656,1205.76562 C540.292967,1205.97396 539.778649,1206.19531 539.179688,1206.42969 C538.528643,1206.63802 537.962242,1206.85937 537.480469,1207.09375 C536.998696,1207.32813 536.562502,1207.53646 536.171875,1207.71875 C535.833332,1207.95313 535.566407,1208.16146 535.371094,1208.34375 C535.17578,1208.52604 535.091146,1208.70833 535.117188,1208.89062 C535.091146,1209.17708 535.084635,1209.60026 535.097656,1210.16016 C535.110677,1210.72005 535.104167,1210.98698 535.078125,1210.96094 L553.90625,1211 C553.880208,1210.97396 553.873698,1210.69401 553.886719,1210.16016 C553.89974,1209.6263 553.893229,1209.19011 553.867188,1208.85156 C553.893229,1208.72135 553.802084,1208.55208 553.59375,1208.34375 C553.385416,1208.13542 553.111981,1207.94011 552.773438,1207.75781 C552.408852,1207.52344 551.979169,1207.30208 551.484375,1207.09375 C550.989581,1206.88542 550.41667,1206.65104 549.765625,1206.39062 L549.804688,1206.42969 Z" id="person" sketch:type="MSShapeGroup"></path>
        </g>
    </g>
</svg>