<?xml version="1.0" encoding="UTF-8" standalone="no"?>
<svg width="16px" height="16px" viewBox="0 0 16 16" version="1.1" xmlns="http://www.w3.org/2000/svg" xmlns:xlink="http://www.w3.org/1999/xlink" xmlns:sketch="http://www.bohemiancoding.com/sketch/ns">
    <!-- Generator: Sketch 3.3 (11970) - http://www.bohemiancoding.com/sketch -->
    <title>phone</title>
    <desc>Created with Sketch.</desc>
    <defs></defs>
    <g id="cheatsheet" stroke="none" stroke-width="1" fill="none" fill-rule="evenodd" sketch:type="MSPage">
        <g id="ligatures" sketch:type="MSArtboardGroup" transform="translate(-986.000000, -95.000000)" fill="#4A4A4A">
            <path d="M995.210938,104.242188 C994.820311,104.632814 994.423179,105.010415 994.019531,105.375 C993.615883,105.739585 993.218752,106.039061 992.828125,106.273438 C992.46354,106.533855 992.125002,106.696614 991.8125,106.761719 C991.499998,106.826823 991.252605,106.76823 991.070312,106.585938 C990.809895,106.32552 990.569012,106.091147 990.347656,105.882812 C990.126301,105.674478 989.872397,105.53125 989.585938,105.453125 C989.299478,105.401041 988.960939,105.446614 988.570312,105.589844 C988.179686,105.733074 987.69792,106.03906 987.125,106.507812 C986.55208,106.950523 986.207032,107.367186 986.089844,107.757812 C985.972656,108.148439 985.979166,108.513019 986.109375,108.851562 C986.265626,109.190106 986.486978,109.496092 986.773438,109.769531 C987.059897,110.04297 987.333332,110.309895 987.59375,110.570312 C987.88021,110.856772 988.348955,111 989,111 C989.651045,111 990.419266,110.830731 991.304688,110.492188 C992.190109,110.153644 993.153641,109.645837 994.195312,108.96875 C995.236984,108.291663 996.291661,107.419276 997.359375,106.351562 C998.427089,105.283849 999.299476,104.229172 999.976562,103.1875 C1000.65365,102.145828 1001.16146,101.182296 1001.5,100.296875 C1001.83854,99.4114539 1002.00781,98.6432324 1002.00781,97.9921875 C1002.00781,97.3411426 1001.86458,96.8723973 1001.57812,96.5859375 C1001.31771,96.3515613 1001.04427,96.0846369 1000.75781,95.7851562 C1000.47135,95.4856756 1000.17188,95.270834 999.859375,95.140625 C999.520832,94.9843742 999.156252,94.9648432 998.765625,95.0820312 C998.374998,95.1992193 997.958336,95.544268 997.515625,96.1171875 C997.046873,96.690107 996.740886,97.171873 996.597656,97.5625 C996.454426,97.953127 996.408854,98.2916652 996.460938,98.578125 C996.539063,98.8645848 996.682291,99.1249988 996.890625,99.359375 C997.098959,99.5937512 997.333332,99.8411445 997.59375,100.101562 C997.776043,100.283855 997.828125,100.524738 997.75,100.824219 C997.671875,101.123699 997.515626,101.455727 997.28125,101.820312 C997.046874,102.210939 996.747398,102.608071 996.382812,103.011719 C996.018227,103.415367 995.627606,103.825519 995.210938,104.242188 L995.210938,104.242188 Z" id="phone" sketch:type="MSShapeGroup"></path>
        </g>
    </g>
</svg>