<?xml version="1.0" encoding="UTF-8" standalone="no"?>
<svg width="18px" height="12px" viewBox="0 0 18 12" version="1.1" xmlns="http://www.w3.org/2000/svg" xmlns:xlink="http://www.w3.org/1999/xlink" xmlns:sketch="http://www.bohemiancoding.com/sketch/ns">
    <!-- Generator: Sketch 3.3 (11970) - http://www.bohemiancoding.com/sketch -->
    <title>picture</title>
    <desc>Created with Sketch.</desc>
    <defs></defs>
    <g id="cheatsheet" stroke="none" stroke-width="1" fill="none" fill-rule="evenodd" sketch:type="MSPage">
        <g id="ligatures" sketch:type="MSArtboardGroup" transform="translate(-985.000000, -149.000000)" fill="#4A4A4A">
            <path d="M1001.22656,149.007812 L986.773438,149.007812 C986.565103,149.007812 986.382813,149.085937 986.226562,149.242188 C986.070312,149.398438 985.992188,149.580728 985.992188,149.789062 L985.992188,160.21875 C985.992188,160.427084 986.070312,160.609374 986.226562,160.765625 C986.382813,160.921876 986.565103,161 986.773438,161 L1001.22656,161 C1001.4349,161 1001.61719,160.921876 1001.77344,160.765625 C1001.92969,160.609374 1002.00781,160.427084 1002.00781,160.21875 L1002.00781,149.789062 C1002.00781,149.580728 1001.92969,149.398438 1001.77344,149.242188 C1001.61719,149.085937 1001.4349,149.007812 1001.22656,149.007812 L1001.22656,149.007812 Z M1000.01562,159.007812 L987.984375,159.007812 L987.984375,157.015625 L990.015625,152.992188 L992.984375,156.507812 L995.015625,153.5 L998.492188,152.015625 L1000.01562,155.726562 L1000.01562,159.007812 Z" id="picture" sketch:type="MSShapeGroup"></path>
        </g>
    </g>
</svg>