<?xml version="1.0" encoding="UTF-8" standalone="no"?>
<svg width="9px" height="16px" viewBox="0 0 9 16" version="1.1" xmlns="http://www.w3.org/2000/svg" xmlns:xlink="http://www.w3.org/1999/xlink" xmlns:sketch="http://www.bohemiancoding.com/sketch/ns">
    <!-- Generator: Sketch 3.3.1 (12005) - http://www.bohemiancoding.com/sketch -->
    <title>Type something</title>
    <desc>Created with Sketch.</desc>
    <defs></defs>
    <g id="Aktuelles" stroke="none" stroke-width="1" fill="none" fill-rule="evenodd" sketch:type="MSPage">
        <g id="Detail-Veranstaltung-Anstehend" sketch:type="MSArtboardGroup" transform="translate(-294.000000, -455.000000)" fill="#9B9B9B">
            <path d="M298.5,455.904 C297.867184,455.904 297.281253,456.027046 296.742188,456.273141 C296.203122,456.519236 295.722658,456.841498 295.300781,457.239937 C294.902342,457.638377 294.585939,458.112982 294.351562,458.663766 C294.117186,459.21455 294,459.794622 294,460.404 C294,462.560261 294.749993,464.751645 296.25,466.978219 C297.750007,469.204792 298.5,470.318062 298.5,470.318062 C298.5,470.318062 299.249992,469.204792 300.75,466.978219 C302.250008,464.751645 303,462.560261 303,460.404 C303,459.794622 302.882814,459.21455 302.648438,458.663766 C302.414061,458.112982 302.097658,457.638377 301.699219,457.239937 C301.277342,456.841498 300.796878,456.519236 300.257812,456.273141 C299.718747,456.027046 299.132816,455.904 298.5,455.904 L298.5,455.904 Z M298.572266,464.046578 C298.098833,464.046578 297.65077,463.953584 297.228063,463.767593 C296.805355,463.581601 296.424924,463.336435 296.086758,463.032085 C295.782409,462.693919 295.537242,462.313488 295.351251,461.890781 C295.16526,461.468074 295.072266,461.02001 295.072266,460.546578 C295.072266,460.073146 295.16526,459.616629 295.351251,459.177013 C295.537242,458.737397 295.782409,458.36542 296.086758,458.061071 C296.424924,457.756722 296.805355,457.511555 297.228063,457.325564 C297.65077,457.139572 298.098833,457.046578 298.572266,457.046578 C299.045698,457.046578 299.493761,457.139572 299.916469,457.325564 C300.339176,457.511555 300.719607,457.756722 301.057773,458.061071 C301.362122,458.36542 301.607289,458.737397 301.79328,459.177013 C301.979271,459.616629 302.072266,460.073146 302.072266,460.546578 C302.072266,461.02001 301.979271,461.468074 301.79328,461.890781 C301.607289,462.313488 301.362122,462.693919 301.057773,463.032085 C300.719607,463.336435 300.339176,463.581601 299.916469,463.767593 C299.493761,463.953584 299.045698,464.046578 298.572266,464.046578 L298.572266,464.046578 Z" id="Type-something" sketch:type="MSShapeGroup"></path>
        </g>
    </g>
</svg>