<?xml version="1.0" encoding="UTF-8" standalone="no"?>
<svg width="10px" height="16px" viewBox="0 0 10 16" version="1.1" xmlns="http://www.w3.org/2000/svg" xmlns:xlink="http://www.w3.org/1999/xlink" xmlns:sketch="http://www.bohemiancoding.com/sketch/ns">
    <!-- Generator: Sketch 3.3 (11970) - http://www.bohemiancoding.com/sketch -->
    <title>pin</title>
    <desc>Created with Sketch.</desc>
    <defs></defs>
    <g id="cheatsheet" stroke="none" stroke-width="1" fill="none" fill-rule="evenodd" sketch:type="MSPage">
        <g id="ligatures" sketch:type="MSArtboardGroup" transform="translate(-989.000000, -195.000000)" fill="#4A4A4A">
            <path d="M994,194.984375 C993.296871,194.984375 992.645836,195.121092 992.046875,195.394531 C991.447914,195.66797 990.914065,196.026039 990.445312,196.46875 C990.002602,196.911461 989.651043,197.438799 989.390625,198.050781 C989.130207,198.662763 989,199.307288 989,199.984375 C989,202.38022 989.833325,204.815092 991.5,207.289062 C993.166675,209.763033 994,211 994,211 C994,211 994.833325,209.763033 996.5,207.289062 C998.166675,204.815092 999,202.38022 999,199.984375 C999,199.307288 998.869793,198.662763 998.609375,198.050781 C998.348957,197.438799 997.997398,196.911461 997.554688,196.46875 C997.085935,196.026039 996.552086,195.66797 995.953125,195.394531 C995.354164,195.121092 994.703129,194.984375 994,194.984375 L994,194.984375 Z M994,202.757812 C993.635415,202.757812 993.290366,202.686199 992.964844,202.542969 C992.639321,202.399739 992.346355,202.210939 992.085938,201.976562 C991.851561,201.716145 991.662761,201.423179 991.519531,201.097656 C991.376301,200.772134 991.304688,200.427085 991.304688,200.0625 C991.304688,199.697915 991.376301,199.346356 991.519531,199.007812 C991.662761,198.669269 991.851561,198.382814 992.085938,198.148438 C992.346355,197.914061 992.639321,197.725261 992.964844,197.582031 C993.290366,197.438801 993.635415,197.367188 994,197.367188 C994.364585,197.367188 994.709634,197.438801 995.035156,197.582031 C995.360679,197.725261 995.653645,197.914061 995.914062,198.148438 C996.148439,198.382814 996.337239,198.669269 996.480469,199.007812 C996.623699,199.346356 996.695312,199.697915 996.695312,200.0625 C996.695312,200.427085 996.623699,200.772134 996.480469,201.097656 C996.337239,201.423179 996.148439,201.716145 995.914062,201.976562 C995.653645,202.210939 995.360679,202.399739 995.035156,202.542969 C994.709634,202.686199 994.364585,202.757812 994,202.757812 L994,202.757812 Z" id="pin" sketch:type="MSShapeGroup"></path>
        </g>
    </g>
</svg>