<?xml version="1.0" encoding="UTF-8" standalone="no"?>
<svg width="16px" height="21px" viewBox="0 0 16 21" version="1.1" xmlns="http://www.w3.org/2000/svg" xmlns:xlink="http://www.w3.org/1999/xlink" xmlns:sketch="http://www.bohemiancoding.com/sketch/ns">
    <!-- Generator: Sketch 3.3 (11970) - http://www.bohemiancoding.com/sketch -->
    <title>pinterest</title>
    <desc>Created with Sketch.</desc>
    <defs></defs>
    <g id="cheatsheet" stroke="none" stroke-width="1" fill="none" fill-rule="evenodd" sketch:type="MSPage">
        <g id="ligatures" sketch:type="MSArtboardGroup" transform="translate(-986.000000, -241.000000)" fill="#4A4A4A">
            <path d="M992.632812,255.21875 C992.502604,255.895837 992.352865,256.572913 992.183594,257.25 C992.014322,257.927087 991.825522,258.53906 991.617188,259.085938 C991.382811,259.710941 991.096356,260.25781 990.757812,260.726562 C990.419269,261.195315 990.015627,261.624998 989.546875,262.015625 C989.390624,260.947911 989.351562,259.958338 989.429688,259.046875 C989.507813,258.135412 989.651041,257.236984 989.859375,256.351562 C990.041668,255.518225 990.249999,254.6849 990.484375,253.851562 C990.718751,253.018225 990.914062,252.197921 991.070312,251.390625 C990.783853,250.895831 990.647135,250.32292 990.660156,249.671875 C990.673177,249.02083 990.796874,248.408857 991.03125,247.835938 C991.265626,247.315102 991.610675,246.904949 992.066406,246.605469 C992.522138,246.305988 993.049476,246.286457 993.648438,246.546875 C994.377608,246.807293 994.677084,247.341142 994.546875,248.148438 C994.416666,248.955733 994.208335,249.776038 993.921875,250.609375 C993.661457,251.520838 993.505209,252.334632 993.453125,253.050781 C993.401041,253.766931 993.843745,254.242186 994.78125,254.476562 C995.770838,254.632813 996.597653,254.365889 997.261719,253.675781 C997.925785,252.985674 998.40104,252.106776 998.6875,251.039062 C998.97396,250.023432 999.058594,248.955735 998.941406,247.835938 C998.824218,246.71614 998.466149,245.856774 997.867188,245.257812 C996.981766,244.34635 995.959641,243.864584 994.800781,243.8125 C993.641921,243.760416 992.567713,243.981768 991.578125,244.476562 C990.588537,245.049482 989.781253,245.830724 989.15625,246.820312 C988.531247,247.809901 988.322916,248.955723 988.53125,250.257812 C988.583334,250.544272 988.680989,250.804686 988.824219,251.039062 C988.967449,251.273439 989.104166,251.494791 989.234375,251.703125 C989.338542,251.963543 989.390625,252.223957 989.390625,252.484375 C989.390625,252.744793 989.273439,253.109373 989.039062,253.578125 C988.492185,253.421874 988.02995,253.213543 987.652344,252.953125 C987.274738,252.692707 986.981772,252.354169 986.773438,251.9375 C986.539061,251.546873 986.382813,251.091148 986.304688,250.570312 C986.226562,250.049477 986.200521,249.515628 986.226562,248.96875 C986.252604,247.979162 986.467446,247.087244 986.871094,246.292969 C987.274742,245.498694 987.789059,244.789066 988.414062,244.164062 C989.039066,243.591143 989.755204,243.115887 990.5625,242.738281 C991.369796,242.360675 992.177079,242.132813 992.984375,242.054688 C994.052089,241.924479 995.074214,241.95703 996.050781,242.152344 C997.027349,242.347657 997.919267,242.666664 998.726562,243.109375 C999.507816,243.604169 1000.16536,244.216142 1000.69922,244.945312 C1001.23308,245.674483 1001.5651,246.54687 1001.69531,247.5625 C1001.85156,248.656255 1001.8125,249.763015 1001.57812,250.882812 C1001.34375,252.00261 1000.95313,252.979163 1000.40625,253.8125 C999.859372,254.697921 999.149744,255.381508 998.277344,255.863281 C997.404944,256.345054 996.40886,256.559896 995.289062,256.507812 C995.002603,256.455729 994.742189,256.397136 994.507812,256.332031 C994.273436,256.266927 994.052084,256.156251 993.84375,256 C993.661457,255.921875 993.472657,255.804688 993.277344,255.648438 C993.08203,255.492187 992.867189,255.348959 992.632812,255.21875 L992.632812,255.21875 Z" id="pinterest" sketch:type="MSShapeGroup"></path>
        </g>
    </g>
</svg>