<?xml version="1.0" encoding="UTF-8" standalone="no"?>
<svg width="11px" height="12px" viewBox="0 0 11 12" version="1.1" xmlns="http://www.w3.org/2000/svg" xmlns:xlink="http://www.w3.org/1999/xlink" xmlns:sketch="http://www.bohemiancoding.com/sketch/ns">
    <!-- Generator: Sketch 3.3 (11970) - http://www.bohemiancoding.com/sketch -->
    <title>play</title>
    <desc>Created with Sketch.</desc>
    <defs></defs>
    <g id="cheatsheet" stroke="none" stroke-width="1" fill="none" fill-rule="evenodd" sketch:type="MSPage">
        <g id="ligatures" sketch:type="MSArtboardGroup" transform="translate(-990.000000, -296.000000)" fill="#4A4A4A">
            <path d="M1000.67969,301.46875 L992.125,296.15625 C991.968749,296.078125 991.825521,296.026042 991.695312,296 C991.565104,295.973958 991.447917,296 991.34375,296.078125 C991.239583,296.104167 991.154948,296.188801 991.089844,296.332031 C991.024739,296.475261 990.992188,296.63802 990.992188,296.820312 L990.992188,307.132812 C990.992188,307.315105 991.024739,307.477864 991.089844,307.621094 C991.154948,307.764324 991.239583,307.848958 991.34375,307.875 C991.447917,307.979167 991.565104,308.011719 991.695312,307.972656 C991.825521,307.933594 991.968749,307.888021 992.125,307.835938 L1000.67969,302.484375 C1000.67969,302.510417 1000.73177,302.464844 1000.83594,302.347656 C1000.9401,302.230468 1000.99219,302.119792 1000.99219,302.015625 C1000.99219,301.833332 1000.9401,301.696615 1000.83594,301.605469 C1000.73177,301.514322 1000.67969,301.455729 1000.67969,301.429688 L1000.67969,301.46875 Z" id="play" sketch:type="MSShapeGroup"></path>
        </g>
    </g>
</svg>