<?xml version="1.0" encoding="UTF-8" standalone="no"?>
<svg width="18px" height="18px" viewBox="0 0 18 18" version="1.1" xmlns="http://www.w3.org/2000/svg" xmlns:xlink="http://www.w3.org/1999/xlink" xmlns:sketch="http://www.bohemiancoding.com/sketch/ns">
    <!-- Generator: Sketch 3.3 (11970) - http://www.bohemiancoding.com/sketch -->
    <title>pluscircle</title>
    <desc>Created with Sketch.</desc>
    <defs></defs>
    <g id="cheatsheet" stroke="none" stroke-width="1" fill="none" fill-rule="evenodd" sketch:type="MSPage">
        <g id="ligatures" sketch:type="MSArtboardGroup" transform="translate(-985.000000, -343.000000)" fill="#4A4A4A">
            <path d="M994,342.992188 C992.749994,342.992188 991.57813,343.22656 990.484375,343.695312 C989.39062,344.164065 988.440108,344.8151 987.632812,345.648438 C986.825517,346.455733 986.187502,347.406245 985.71875,348.5 C985.249998,349.593755 985.015625,350.765619 985.015625,352.015625 C985.015625,353.239589 985.249998,354.398432 985.71875,355.492188 C986.187502,356.585943 986.825517,357.549475 987.632812,358.382812 C988.440108,359.190108 989.39062,359.828123 990.484375,360.296875 C991.57813,360.765627 992.749994,361 994,361 C995.250006,361 996.42187,360.765627 997.515625,360.296875 C998.60938,359.828123 999.559892,359.190108 1000.36719,358.382812 C1001.17448,357.549475 1001.8125,356.585943 1002.28125,355.492188 C1002.75,354.398432 1002.98438,353.239589 1002.98438,352.015625 C1002.98438,350.765619 1002.75,349.593755 1002.28125,348.5 C1001.8125,347.406245 1001.17448,346.455733 1000.36719,345.648438 C999.559892,344.8151 998.60938,344.164065 997.515625,343.695312 C996.42187,343.22656 995.250006,342.992188 994,342.992188 L994,342.992188 Z M1000.01562,352.992188 L995.015625,352.992188 L995.015625,357.992188 L992.984375,357.992188 L992.984375,352.992188 L987.984375,352.992188 L987.984375,351 L992.984375,351 L992.984375,346 L995.015625,346 L995.015625,351 L1000.01562,351 L1000.01562,352.992188 Z" id="pluscircle" sketch:type="MSShapeGroup"></path>
        </g>
    </g>
</svg>