<?xml version="1.0" encoding="UTF-8" standalone="no"?>
<svg width="18px" height="17px" viewBox="0 0 18 17" version="1.1" xmlns="http://www.w3.org/2000/svg" xmlns:xlink="http://www.w3.org/1999/xlink" xmlns:sketch="http://www.bohemiancoding.com/sketch/ns">
    <!-- Generator: Sketch 3.3 (11970) - http://www.bohemiancoding.com/sketch -->
    <title>popup</title>
    <desc>Created with Sketch.</desc>
    <defs></defs>
    <g id="cheatsheet" stroke="none" stroke-width="1" fill="none" fill-rule="evenodd" sketch:type="MSPage">
        <g id="ligatures" sketch:type="MSArtboardGroup" transform="translate(-985.000000, -394.000000)" fill="#4A4A4A">
            <path d="M1000.01562,394.984375 L992.007812,394.984375 C991.721353,394.984375 991.460939,395.036458 991.226562,395.140625 C990.992186,395.244792 990.770834,395.38802 990.5625,395.570312 C990.432291,395.752605 990.308594,395.967447 990.191406,396.214844 C990.074218,396.462241 990.028646,396.716145 990.054688,396.976562 L990.015625,404.984375 C990.041667,405.270835 990.10026,405.537759 990.191406,405.785156 C990.282553,406.032553 990.432291,406.247395 990.640625,406.429688 C990.796876,406.61198 990.998697,406.755208 991.246094,406.859375 C991.493491,406.963542 991.747395,407.015625 992.007812,407.015625 L1000.05469,407.015625 C1000.28906,407.015625 1000.53646,406.963542 1000.79688,406.859375 C1001.05729,406.755208 1001.26562,406.61198 1001.42188,406.429688 C1001.63021,406.247395 1001.77995,406.032553 1001.87109,405.785156 C1001.96224,405.537759 1002.02083,405.270835 1002.04688,404.984375 L1002.00781,397.015625 C1002.03385,396.729165 1001.98828,396.462241 1001.87109,396.214844 C1001.75391,395.967447 1001.61719,395.752605 1001.46094,395.570312 C1001.2526,395.38802 1001.03125,395.244792 1000.79688,395.140625 C1000.5625,395.036458 1000.30208,394.984375 1000.01562,394.984375 L1000.01562,394.984375 Z M1000.05469,404.984375 L992.007812,404.984375 L992.046875,397.015625 L1000.01562,397.015625 L1000.05469,404.984375 Z M987.984375,402.992188 L986.03125,402.992188 L985.992188,409.007812 C986.018229,409.26823 986.076822,409.522134 986.167969,409.769531 C986.259115,410.016928 986.408853,410.23177 986.617188,410.414062 C986.773438,410.596355 986.98177,410.739583 987.242188,410.84375 C987.502605,410.947917 987.749999,411 987.984375,411 L994.039062,411 L994,409.007812 L988.023438,409.007812 L987.984375,402.992188 Z" id="popup" sketch:type="MSShapeGroup"></path>
        </g>
    </g>
</svg>