<?xml version="1.0" encoding="UTF-8" standalone="no"?>
<svg width="41px" height="52px" viewBox="0 0 41 52" version="1.1" xmlns="http://www.w3.org/2000/svg" xmlns:xlink="http://www.w3.org/1999/xlink" xmlns:sketch="http://www.bohemiancoding.com/sketch/ns">
    <!-- Generator: Sketch 3.3 (11970) - http://www.bohemiancoding.com/sketch -->
    <title>Fill 2</title>
    <desc>Created with Sketch.</desc>
    <defs></defs>
    <g id="Startseite" stroke="none" stroke-width="1" fill="none" fill-rule="evenodd" sketch:type="MSPage">
        <g id="Startseite-Projekt-1" sketch:type="MSArtboardGroup" transform="translate(-697.000000, -1509.000000)" fill="#4A4A4A">
            <g id="Aktuell" sketch:type="MSLayerGroup" transform="translate(143.000000, 1386.000000)">
                <g id="Publication" transform="translate(554.000000, 113.000000)" sketch:type="MSShapeGroup">
                    <path d="M39.14,17.592 L6.906,17.592 C6.431,17.592 6.047,17.218 6.047,16.756 C6.047,16.293 6.431,15.919 6.906,15.919 L39.14,15.919 C39.614,15.919 39.998,16.293 39.998,16.756 C39.998,17.218 39.614,17.592 39.14,17.592 Z M39.142,19.838 L6.907,19.838 C5.148,19.838 3.718,18.455 3.718,16.756 C3.718,15.056 5.148,13.673 6.907,13.673 L39.142,13.673 C40.166,13.673 41,12.85 41,11.837 C41,10.824 40.166,10 39.142,10 L6.907,10 L6.732,10.007 C3.071,10.094 0.065,13.052 0.004,16.639 L0,16.69 L0,55.24 L0.007,55.43 C0.105,59.004 3.125,61.935 6.786,61.996 L6.831,62 L39.142,62 C40.166,62 41,61.176 41,60.163 L41,21.675 C41,20.662 40.166,19.838 39.142,19.838 Z M7.702,58.327 L6.907,58.327 C5.148,58.327 3.718,56.942 3.718,55.24 L3.718,22.75 C4.643,23.222 5.669,23.482 6.733,23.505 L6.907,23.511 L7.702,23.511 L7.702,58.327 L7.702,58.327 Z M11.418,23.511 L37.282,23.511 L37.282,58.327 L11.418,58.327 L11.418,23.511 Z" id="Fill-2"></path>
                </g>
            </g>
        </g>
    </g>
</svg>
