<?xml version="1.0" encoding="UTF-8" standalone="no"?>
<svg width="8px" height="12px" viewBox="0 0 8 12" version="1.1" xmlns="http://www.w3.org/2000/svg" xmlns:xlink="http://www.w3.org/1999/xlink" xmlns:sketch="http://www.bohemiancoding.com/sketch/ns">
    <!-- Generator: Sketch 3.3 (11970) - http://www.bohemiancoding.com/sketch -->
    <title>rightstroke</title>
    <desc>Created with Sketch.</desc>
    <defs></defs>
    <g id="cheatsheet" stroke="none" stroke-width="1" fill="none" fill-rule="evenodd" sketch:type="MSPage">
        <g id="ligatures" sketch:type="MSArtboardGroup" transform="translate(-990.000000, -449.000000)" fill="#4A4A4A">
            <path d="M997.867188,454.671875 C997.919271,454.723959 997.951823,454.776041 997.964844,454.828125 C997.977865,454.880209 997.984375,454.932291 997.984375,454.984375 C997.984375,455.0625 997.977865,455.127604 997.964844,455.179688 C997.951823,455.231771 997.919271,455.283854 997.867188,455.335938 L992.476562,460.84375 C992.424479,460.895834 992.372396,460.934896 992.320312,460.960938 C992.268229,460.986979 992.216146,461 992.164062,461 C992.111979,461 992.053386,460.986979 991.988281,460.960938 C991.923177,460.934896 991.877604,460.895834 991.851562,460.84375 L990.640625,459.59375 C990.588541,459.567708 990.549479,459.522136 990.523438,459.457031 C990.497396,459.391927 990.484375,459.333334 990.484375,459.28125 C990.484375,459.229166 990.497396,459.170573 990.523438,459.105469 C990.549479,459.040364 990.588541,458.981771 990.640625,458.929688 L994.46875,454.984375 L990.640625,451.039062 C990.588541,450.986979 990.549479,450.934896 990.523438,450.882812 C990.497396,450.830729 990.484375,450.765625 990.484375,450.6875 C990.484375,450.635416 990.497396,450.583334 990.523438,450.53125 C990.549479,450.479166 990.588541,450.427084 990.640625,450.375 L991.851562,449.125 C991.877604,449.098958 991.923177,449.072917 991.988281,449.046875 C992.053386,449.020833 992.111979,449.007812 992.164062,449.007812 C992.216146,449.007812 992.274739,449.020833 992.339844,449.046875 C992.404948,449.072917 992.450521,449.098958 992.476562,449.125 L997.867188,454.671875 Z" id="rightstroke" sketch:type="MSShapeGroup"></path>
        </g>
    </g>
</svg>