<?xml version="1.0" encoding="UTF-8" standalone="no"?>
<svg width="10px" height="19px" viewBox="0 0 10 19" version="1.1" xmlns="http://www.w3.org/2000/svg" xmlns:xlink="http://www.w3.org/1999/xlink" xmlns:sketch="http://www.bohemiancoding.com/sketch/ns">
    <!-- Generator: Sketch 3.3 (11970) - http://www.bohemiancoding.com/sketch -->
    <title>rightstrokethin</title>
    <desc>Created with Sketch.</desc>
    <defs></defs>
    <g id="cheatsheet" stroke="none" stroke-width="1" fill="none" fill-rule="evenodd" sketch:type="MSPage">
        <g id="ligatures" sketch:type="MSArtboardGroup" transform="translate(-989.000000, -493.000000)" fill="#4A4A4A">
            <path d="M989.585938,509.90625 C989.455729,510.036459 989.390625,510.199218 989.390625,510.394531 C989.390625,510.589845 989.455729,510.739583 989.585938,510.84375 C989.716146,511.026043 989.878905,511.110677 990.074219,511.097656 C990.269532,511.084635 990.432291,511.013021 990.5625,510.882812 L998.414062,502.953125 C998.544271,502.848958 998.609375,502.692709 998.609375,502.484375 C998.609375,502.276041 998.544271,502.119792 998.414062,502.015625 L990.5625,494.046875 C990.432291,493.942708 990.269532,493.884115 990.074219,493.871094 C989.878905,493.858073 989.716146,493.929687 989.585938,494.085938 C989.455729,494.216146 989.390625,494.378905 989.390625,494.574219 C989.390625,494.769532 989.455729,494.91927 989.585938,495.023438 L996.734375,502.484375 L989.585938,509.867188 L989.585938,509.90625 Z" id="rightstrokethin" sketch:type="MSShapeGroup"></path>
        </g>
    </g>
</svg>