<?xml version="1.0" encoding="UTF-8" standalone="no"?>
<svg width="20px" height="18px" viewBox="0 0 20 18" version="1.1" xmlns="http://www.w3.org/2000/svg" xmlns:xlink="http://www.w3.org/1999/xlink" xmlns:sketch="http://www.bohemiancoding.com/sketch/ns">
    <!-- Generator: Sketch 3.3 (11970) - http://www.bohemiancoding.com/sketch -->
    <title>screen</title>
    <desc>Created with Sketch.</desc>
    <defs></defs>
    <g id="cheatsheet" stroke="none" stroke-width="1" fill="none" fill-rule="evenodd" sketch:type="MSPage">
        <g id="ligatures" sketch:type="MSArtboardGroup" transform="translate(-984.000000, -543.000000)" fill="#4A4A4A">
            <path d="M1002.00781,543.1875 L985.992188,543.1875 C985.73177,543.1875 985.477866,543.239583 985.230469,543.34375 C984.983072,543.447917 984.76823,543.591145 984.585938,543.773438 C984.403645,543.95573 984.260417,544.170572 984.15625,544.417969 C984.052083,544.665366 984,544.93229 984,545.21875 L984,556.195312 C984,556.481772 984.052083,556.755207 984.15625,557.015625 C984.260417,557.276043 984.403645,557.510416 984.585938,557.71875 C984.76823,557.953126 984.976561,558.141926 985.210938,558.285156 C985.445314,558.428386 985.692707,558.526041 985.953125,558.578125 L990.328125,559.476562 C990.328125,559.476562 989.800787,559.697914 988.746094,560.140625 C987.691401,560.583336 987.776036,560.804688 989,560.804688 L999,560.804688 C1000.22396,560.804688 1000.3086,560.583336 999.253906,560.140625 C998.199213,559.697914 997.671875,559.476562 997.671875,559.476562 L1002.04688,558.578125 C1002.30729,558.526041 1002.55469,558.428386 1002.78906,558.285156 C1003.02344,558.141926 1003.23177,557.953126 1003.41406,557.71875 C1003.59636,557.510416 1003.73958,557.276043 1003.84375,557.015625 C1003.94792,556.755207 1004,556.481772 1004,556.195312 L1004,545.21875 C1004,544.93229 1003.94792,544.665366 1003.84375,544.417969 C1003.73958,544.170572 1003.59636,543.95573 1003.41406,543.773438 C1003.23177,543.591145 1003.01693,543.447917 1002.76953,543.34375 C1002.52213,543.239583 1002.26823,543.1875 1002.00781,543.1875 L1002.00781,543.1875 Z M1002.00781,556.117188 L985.992188,556.117188 L985.992188,544.984375 L1002.00781,544.984375 L1002.00781,556.117188 Z" id="screen" sketch:type="MSShapeGroup"></path>
        </g>
    </g>
</svg>