<?xml version="1.0" encoding="UTF-8" standalone="no"?>
<svg width="21px" height="10px" viewBox="0 0 21 10" version="1.1" xmlns="http://www.w3.org/2000/svg" xmlns:xlink="http://www.w3.org/1999/xlink" xmlns:sketch="http://www.bohemiancoding.com/sketch/ns">
    <!-- Generator: Sketch 3.3 (11970) - http://www.bohemiancoding.com/sketch -->
    <title>soundcloud</title>
    <desc>Created with Sketch.</desc>
    <defs></defs>
    <g id="cheatsheet" stroke="none" stroke-width="1" fill="none" fill-rule="evenodd" sketch:type="MSPage">
        <g id="ligatures" sketch:type="MSArtboardGroup" transform="translate(-983.000000, -647.000000)" fill="#4A4A4A">
            <path d="M984.664062,655.453125 L984.976562,654.046875 L984.664062,652.601562 C984.638021,652.575521 984.611979,652.55599 984.585938,652.542969 C984.559896,652.529948 984.507813,652.523438 984.429688,652.523438 C984.403646,652.523438 984.371094,652.529948 984.332031,652.542969 C984.292969,652.55599 984.273438,652.575521 984.273438,652.601562 L983.960938,654.046875 L984.273438,655.453125 C984.273438,655.479167 984.292969,655.498698 984.332031,655.511719 C984.371094,655.52474 984.403646,655.53125 984.429688,655.53125 C984.507813,655.53125 984.559896,655.52474 984.585938,655.511719 C984.611979,655.498698 984.638021,655.479167 984.664062,655.453125 L984.664062,655.453125 Z M986.695312,656.234375 L987.007812,654.085938 L986.695312,650.726562 C986.721354,650.674479 986.701823,650.635417 986.636719,650.609375 C986.571614,650.583333 986.526042,650.570312 986.5,650.570312 C986.395833,650.570312 986.330729,650.583333 986.304688,650.609375 C986.278646,650.635417 986.252604,650.674479 986.226562,650.726562 L985.992188,654.085938 L986.226562,656.234375 C986.252604,656.286459 986.278646,656.325521 986.304688,656.351562 C986.330729,656.377604 986.395833,656.390625 986.5,656.390625 C986.526042,656.390625 986.571614,656.377604 986.636719,656.351562 C986.701823,656.325521 986.721354,656.286459 986.695312,656.234375 L986.695312,656.234375 Z M988.765625,656.195312 L988.960938,654.085938 L988.765625,649.59375 C988.739583,649.541666 988.707031,649.502604 988.667969,649.476562 C988.628906,649.450521 988.557292,649.4375 988.453125,649.4375 C988.401041,649.4375 988.342448,649.450521 988.277344,649.476562 C988.212239,649.502604 988.192708,649.541666 988.21875,649.59375 L987.945312,654.085938 L988.21875,656.195312 C988.192708,656.247396 988.212239,656.292969 988.277344,656.332031 C988.342448,656.371094 988.401041,656.390625 988.453125,656.390625 C988.557292,656.390625 988.628906,656.371094 988.667969,656.332031 C988.707031,656.292969 988.739583,656.247396 988.765625,656.195312 L988.765625,656.195312 Z M990.757812,656.15625 L990.992188,654.085938 L990.757812,649.59375 C990.783854,649.515625 990.764323,649.457031 990.699219,649.417969 C990.634114,649.378906 990.5625,649.359375 990.484375,649.359375 C990.380208,649.359375 990.302084,649.378906 990.25,649.417969 C990.197916,649.457031 990.158854,649.515625 990.132812,649.59375 L990.015625,654.085938 L990.132812,656.15625 C990.158854,656.234375 990.197916,656.292969 990.25,656.332031 C990.302084,656.371094 990.380208,656.390625 990.484375,656.390625 C990.5625,656.390625 990.634114,656.371094 990.699219,656.332031 C990.764323,656.292969 990.783854,656.234375 990.757812,656.15625 L990.757812,656.15625 Z M992.867188,656.15625 L992.945312,654.085938 L992.867188,648.929688 C992.841146,648.851562 992.795573,648.786459 992.730469,648.734375 C992.665364,648.682291 992.567709,648.65625 992.4375,648.65625 C992.385416,648.65625 992.313803,648.682291 992.222656,648.734375 C992.13151,648.786459 992.098958,648.851562 992.125,648.929688 L991.96875,654.085938 C991.994792,654.085938 992.020833,654.430986 992.046875,655.121094 C992.072917,655.811201 992.098958,656.15625 992.125,656.15625 C992.098958,656.208334 992.13151,656.260416 992.222656,656.3125 C992.313803,656.364584 992.385416,656.390625 992.4375,656.390625 C992.567709,656.390625 992.665364,656.364584 992.730469,656.3125 C992.795573,656.260416 992.841146,656.208334 992.867188,656.15625 L992.867188,656.15625 Z M994.234375,656.390625 L997.808594,656.390625 L1001.42188,656.390625 C1001.76042,656.390625 1002.09245,656.325521 1002.41797,656.195312 C1002.74349,656.065104 1003.01042,655.895834 1003.21875,655.6875 C1003.47917,655.453124 1003.66797,655.186199 1003.78516,654.886719 C1003.90234,654.587238 1003.97396,654.25521 1004,653.890625 C1003.97396,653.552082 1003.90234,653.233074 1003.78516,652.933594 C1003.66797,652.634113 1003.47917,652.367189 1003.21875,652.132812 C1003.01042,651.924478 1002.74349,651.755209 1002.41797,651.625 C1002.09245,651.494791 1001.76042,651.429688 1001.42188,651.429688 C1001.21354,651.429688 1001.03125,651.442708 1000.875,651.46875 C1000.71875,651.494792 1000.5625,651.546875 1000.40625,651.625 C1000.38021,651.05208 1000.23047,650.524742 999.957031,650.042969 C999.683592,649.561196 999.351564,649.138023 998.960938,648.773438 C998.544269,648.408852 998.075523,648.122397 997.554688,647.914062 C997.033852,647.705728 996.473961,647.601562 995.875,647.601562 C995.744791,647.601562 995.601563,647.608073 995.445312,647.621094 C995.289062,647.634115 995.158855,647.653646 995.054688,647.679688 C994.872395,647.705729 994.722657,647.738281 994.605469,647.777344 C994.488281,647.816406 994.351563,647.861979 994.195312,647.914062 C994.143229,647.940104 994.091146,647.972656 994.039062,648.011719 C993.986979,648.050781 993.973958,648.109375 994,648.1875 L993.960938,656.117188 C993.986979,656.195313 994.019531,656.260416 994.058594,656.3125 C994.097656,656.364584 994.16927,656.390625 994.273438,656.390625 L994.234375,656.390625 Z" id="soundcloud" sketch:type="MSShapeGroup"></path>
        </g>
    </g>
</svg>