<?xml version="1.0" encoding="UTF-8" standalone="no"?>
<svg width="18px" height="14px" viewBox="0 0 18 14" version="1.1" xmlns="http://www.w3.org/2000/svg" xmlns:xlink="http://www.w3.org/1999/xlink" xmlns:sketch="http://www.bohemiancoding.com/sketch/ns">
    <!-- Generator: Sketch 3.3 (11970) - http://www.bohemiancoding.com/sketch -->
    <title>speechbubble</title>
    <desc>Created with Sketch.</desc>
    <defs></defs>
    <g id="cheatsheet" stroke="none" stroke-width="1" fill="none" fill-rule="evenodd" sketch:type="MSPage">
        <g id="ligatures" sketch:type="MSArtboardGroup" transform="translate(-985.000000, -697.000000)" fill="#4A4A4A">
            <path d="M1000.01562,697.015625 L988.023438,697.015625 C987.736978,697.015625 987.476564,697.067708 987.242188,697.171875 C987.007811,697.276042 986.786459,697.41927 986.578125,697.601562 C986.421874,697.783855 986.285157,697.992186 986.167969,698.226562 C986.050781,698.460939 986.005208,698.721353 986.03125,699.007812 L985.992188,706 C986.018229,706.28646 986.076822,706.546874 986.167969,706.78125 C986.259115,707.015626 986.408853,707.223957 986.617188,707.40625 C986.773438,707.588543 986.98177,707.73177 987.242188,707.835938 C987.502605,707.940105 987.749999,707.992188 987.984375,707.992188 L992.046875,707.992188 L995.992188,711 L996.03125,707.992188 L1000.01562,707.992188 C1000.30208,707.992188 1000.5625,707.940105 1000.79688,707.835938 C1001.03125,707.73177 1001.2526,707.588543 1001.46094,707.40625 C1001.61719,707.223957 1001.75391,707.015626 1001.87109,706.78125 C1001.98828,706.546874 1002.03385,706.28646 1002.00781,706 L1002.04688,699.007812 C1002.02083,698.721353 1001.96224,698.460939 1001.87109,698.226562 C1001.77995,697.992186 1001.63021,697.783855 1001.42188,697.601562 C1001.26562,697.41927 1001.05729,697.276042 1000.79688,697.171875 C1000.53646,697.067708 1000.28906,697.015625 1000.05469,697.015625 L1000.01562,697.015625 Z" id="speechbubble" sketch:type="MSShapeGroup"></path>
        </g>
    </g>
</svg>