<?xml version="1.0" encoding="UTF-8" standalone="no"?>
<svg width="14px" height="12px" viewBox="0 0 14 12" version="1.1" xmlns="http://www.w3.org/2000/svg" xmlns:xlink="http://www.w3.org/1999/xlink" xmlns:sketch="http://www.bohemiancoding.com/sketch/ns">
    <!-- Generator: Sketch 3.3 (11970) - http://www.bohemiancoding.com/sketch -->
    <title>stop</title>
    <desc>Created with Sketch.</desc>
    <defs></defs>
    <g id="cheatsheet" stroke="none" stroke-width="1" fill="none" fill-rule="evenodd" sketch:type="MSPage">
        <g id="ligatures" sketch:type="MSArtboardGroup" transform="translate(-987.000000, -796.000000)" fill="#4A4A4A">
            <path d="M998.492188,796 L989.507812,796 C989.247395,796 989.026043,796.019531 988.84375,796.058594 C988.661457,796.097656 988.505209,796.16927 988.375,796.273438 C988.244791,796.377605 988.147136,796.514322 988.082031,796.683594 C988.016927,796.852865 987.984375,797.054686 987.984375,797.289062 L987.984375,806.703125 C987.984375,806.937501 988.016927,807.139322 988.082031,807.308594 C988.147136,807.477865 988.244791,807.614583 988.375,807.71875 C988.505209,807.822917 988.661457,807.894531 988.84375,807.933594 C989.026043,807.972656 989.247395,807.992188 989.507812,807.992188 L998.492188,807.992188 C998.752605,807.992188 998.973957,807.972656 999.15625,807.933594 C999.338543,807.894531 999.494791,807.822917 999.625,807.71875 C999.755209,807.614583 999.852864,807.477865 999.917969,807.308594 C999.983073,807.139322 1000.01562,806.937501 1000.01562,806.703125 L1000.01562,797.289062 C1000.01562,797.054686 999.983073,796.852865 999.917969,796.683594 C999.852864,796.514322 999.755209,796.377605 999.625,796.273438 C999.494791,796.16927 999.338543,796.097656 999.15625,796.058594 C998.973957,796.019531 998.752605,796 998.492188,796 L998.492188,796 Z" id="stop" sketch:type="MSShapeGroup"></path>
        </g>
    </g>
</svg>