<?xml version="1.0" encoding="UTF-8" standalone="no"?>
<svg width="17px" height="18px" viewBox="0 0 17 18" version="1.1" xmlns="http://www.w3.org/2000/svg" xmlns:xlink="http://www.w3.org/1999/xlink" xmlns:sketch="http://www.bohemiancoding.com/sketch/ns">
    <!-- Generator: Sketch 3.3 (11970) - http://www.bohemiancoding.com/sketch -->
    <title>thumbsup</title>
    <desc>Created with Sketch.</desc>
    <defs></defs>
    <g id="cheatsheet" stroke="none" stroke-width="1" fill="none" fill-rule="evenodd" sketch:type="MSPage">
        <g id="ligatures" sketch:type="MSArtboardGroup" transform="translate(-985.000000, -893.000000)" fill="#4A4A4A">
            <path d="M997.632812,899.359375 C997.554687,899.177082 998.036453,898.415371 999.078125,897.074219 C1000.1198,895.733066 1000.09376,894.398444 999,893.070312 C998.895833,892.914062 998.707033,892.992186 998.433594,893.304688 C998.160155,893.617189 997.828127,894.020831 997.4375,894.515625 C997.020831,895.036461 996.565107,895.589841 996.070312,896.175781 C995.575518,896.761722 995.015628,897.263019 994.390625,897.679688 C994.078123,897.914064 993.667971,898.194009 993.160156,898.519531 C992.652341,898.845054 992.177086,899.190102 991.734375,899.554688 C991.213539,899.919273 990.796877,900.277342 990.484375,900.628906 C990.171873,900.980471 990.002604,901.286457 989.976562,901.546875 L990.015625,908.382812 C989.989583,908.695314 990.256508,909.007811 990.816406,909.320312 C991.376305,909.632814 992.059892,909.91927 992.867188,910.179688 C993.752609,910.414064 994.69661,910.609374 995.699219,910.765625 C996.701828,910.921876 997.684891,911 998.648438,911 C998.960939,911 999.319008,910.544275 999.722656,909.632812 C1000.1263,908.72135 1000.48437,907.692714 1000.79688,906.546875 C1001.16146,905.374994 1001.44792,904.255214 1001.65625,903.1875 C1001.86458,902.119786 1001.98177,901.416668 1002.00781,901.078125 C1001.98177,900.374996 1001.26563,899.958334 999.859375,899.828125 C998.453118,899.697916 997.697917,899.541668 997.59375,899.359375 L997.632812,899.359375 Z M989,899.476562 C988.817707,899.476562 988.563804,899.509114 988.238281,899.574219 C987.912759,899.639323 987.56771,899.776041 987.203125,899.984375 C986.890623,900.218751 986.604168,900.537758 986.34375,900.941406 C986.083332,901.345054 985.966146,901.885413 985.992188,902.5625 L985.953125,907.445312 C985.979167,908.122399 986.109374,908.656248 986.34375,909.046875 C986.578126,909.437502 986.877602,909.736978 987.242188,909.945312 C987.554689,910.153647 987.886717,910.290364 988.238281,910.355469 C988.589846,910.420573 988.830729,910.453125 988.960938,910.453125 C989.14323,910.453125 989.188803,910.414063 989.097656,910.335938 C989.00651,910.257812 988.895834,910.127605 988.765625,909.945312 C988.557291,909.76302 988.375001,909.528647 988.21875,909.242188 C988.062499,908.955728 987.971354,908.604169 987.945312,908.1875 L987.984375,901.820312 C987.958333,901.377602 988.036457,901.006512 988.21875,900.707031 C988.401043,900.407551 988.570312,900.166668 988.726562,899.984375 C988.908855,899.802082 989.032552,899.671875 989.097656,899.59375 C989.162761,899.515625 989.130209,899.476562 989,899.476562 L989,899.476562 Z" id="thumbsup" sketch:type="MSShapeGroup"></path>
        </g>
    </g>
</svg>