<?xml version="1.0" encoding="UTF-8" standalone="no"?>
<svg width="17px" height="18px" viewBox="0 0 17 18" version="1.1" xmlns="http://www.w3.org/2000/svg" xmlns:xlink="http://www.w3.org/1999/xlink" xmlns:sketch="http://www.bohemiancoding.com/sketch/ns">
    <!-- Generator: Sketch 3.3 (11970) - http://www.bohemiancoding.com/sketch -->
    <title>thumbsdown</title>
    <desc>Created with Sketch.</desc>
    <defs></defs>
    <g id="cheatsheet" stroke="none" stroke-width="1" fill="none" fill-rule="evenodd" sketch:type="MSPage">
        <g id="ligatures" sketch:type="MSArtboardGroup" transform="translate(-986.000000, -843.000000)" fill="#4A4A4A">
            <path d="M990.367188,854.632812 C990.445313,854.815105 989.963547,855.576816 988.921875,856.917969 C987.880203,858.259121 987.906245,859.593743 989,860.921875 C989.104167,861.078126 989.292967,861.006512 989.566406,860.707031 C989.839845,860.407551 990.171873,859.997398 990.5625,859.476562 C990.979169,858.955727 991.434893,858.402347 991.929688,857.816406 C992.424482,857.230466 992.984372,856.729169 993.609375,856.3125 C993.921877,856.104166 994.332029,855.830731 994.839844,855.492188 C995.347659,855.153644 995.822914,854.802085 996.265625,854.4375 C996.786461,854.072915 997.203123,853.714846 997.515625,853.363281 C997.828127,853.011717 997.997396,852.70573 998.023438,852.445312 L997.984375,845.609375 C998.010417,845.296873 997.743492,844.984377 997.183594,844.671875 C996.623695,844.359373 995.940108,844.072918 995.132812,843.8125 C994.247391,843.578124 993.30339,843.382813 992.300781,843.226562 C991.298172,843.070312 990.315109,842.992188 989.351562,842.992188 C989.039061,842.992188 988.680992,843.447912 988.277344,844.359375 C987.873696,845.270838 987.515627,846.299473 987.203125,847.445312 C986.83854,848.617193 986.552084,849.743484 986.34375,850.824219 C986.135416,851.904953 986.018229,852.614582 985.992188,852.953125 C986.018229,853.630212 986.734368,854.033854 988.140625,854.164062 C989.546882,854.294271 990.302083,854.45052 990.40625,854.632812 L990.367188,854.632812 Z M999,854.554688 C999.182293,854.554688 999.436196,854.515625 999.761719,854.4375 C1000.08724,854.359375 1000.43229,854.216147 1000.79688,854.007812 C1001.10938,853.773436 1001.39583,853.454429 1001.65625,853.050781 C1001.91667,852.647133 1002.03385,852.106774 1002.00781,851.429688 L1002.04688,846.585938 C1002.02083,845.908851 1001.89063,845.368492 1001.65625,844.964844 C1001.42187,844.561196 1001.1224,844.255209 1000.75781,844.046875 C1000.44531,843.838541 1000.11328,843.701823 999.761719,843.636719 C999.410154,843.571614 999.169271,843.539062 999.039062,843.539062 C998.85677,843.539062 998.811197,843.578125 998.902344,843.65625 C998.99349,843.734375 999.104166,843.864582 999.234375,844.046875 C999.442709,844.229168 999.624999,844.46354 999.78125,844.75 C999.937501,845.03646 1000.02865,845.388019 1000.05469,845.804688 L1000.01562,852.171875 C1000.04167,852.614586 999.963543,852.985676 999.78125,853.285156 C999.598957,853.584637 999.429688,853.82552 999.273438,854.007812 C999.091145,854.216147 998.967448,854.359375 998.902344,854.4375 C998.837239,854.515625 998.869791,854.554688 999,854.554688 L999,854.554688 Z" id="thumbsdown" sketch:type="MSShapeGroup"></path>
        </g>
    </g>
</svg>