<?xml version="1.0" encoding="UTF-8" standalone="no"?>
<svg width="20px" height="15px" viewBox="0 0 20 15" version="1.1" xmlns="http://www.w3.org/2000/svg" xmlns:xlink="http://www.w3.org/1999/xlink" xmlns:sketch="http://www.bohemiancoding.com/sketch/ns">
    <!-- Generator: Sketch 3.3 (11970) - http://www.bohemiancoding.com/sketch -->
    <title>twitter</title>
    <desc>Created with Sketch.</desc>
    <defs></defs>
    <g id="cheatsheet" stroke="none" stroke-width="1" fill="none" fill-rule="evenodd" sketch:type="MSPage">
        <g id="ligatures" sketch:type="MSArtboardGroup" transform="translate(-984.000000, -946.000000)" fill="#4A4A4A">
            <path d="M1003.21875,947.796875 C1003.03646,947.875 1002.86068,947.946614 1002.69141,948.011719 C1002.52213,948.076823 1002.34636,948.135416 1002.16406,948.1875 C1001.98177,948.213542 1001.79297,948.246094 1001.59766,948.285156 C1001.40234,948.324219 1001.21354,948.356771 1001.03125,948.382812 C1001.21354,948.278645 1001.39583,948.148438 1001.57812,947.992188 C1001.76042,947.835937 1001.91667,947.666668 1002.04688,947.484375 C1002.17708,947.328124 1002.30078,947.145834 1002.41797,946.9375 C1002.53516,946.729166 1002.61979,946.520834 1002.67188,946.3125 C1002.48958,946.416667 1002.30729,946.514322 1002.125,946.605469 C1001.94271,946.696615 1001.7474,946.78125 1001.53906,946.859375 C1001.33073,946.9375 1001.1224,947.009114 1000.91406,947.074219 C1000.70573,947.139323 1000.4974,947.184896 1000.28906,947.210938 C1000.13281,947.028645 999.950522,946.865886 999.742188,946.722656 C999.533853,946.579426 999.312501,946.45573 999.078125,946.351562 C998.843749,946.247395 998.596355,946.169271 998.335938,946.117188 C998.07552,946.065104 997.815105,946.039062 997.554688,946.039062 C997.033852,946.039062 996.539065,946.136718 996.070312,946.332031 C995.60156,946.527345 995.197918,946.794269 994.859375,947.132812 C994.520832,947.471356 994.253907,947.868487 994.058594,948.324219 C993.86328,948.77995 993.765625,949.268227 993.765625,949.789062 C993.765625,949.945313 993.772135,950.095051 993.785156,950.238281 C993.798177,950.381511 993.817708,950.518229 993.84375,950.648438 C993.062496,950.622396 992.307295,950.505209 991.578125,950.296875 C990.848955,950.088541 990.158857,949.815106 989.507812,949.476562 C988.830726,949.138019 988.205732,948.734377 987.632812,948.265625 C987.059893,947.796873 986.539065,947.276045 986.070312,946.703125 C985.992187,946.859376 985.920573,947.009114 985.855469,947.152344 C985.790364,947.295574 985.744792,947.445312 985.71875,947.601562 C985.666666,947.757813 985.627604,947.920572 985.601562,948.089844 C985.575521,948.259115 985.5625,948.434895 985.5625,948.617188 C985.5625,948.929689 985.601562,949.242186 985.679688,949.554688 C985.757813,949.867189 985.874999,950.153645 986.03125,950.414062 C986.187501,950.67448 986.36328,950.921874 986.558594,951.15625 C986.753907,951.390626 986.98177,951.585937 987.242188,951.742188 C987.085937,951.742188 986.936199,951.729167 986.792969,951.703125 C986.649739,951.677083 986.500001,951.651042 986.34375,951.625 C986.213541,951.572916 986.076824,951.520834 985.933594,951.46875 C985.790364,951.416666 985.653646,951.351563 985.523438,951.273438 L985.523438,951.3125 C985.523438,951.781252 985.601562,952.217446 985.757812,952.621094 C985.914063,953.024742 986.135415,953.395832 986.421875,953.734375 C986.682293,954.072918 986.99479,954.352863 987.359375,954.574219 C987.72396,954.795574 988.127602,954.945312 988.570312,955.023438 C988.414062,955.075521 988.251303,955.114583 988.082031,955.140625 C987.91276,955.166667 987.73698,955.179688 987.554688,955.179688 C987.45052,955.179688 987.339844,955.173177 987.222656,955.160156 C987.105468,955.147135 986.981771,955.127604 986.851562,955.101562 C986.981771,955.466148 987.157551,955.811196 987.378906,956.136719 C987.600262,956.462241 987.867186,956.742186 988.179688,956.976562 C988.492189,957.184897 988.837238,957.360676 989.214844,957.503906 C989.59245,957.647136 989.989581,957.71875 990.40625,957.71875 C990.067707,957.979168 989.716148,958.20703 989.351562,958.402344 C988.986977,958.597657 988.609377,958.760416 988.21875,958.890625 C987.828123,959.046876 987.424481,959.157552 987.007812,959.222656 C986.591144,959.287761 986.161461,959.320312 985.71875,959.320312 L985.25,959.320312 C985.093749,959.320312 984.937501,959.307292 984.78125,959.28125 C985.223961,959.541668 985.666664,959.776041 986.109375,959.984375 C986.552086,960.192709 987.020831,960.374999 987.515625,960.53125 C988.010419,960.687501 988.511716,960.798177 989.019531,960.863281 C989.527346,960.928386 990.054685,960.960938 990.601562,960.960938 C992.320321,960.960938 993.850254,960.63542 995.191406,959.984375 C996.532559,959.33333 997.65885,958.500005 998.570312,957.484375 C999.481775,956.442703 1000.17187,955.283861 1000.64062,954.007812 C1001.10938,952.731764 1001.34375,951.468756 1001.34375,950.21875 C1001.34375,950.140625 1001.33724,950.0625 1001.32422,949.984375 C1001.3112,949.90625 1001.30469,949.828125 1001.30469,949.75 C1001.48698,949.619791 1001.66927,949.476563 1001.85156,949.320312 C1002.03386,949.164062 1002.20312,949.007813 1002.35938,948.851562 C1002.51563,948.695312 1002.66536,948.526043 1002.80859,948.34375 C1002.95182,948.161457 1003.08854,947.979168 1003.21875,947.796875 L1003.21875,947.796875 Z" id="twitter" sketch:type="MSShapeGroup"></path>
        </g>
    </g>
</svg>