<?xml version="1.0" encoding="UTF-8" standalone="no"?>
<svg width="20px" height="14px" viewBox="0 0 20 14" version="1.1" xmlns="http://www.w3.org/2000/svg" xmlns:xlink="http://www.w3.org/1999/xlink" xmlns:sketch="http://www.bohemiancoding.com/sketch/ns">
    <!-- Generator: Sketch 3.3 (11970) - http://www.bohemiancoding.com/sketch -->
    <title>upload</title>
    <desc>Created with Sketch.</desc>
    <defs></defs>
    <g id="cheatsheet" stroke="none" stroke-width="1" fill="none" fill-rule="evenodd" sketch:type="MSPage">
        <g id="ligatures" sketch:type="MSArtboardGroup" transform="translate(-984.000000, -996.000000)" fill="#4A4A4A">
            <path d="M999.195312,999.632812 C999.065104,999.632812 998.934896,999.639323 998.804688,999.652344 C998.674479,999.665365 998.544271,999.684896 998.414062,999.710938 C998.23177,999.16406 997.977866,998.662763 997.652344,998.207031 C997.326821,997.7513 996.942711,997.367189 996.5,997.054688 C996.057289,996.716144 995.562503,996.45573 995.015625,996.273438 C994.468747,996.091145 993.895836,996 993.296875,996 C992.567705,996 991.877607,996.136717 991.226562,996.410156 C990.575518,996.683595 990.015627,997.054685 989.546875,997.523438 C989.078123,997.99219 988.700522,998.54557 988.414062,999.183594 C988.127603,999.821618 987.984375,1000.49218 987.984375,1001.19531 C987.984375,1001.32552 987.990885,1001.45573 988.003906,1001.58594 C988.016927,1001.71615 988.036458,1001.83333 988.0625,1001.9375 L987.828125,1001.9375 L987.632812,1001.9375 C987.111977,1001.9375 986.636721,1002.02864 986.207031,1002.21094 C985.777342,1002.39323 985.393231,1002.64062 985.054688,1002.95312 C984.742186,1003.29167 984.488282,1003.67578 984.292969,1004.10547 C984.097655,1004.53516 984,1004.98437 984,1005.45312 C984,1005.94792 984.097655,1006.41015 984.292969,1006.83984 C984.488282,1007.26953 984.742186,1007.64062 985.054688,1007.95312 C985.393231,1008.29167 985.777342,1008.55208 986.207031,1008.73438 C986.636721,1008.91667 987.111977,1009.00781 987.632812,1009.00781 L992.59375,1009.00781 L992.59375,1005.17969 L990.484375,1005.17969 L994,1000.60938 L997.515625,1005.17969 L995.40625,1005.17969 L995.40625,1009.00781 L999.195312,1009.00781 C999.872399,1009.00781 1000.49739,1008.88412 1001.07031,1008.63672 C1001.64323,1008.38932 1002.15104,1008.05729 1002.59375,1007.64062 C1003.03646,1007.19791 1003.38151,1006.69662 1003.62891,1006.13672 C1003.8763,1005.57682 1004,1004.97136 1004,1004.32031 C1004,1003.66927 1003.8763,1003.0638 1003.62891,1002.50391 C1003.38151,1001.94401 1003.03646,1001.44271 1002.59375,1001 C1002.15104,1000.58333 1001.64323,1000.2513 1001.07031,1000.00391 C1000.49739,999.756509 999.872399,999.632812 999.195312,999.632812 L999.195312,999.632812 Z" id="upload" sketch:type="MSShapeGroup"></path>
        </g>
    </g>
</svg>