<?xml version="1.0" encoding="UTF-8" standalone="no"?>
<svg width="18px" height="11px" viewBox="0 0 18 11" version="1.1" xmlns="http://www.w3.org/2000/svg" xmlns:xlink="http://www.w3.org/1999/xlink" xmlns:sketch="http://www.bohemiancoding.com/sketch/ns">
    <!-- Generator: Sketch 3.3 (11970) - http://www.bohemiancoding.com/sketch -->
    <title>upstrokethin</title>
    <desc>Created with Sketch.</desc>
    <defs></defs>
    <g id="cheatsheet" stroke="none" stroke-width="1" fill="none" fill-rule="evenodd" sketch:type="MSPage">
        <g id="ligatures" sketch:type="MSArtboardGroup" transform="translate(-985.000000, -1097.000000)" fill="#4A4A4A">
            <path d="M1001.42188,1106.89844 C1001.55208,1107.02865 1001.71484,1107.09375 1001.91016,1107.09375 C1002.10547,1107.09375 1002.26823,1107.02865 1002.39844,1106.89844 C1002.52865,1106.76823 1002.59375,1106.60547 1002.59375,1106.41016 C1002.59375,1106.21484 1002.52865,1106.05208 1002.39844,1105.92188 L994.507812,1098.10938 C994.351562,1097.97917 994.182293,1097.91406 994,1097.91406 C993.817707,1097.91406 993.648438,1097.97917 993.492188,1098.10938 L985.601562,1105.92188 C985.471354,1106.05208 985.40625,1106.21484 985.40625,1106.41016 C985.40625,1106.60547 985.471354,1106.76823 985.601562,1106.89844 C985.731771,1107.02865 985.89453,1107.09375 986.089844,1107.09375 C986.285157,1107.09375 986.447916,1107.02865 986.578125,1106.89844 L994,1099.75 L1001.42188,1106.89844 Z" id="upstrokethin" sketch:type="MSShapeGroup"></path>
        </g>
    </g>
</svg>