<?xml version="1.0" encoding="UTF-8" standalone="no"?>
<svg width="12px" height="8px" viewBox="0 0 12 8" version="1.1" xmlns="http://www.w3.org/2000/svg" xmlns:xlink="http://www.w3.org/1999/xlink" xmlns:sketch="http://www.bohemiancoding.com/sketch/ns">
    <!-- Generator: Sketch 3.3 (11970) - http://www.bohemiancoding.com/sketch -->
    <title>upstroke</title>
    <desc>Created with Sketch.</desc>
    <defs></defs>
    <g id="cheatsheet" stroke="none" stroke-width="1" fill="none" fill-rule="evenodd" sketch:type="MSPage">
        <g id="ligatures" sketch:type="MSArtboardGroup" transform="translate(-988.000000, -1051.000000)" fill="#4A4A4A">
            <path d="M994.351562,1051.625 L999.859375,1056.97656 C999.911459,1057.05469 999.950521,1057.11328 999.976562,1057.15234 C1000.0026,1057.19141 1000.01562,1057.25 1000.01562,1057.32812 C1000.01562,1057.35417 1000.0026,1057.40625 999.976562,1057.48438 C999.950521,1057.5625 999.911459,1057.60156 999.859375,1057.60156 L998.609375,1058.85156 C998.583333,1058.8776 998.537761,1058.91016 998.472656,1058.94922 C998.407552,1058.98828 998.348959,1058.99479 998.296875,1058.96875 C998.21875,1058.99479 998.153646,1058.98828 998.101562,1058.94922 C998.049479,1058.91016 997.997396,1058.8776 997.945312,1058.85156 L994,1054.98438 L990.054688,1058.85156 C990.002604,1058.8776 989.950521,1058.91016 989.898438,1058.94922 C989.846354,1058.98828 989.794271,1058.99479 989.742188,1058.96875 C989.664062,1058.99479 989.598959,1058.98828 989.546875,1058.94922 C989.494791,1058.91016 989.442709,1058.8776 989.390625,1058.85156 L988.140625,1057.64062 C988.088541,1057.61458 988.049479,1057.56901 988.023438,1057.50391 C987.997396,1057.4388 987.984375,1057.38021 987.984375,1057.32812 C987.984375,1057.25 987.997396,1057.19141 988.023438,1057.15234 C988.049479,1057.11328 988.088541,1057.05469 988.140625,1056.97656 L993.648438,1051.66406 C993.700521,1051.58594 993.752604,1051.54036 993.804688,1051.52734 C993.856771,1051.51432 993.921875,1051.49479 994,1051.46875 C994.078125,1051.49479 994.143229,1051.50781 994.195312,1051.50781 C994.247396,1051.50781 994.299479,1051.54687 994.351562,1051.625 L994.351562,1051.625 Z" id="upstroke" sketch:type="MSShapeGroup"></path>
        </g>
    </g>
</svg>