<?xml version="1.0" encoding="UTF-8" standalone="no"?>
<svg width="18px" height="16px" viewBox="0 0 18 16" version="1.1" xmlns="http://www.w3.org/2000/svg" xmlns:xlink="http://www.w3.org/1999/xlink" xmlns:sketch="http://www.bohemiancoding.com/sketch/ns">
    <!-- Generator: Sketch 3.3 (11970) - http://www.bohemiancoding.com/sketch -->
    <title>vimeo</title>
    <desc>Created with Sketch.</desc>
    <defs></defs>
    <g id="cheatsheet" stroke="none" stroke-width="1" fill="none" fill-rule="evenodd" sketch:type="MSPage">
        <g id="ligatures" sketch:type="MSArtboardGroup" transform="translate(-985.000000, -1145.000000)" fill="#4A4A4A">
            <path d="M1002.90625,1148.85156 C1002.64583,1150.28386 1002.15105,1151.65104 1001.42188,1152.95312 C1000.6927,1154.25521 999.885421,1155.42708 999,1156.46875 C998.140621,1157.51042 997.294275,1158.38932 996.460938,1159.10547 C995.6276,1159.82162 995.002606,1160.32292 994.585938,1160.60938 C994.169269,1160.89583 993.765627,1161.02604 993.375,1161 C992.984373,1160.97396 992.619793,1160.85677 992.28125,1160.64844 C991.942707,1160.46614 991.649741,1160.21875 991.402344,1159.90625 C991.154947,1159.59375 990.953126,1159.28125 990.796875,1158.96875 C990.640624,1158.65625 990.419272,1158.02474 990.132812,1157.07422 C989.846353,1156.12369 989.546877,1155.12761 989.234375,1154.08594 C988.921873,1153.04427 988.628908,1152.09375 988.355469,1151.23438 C988.08203,1150.375 987.880209,1149.86719 987.75,1149.71094 C987.489582,1149.42448 987.08594,1149.45703 986.539062,1149.80859 C985.992185,1150.16016 985.71875,1150.33594 985.71875,1150.33594 L985.015625,1149.35938 C985.015625,1149.35938 985.621088,1148.72136 986.832031,1147.44531 C988.042975,1146.16926 989.234369,1145.41406 990.40625,1145.17969 C991.005211,1145.04948 991.473957,1145.19271 991.8125,1145.60938 C992.151043,1146.02604 992.424478,1146.55989 992.632812,1147.21094 C992.815105,1147.88802 992.958333,1148.61067 993.0625,1149.37891 C993.166667,1150.14714 993.296874,1150.83073 993.453125,1151.42969 C993.583334,1152.02865 993.713541,1152.55599 993.84375,1153.01172 C993.973959,1153.46745 994.091145,1153.85156 994.195312,1154.16406 C994.325521,1154.47656 994.449218,1154.71745 994.566406,1154.88672 C994.683594,1155.05599 994.79427,1155.14062 994.898438,1155.14062 C995.028646,1155.14062 995.184895,1155.0625 995.367188,1154.90625 C995.54948,1154.75 995.744791,1154.52865 995.953125,1154.24219 C996.187501,1153.92969 996.428384,1153.57162 996.675781,1153.16797 C996.923178,1152.76432 997.177082,1152.31511 997.4375,1151.82031 C997.697918,1151.32552 997.828125,1150.85677 997.828125,1150.41406 C997.828125,1149.97135 997.73698,1149.61979 997.554688,1149.35938 C997.346353,1149.07292 997.053387,1148.91667 996.675781,1148.89062 C996.298175,1148.86458 995.848961,1149.00781 995.328125,1149.32031 C995.536459,1148.04426 996.09635,1147.03516 997.007812,1146.29297 C997.919275,1145.55078 998.856766,1145.1276 999.820312,1145.02344 C1000.75782,1144.91927 1001.57161,1145.16666 1002.26172,1145.76562 C1002.95183,1146.36459 1003.16667,1147.39322 1002.90625,1148.85156 L1002.90625,1148.85156 Z" id="vimeo" sketch:type="MSShapeGroup"></path>
        </g>
    </g>
</svg>