<?xml version="1.0" encoding="utf-8"?>
<!-- Generator: Adobe Illustrator 18.1.1, SVG Export Plug-In . SVG Version: 6.00 Build 0)  -->
<svg version="1.1" id="Layer_1" xmlns="http://www.w3.org/2000/svg" xmlns:xlink="http://www.w3.org/1999/xlink" x="0px" y="0px"
	 viewBox="0 0 200 70" enable-background="new 0 0 200 70" xml:space="preserve">
<g>
	<path fill-rule="evenodd" clip-rule="evenodd" fill="#FFFFFF" d="M5.4,28.9c-0.1,0-0.2,0.1-0.2,0.2v3.9c0,0.1,0.1,0.2,0.2,0.2H7
		h0.4c0.8,0,1.4-0.2,1.8-0.5c0.4-0.4,0.6-0.9,0.6-1.7c0-0.7-0.2-1.3-0.6-1.6c-0.4-0.4-1-0.5-1.8-0.5H7H5.4z M5.4,36.1
		c-0.1,0-0.2,0.1-0.2,0.2V41c0,0.1,0.1,0.2,0.2,0.2H7h0.6c0.9,0,1.5-0.2,1.9-0.6c0.4-0.4,0.6-1,0.6-1.9c0-0.9-0.2-1.5-0.6-1.9
		c-0.4-0.4-1-0.6-1.9-0.6H7H5.4z M8.2,44.5H7.9H0.2v-2.8c0.3-0.1,0.6-0.3,0.7-0.5c0.2-0.3,0.3-0.7,0.3-1.2v-0.4v-9.2v-0.4
		c0-0.5-0.1-0.9-0.3-1.2c-0.1-0.2-0.4-0.4-0.7-0.5v-2.8h7h0.4c1,0,1.8,0.1,2.4,0.2c0.6,0.1,1.1,0.3,1.5,0.6c0.7,0.4,1.2,1,1.6,1.7
		c0.4,0.7,0.6,1.6,0.6,2.6c0,1.6-0.4,3.6-2.6,4.2C11,34.8,11,34.9,11,35c0,0.1,0.1,0.2,0.2,0.2c2,0.4,3,1.8,3,4.2
		c0,1-0.1,1.9-0.4,2.6c-0.3,0.7-0.7,1.3-1.3,1.7c-0.4,0.3-0.9,0.5-1.5,0.6C10.3,44.4,9.4,44.5,8.2,44.5"/>
	<path fill-rule="evenodd" clip-rule="evenodd" fill="#FFFFFF" d="M23.2,38C23.2,38,23.1,38,23.2,38c-0.3,0.1-0.4,0.2-0.6,0.2
		l-0.1,0c-0.1,0-0.6,0.3-1,0.5L21,39c-0.9,0.5-1.3,1-1.3,1.7c0,0.4,0.1,0.7,0.4,0.9c0.2,0.2,0.6,0.4,1,0.4c0.3,0,0.7-0.1,1.1-0.4
		c0.4-0.3,0.8-0.6,1.2-1c0,0,0.1-0.1,0.1-0.1v-2.3c0-0.1,0-0.1-0.1-0.2C23.3,38,23.2,38,23.2,38 M19.4,44.6c-1.2,0-2-0.3-2.7-0.9
		c-0.6-0.6-0.9-1.6-0.9-2.8c0-1.3,0.5-2.2,1.6-3c0.4-0.3,1-0.6,1.9-1c0.4-0.1,3.4-1.2,3.9-1.3c0.1,0,0.1-0.1,0.1-0.2v-0.3
		c0-0.9-0.1-1.4-0.4-1.8c-0.2-0.4-0.7-0.6-1.3-0.6c-0.5,0-0.9,0.2-1.2,0.5c-0.3,0.3-0.4,0.7-0.4,1.2v0.4h-3.6v-3.1
		c0.9-0.4,1.8-0.8,2.7-1c1-0.3,1.9-0.4,2.8-0.4c1.5,0,2.7,0.3,3.6,1c0.5,0.4,0.8,0.8,1,1.2c0.2,0.4,0.3,0.9,0.3,1.6v6.4
		c0,0.5,0.1,0.8,0.2,1c0.1,0.2,0.4,0.4,0.7,0.4v2.5h-4.3v-1.1c0-0.1,0-0.2-0.1-0.2c0,0-0.1,0-0.1,0c0,0-0.1,0-0.1,0
		c-0.8,0.6-1.4,0.9-2,1.1C20.8,44.5,20.2,44.6,19.4,44.6"/>
	<path fill="#FFFFFF" d="M35.5,44.8c-0.5,0-0.9,0-1.3-0.1c-0.4,0-0.9-0.1-1.3-0.2c-0.5-0.1-0.9-0.2-1.5-0.3c-0.5-0.1-1-0.3-1.6-0.5
		v-3.6h3.5v0.1c0,0.7,0.1,1.2,0.4,1.5c0.3,0.3,0.7,0.5,1.3,0.5c0.5,0,0.8-0.1,1.1-0.4c0.3-0.3,0.5-0.7,0.5-1.1c0-0.2,0-0.5-0.1-0.6
		c-0.1-0.2-0.2-0.4-0.4-0.5c-0.2-0.1-0.4-0.3-0.8-0.4c-0.3-0.1-0.7-0.3-1.2-0.4c-0.5-0.1-0.9-0.3-1.2-0.4c-0.3-0.1-0.6-0.3-0.9-0.3
		l-0.2-0.1c-0.2-0.1-0.3-0.1-0.5-0.2c-0.1-0.1-0.3-0.2-0.4-0.3l-0.1,0c-0.7-0.6-1.1-1.5-1.1-2.6c0-1.4,0.4-2.4,1.4-3.2
		c0.9-0.8,2.3-1.1,4-1.1c0.7,0,1.5,0.1,2.2,0.3c0.8,0.2,1.6,0.5,2.6,0.8l0.3,0.1v3.3h-3.3c0-1.6-0.9-1.9-1.7-1.9
		c-0.5,0-0.8,0.1-1.1,0.4c-0.3,0.3-0.4,0.7-0.4,1.1c0,0.6,0.3,1,0.8,1.3c0.1,0.1,0.2,0.1,0.3,0.2c0.1,0.1,0.8,0.3,1.1,0.4
		c0.3,0.1,0.6,0.2,1,0.3c0.9,0.3,1.5,0.5,2,0.7c0.4,0.2,0.7,0.4,1,0.6c0.5,0.6,0.8,1.4,0.8,2.5C40.7,43.4,39,44.8,35.5,44.8"/>
	<path fill="#FFFFFF" d="M47.8,44.5h-5.4v-2.6c0.1,0,0.3-0.1,0.3-0.1c0.2-0.1,0.3-0.2,0.4-0.4c0.1-0.2,0.1-0.4,0.1-0.6
		c0-0.2,0-0.5,0-0.8v-0.3v-9.3v-0.3c0-0.3,0-0.6,0-0.8c0-0.2-0.1-0.4-0.1-0.6c-0.1-0.2-0.2-0.3-0.3-0.4c-0.1-0.1-0.2-0.1-0.4-0.2
		v-2.6h4.5v14.1V40c0,0.3,0,0.6,0,0.8c0,0.2,0.1,0.4,0.1,0.6c0.1,0.2,0.2,0.3,0.4,0.4c0.1,0.1,0.2,0.1,0.4,0.2V44.5z"/>
	<path fill-rule="evenodd" clip-rule="evenodd" fill="#FFFFFF" d="M55.3,32.9c-0.6,0-1.1,0.2-1.4,0.6c-0.3,0.4-0.5,1-0.5,1.7v0.4
		v0.3c0,0.1,0.1,0.2,0.2,0.2H57c0.1,0,0.2-0.1,0.2-0.2v-0.3v-0.4C57.2,33.3,56.1,32.9,55.3,32.9 M55.3,44.8c-1.1,0-2.1-0.2-2.9-0.5
		c-0.8-0.3-1.4-0.8-1.9-1.3c-0.1-0.2-0.3-0.4-0.4-0.6c-0.1-0.2-0.2-0.4-0.2-0.6c-0.1-0.2-0.1-0.5-0.1-0.8c0-0.3,0-0.7,0-1.1v-4.8
		c0-0.8,0.1-1.4,0.2-1.8c0.1-0.4,0.3-0.8,0.6-1.2c0.4-0.6,1.1-1,1.9-1.3c0.8-0.3,1.8-0.5,2.9-0.5c1.1,0,2,0.2,2.8,0.5
		c0.8,0.3,1.5,0.8,2,1.3c0.1,0.2,0.3,0.3,0.3,0.5c0.1,0.2,0.2,0.4,0.2,0.6c0.1,0.2,0.1,0.5,0.1,0.8c0,0.3,0,0.7,0,1.2v3h-7.3
		c-0.1,0-0.2,0.1-0.2,0.2v1.2v0.3c0,2,1,2.4,1.9,2.4c0.9,0,1.9-0.4,1.9-2.1h3.6v3.1C59.1,44.3,57.2,44.8,55.3,44.8"/>
	<path fill="#FFFFFF" d="M68.4,44.5H63v-2.6c0.1,0,0.3-0.1,0.3-0.1c0.2-0.1,0.3-0.2,0.4-0.4c0.1-0.1,0.1-0.4,0.2-0.6
		c0-0.2,0-0.5,0-0.8v-0.3v-4.3v-0.3c0-0.7-0.1-1.2-0.2-1.4c-0.1-0.2-0.3-0.4-0.7-0.5v-2.6h4.3v1c0,0.1,0.1,0.2,0.1,0.2
		c0,0,0,0,0.1,0c0.1,0,0.1,0,0.2-0.1l0.1-0.1c0.3-0.4,0.6-0.7,0.9-0.9c0.3-0.2,0.6-0.3,1-0.3l0.1,0c0.2,0,0.4,0,0.5,0.1v3.8
		c-0.1,0-0.1,0-0.2,0c0,0-0.2,0-0.3,0c-1,0-2.3,0.4-2.3,2.6v0.4v2.4V40c0,0.4,0,0.6,0,0.9c0,0.2,0.1,0.4,0.1,0.6
		c0.1,0.2,0.2,0.3,0.3,0.4c0.1,0.1,0.2,0.1,0.4,0.2V44.5z"/>
	<path fill="#FFFFFF" d="M81.9,27.7c-0.2,0-0.4,0.1-0.5,0.2c0,0,0,0,0,0C81.1,28,81,28.3,81,28.7c0,0.4,0.1,0.6,0.3,1
		c0.2,0.3,0.5,1,1,1.7c0,0.1,0.1,0.1,0.2,0.1c0,0,0.1,0,0.1,0c0.9-0.5,1.1-1.1,1.1-1.5c0-0.6-0.2-1-0.5-1.5
		C82.8,27.9,82.4,27.7,81.9,27.7 M82.2,32.1L82.1,32c-0.6-0.8-0.9-1.6-1.2-2c-0.3-0.5-0.4-0.9-0.4-1.3c0-0.5,0.2-1,0.6-1.2
		c0.2-0.1,0.5-0.2,0.8-0.2c0.7,0,1.3,0.4,1.6,1c0.4,0.6,0.5,1.1,0.6,1.7l0,0.1c0,0.8-0.7,1.5-1.7,2L82.2,32.1z M79.5,35.7
		c0,0-0.1,0-0.1,0c-0.3,0.2-0.4,0.3-0.5,0.5c-0.2,0.3-0.4,0.6-0.5,1.1c0,0.1,0,0.1,0,0.2c0,0.8,0.3,1.5,0.9,2.3
		c0.6,0.8,1.2,1.2,1.9,1.3c0.1,0,0.3,0,0.4,0c0.5,0,0.9-0.3,1.2-0.5c0,0,0.1-0.1,0.1-0.1c0-0.1,0-0.1,0-0.2c-0.3-0.4-1-1.3-1.8-2.5
		c-0.6-1-1.1-1.7-1.3-2.2C79.6,35.7,79.6,35.7,79.5,35.7C79.5,35.7,79.5,35.7,79.5,35.7 M81.5,41.6c-0.1,0-0.4,0-0.5,0
		c-0.8-0.1-1.5-0.6-2.1-1.5c-0.6-0.9-1-1.7-1-2.6c0-0.1,0-0.1,0-0.2c0-0.5,0.2-1,0.6-1.4c0.2-0.2,0.4-0.4,1-0.8l0.2-0.1l0.1,0.2
		c0.1,0.2,0.6,1.1,1.5,2.5c0.9,1.5,1.8,2.5,2,2.7l0.1,0.2l-0.2,0.1l-0.1,0.1C82.9,41.1,82.3,41.6,81.5,41.6 M84.7,42l0.1,0.1
		c0,0,0.2,0.3,0.6,0.6c0.2,0.2,0.7,0.7,1.1,0.9c0.6,0.4,1.4,0.8,2.2,0.8c1.1,0,2-0.4,2.8-1.3c0.2-0.3,0.5-0.6,0.7-1
		c0.1-0.1,0-0.2,0-0.3c0,0-0.1-0.1-0.1-0.1c0,0-0.1,0-0.1,0c-0.3,0.2-0.7,0.3-1.1,0.3c-0.7,0-1.3-0.4-1.8-0.7
		c-0.5-0.3-1.2-0.9-1.8-1.6l-0.1-0.1l0.1-0.1c0.2-0.2,0.4-0.5,0.6-0.8c0.7-0.9,1.5-2.1,2.6-2.9c0.7-0.5,1.4-0.5,1.9-0.5
		c0.1,0,0.2-0.1,0.2-0.2V34c0-0.1-0.1-0.2-0.2-0.2c-0.1,0-0.2,0-0.2,0c-0.3,0-0.6,0-0.9,0.1c-1,0.2-2,0.7-2.8,1.7
		c-0.3,0.3-0.5,0.6-0.7,0.8c-0.4,0.4-0.8,0.8-1.5,1.7l-0.2,0.2L86,38.1c0,0-0.9-1-1.7-2.3c-0.4-0.6-0.8-1.3-1.3-2.2l-0.1-0.2
		l0.2-0.1l0.3-0.2c0.7-0.4,2.1-1.1,2.7-1.7c0.6-0.6,1-1.4,1-2.3c0-0.7-0.3-1.8-1-2.4c-0.6-0.5-1.6-1.2-3.1-1.2
		c-1.4,0-2.7,0.5-3.7,1.4c-0.8,0.7-1.3,1.9-1.3,3.1c0,0.6,0.1,1.1,0.3,1.6c0.2,0.6,0.4,1.1,0.7,1.6l0.1,0.2l-0.2,0.1
		c-1.3,0.7-2.2,1.4-3.1,2.2c-1.3,1.2-1.9,2.4-1.9,3.9c0,1.2,0.6,2.6,1.7,3.4c1,0.8,2.1,1.2,3.3,1.2c1.1,0,2.2-0.3,3.4-0.8
		c0.5-0.2,2.1-1.2,2.4-1.5l0,0.1L84.7,42z M88.8,44.8L88.8,44.8c-0.9,0-1.7-0.4-2.5-0.8c-0.4-0.2-0.9-0.7-1.5-1.3
		c0,0-0.1-0.1-0.2-0.1c0,0-0.1,0-0.1,0c-0.4,0.3-1.3,0.9-2.1,1.3c-1.2,0.5-2.4,0.8-3.6,0.8c-1.3,0-2.5-0.4-3.6-1.3
		c-1.1-0.9-1.8-2.3-1.8-3.7c0-1.6,0.7-3,2-4.2c1-0.9,1.8-1.5,2.8-2.1c0.1-0.1,0.1-0.2,0.1-0.3c-0.2-0.4-0.4-0.8-0.6-1.3
		c-0.2-0.6-0.3-1.2-0.3-1.8c0-1.4,0.5-2.6,1.4-3.4c0.8-0.7,2.1-1.5,4-1.5c1.6,0,2.7,0.7,3.4,1.3c0.7,0.6,1.2,1.7,1.2,2.7
		c0,1-0.4,1.9-1.1,2.6c-0.7,0.7-2,1.3-2.7,1.7c-0.1,0-0.1,0.1-0.1,0.1c0,0.1,0,0.1,0,0.2c0.2,0.4,0.7,1.2,1.1,1.8
		c0.5,0.8,1,1.5,1.3,1.9c0,0.1,0.1,0.1,0.2,0.1c0.1,0,0.1,0,0.2-0.1c0.5-0.6,0.9-1,1.2-1.3c0.2-0.3,0.5-0.5,0.7-0.8
		c0.9-1,1.9-1.7,3.1-1.8c0.3-0.1,0.6-0.1,0.9-0.1c0.4,0,0.7,0,0.7,0l0.2,0v2.3l-0.2,0l-0.1,0l-0.2,0c-0.5,0-1.1,0.1-1.7,0.5
		c-1,0.7-1.9,1.9-2.5,2.8c-0.1,0.2-0.2,0.3-0.4,0.5c-0.1,0.1-0.1,0.2,0,0.3c0.6,0.6,1.2,1.1,1.4,1.2c0.4,0.3,1.1,0.7,1.5,0.7
		c0.4,0,0.7-0.1,0.9-0.3c0.1-0.1,0.3-0.3,0.5-0.6l0.1-0.2l0.9,0.5l-0.1,0.2c-0.4,0.9-0.8,1.5-1.3,2C91,44.3,89.9,44.8,88.8,44.8"/>
	<path fill="#FFFFFF" d="M111.9,44.5h-6v-2.8c0.4-0.1,0.6-0.3,0.7-0.5c0.2-0.3,0.3-0.7,0.3-1.2v-0.4v-3.2c0-0.1-0.1-0.2-0.2-0.2
		h-4.2c-0.1,0-0.2,0.1-0.2,0.2v3.2V40c0,0.5,0.1,0.9,0.3,1.2c0.1,0.2,0.4,0.4,0.7,0.5v2.8h-6v-2.8c0.4-0.1,0.6-0.3,0.7-0.5
		c0.2-0.3,0.3-0.7,0.3-1.2v-0.4v-9.2v-0.4c0-0.6-0.1-0.9-0.3-1.2c-0.1-0.2-0.4-0.4-0.7-0.5v-2.8h6v2.8c-0.4,0.1-0.6,0.3-0.8,0.5
		c-0.2,0.3-0.2,0.6-0.2,1.2v0.4v2.7c0,0.1,0.1,0.2,0.2,0.2h4.2c0.1,0,0.2-0.1,0.2-0.2v-2.7v-0.4c0-0.5-0.1-0.9-0.3-1.2
		c-0.1-0.2-0.4-0.4-0.7-0.5v-2.8h6v2.8c-0.4,0.1-0.6,0.3-0.8,0.5c-0.2,0.3-0.2,0.6-0.2,1.2v0.4v9.2V40c0,0.5,0.1,0.9,0.2,1.2
		c0.2,0.2,0.4,0.4,0.8,0.5V44.5z"/>
	<path fill-rule="evenodd" clip-rule="evenodd" fill="#FFFFFF" d="M119.6,32.9c-0.6,0-1.1,0.2-1.4,0.6c-0.3,0.4-0.5,1-0.5,1.7v0.4
		v3.9v0.4c0.1,1.9,1.1,2.3,1.9,2.3c0.9,0,1.9-0.4,1.9-2.3v-0.4v-3.9v-0.4C121.5,33.3,120.5,32.9,119.6,32.9 M119.6,44.8
		c-1.1,0-2-0.2-2.8-0.5c-0.8-0.3-1.4-0.8-1.9-1.3c-0.3-0.4-0.5-0.8-0.7-1.2c-0.1-0.4-0.2-1-0.2-1.8v-4.8c0-0.8,0.1-1.4,0.2-1.8
		c0.1-0.4,0.3-0.8,0.7-1.2c0.5-0.6,1.1-1,1.9-1.3c0.8-0.3,1.8-0.5,2.8-0.5c1.1,0,2,0.2,2.8,0.5c0.8,0.3,1.5,0.7,1.9,1.3
		c0.3,0.4,0.5,0.8,0.7,1.2c0.1,0.4,0.2,1,0.2,1.8V40c0,0.8-0.1,1.4-0.2,1.8c-0.1,0.4-0.3,0.8-0.7,1.2c-0.5,0.6-1.1,1-1.9,1.3
		C121.6,44.6,120.6,44.8,119.6,44.8"/>
	<path fill="#FFFFFF" d="M132.6,44.5h-5.4v-2.6c0.1,0,0.3-0.1,0.3-0.1c0.2-0.1,0.3-0.2,0.4-0.4c0.1-0.2,0.1-0.4,0.2-0.6
		c0-0.2,0-0.5,0-0.8v-0.4v-6.2c0-0.1-0.1-0.2-0.2-0.2h-0.7v-2.5h0.7c0.1,0,0.2-0.1,0.2-0.2v-0.6c0-0.5,0-0.9,0-1.2
		c0-0.3,0.1-0.6,0.1-0.9c0.1-0.3,0.1-0.5,0.2-0.6c0.1-0.2,0.3-0.4,0.4-0.6c0.6-0.8,1.6-1.2,2.9-1.2c0.3,0,0.5,0,0.8,0.1
		c0.2,0,0.5,0.1,0.9,0.1V28c-0.1,0-0.2,0-0.2,0c-0.6,0-1,0.2-1.3,0.5c-0.2,0.3-0.4,0.9-0.4,1.7v0.2c0,0.1,0.1,0.2,0.2,0.2h1.4v2.5
		h-1.4c-0.1,0-0.2,0.1-0.2,0.2v6.4V40c0,0.3,0,0.6,0,0.8c0,0.2,0.1,0.4,0.1,0.6c0.1,0.2,0.2,0.3,0.3,0.4c0.1,0.1,0.2,0.1,0.4,0.2
		V44.5z"/>
	<path fill="#FFFFFF" d="M155.7,44.5h-4.3c0-0.1-0.1-0.3-0.1-0.4c0-0.1-0.1-0.3-0.1-0.5c0-0.2,0-0.5-0.1-0.7v-1v-0.6v-5.6
		c0-0.4,0-0.7-0.1-1c0-0.2-0.1-0.5-0.1-0.7c-0.3-0.7-0.9-1.1-1.8-1.1c-0.3,0-0.6,0-0.8,0.1c-0.2,0.1-0.5,0.2-0.9,0.4
		c-0.1,0-0.1,0.1-0.1,0.2V34v0.4v0.4v0.4v4.5v0.8c0,0.5,0.1,0.8,0.2,1c0.1,0.2,0.4,0.3,0.7,0.4v2.5h-4.3c-0.1-0.3-0.2-0.6-0.2-0.9
		c0-0.3-0.1-0.8-0.1-1.4v-0.7v-5.7v-0.4c0-0.8-0.2-1.4-0.6-1.8c-0.3-0.3-0.8-0.5-1.4-0.5c-0.3,0-0.5,0-0.7,0.1
		c-0.2,0.1-0.5,0.2-0.8,0.3l-0.2,0.1c-0.1,0-0.1,0.1-0.1,0.2v5.9v1c0,0.3,0.1,0.5,0.1,0.7c0.1,0.2,0.2,0.3,0.3,0.4
		c0.1,0.1,0.3,0.1,0.4,0.2v2.5h-5.4v-2.6c0.3-0.1,0.5-0.3,0.7-0.5c0.1-0.2,0.2-0.6,0.2-1V40v-0.3v-4.3v-0.3v-0.3
		c0-0.5-0.1-0.9-0.2-1.1c-0.1-0.2-0.4-0.4-0.7-0.5v-2.6h4.4v0.8c0,0.1,0,0.2,0.1,0.2c0,0,0.1,0,0.1,0c0,0,0.1,0,0.1,0
		c0.6-0.5,1.1-0.8,1.6-1c0.5-0.2,1-0.3,1.6-0.3c0.6,0,1.1,0.1,1.6,0.3c0.5,0.2,1,0.5,1.6,1c0,0,0.1,0.1,0.1,0.1c0,0,0.1,0,0.1,0
		c0.6-0.4,1.2-0.8,1.9-1c0.7-0.2,1.3-0.4,2-0.4c0.7,0,1.3,0.1,1.8,0.4c0.6,0.3,1.1,0.6,1.4,1.1c0.2,0.3,0.4,0.6,0.5,0.9
		c0.1,0.3,0.1,0.8,0.1,1.3v5.6v0.8c0,0.5,0.1,0.8,0.2,1c0.1,0.2,0.4,0.3,0.7,0.4V44.5z"/>
	<path fill-rule="evenodd" clip-rule="evenodd" fill="#FFFFFF" d="M165,38C165,38,164.9,38,165,38c-0.3,0.1-0.5,0.2-0.6,0.3
		c-0.1,0-0.6,0.3-1,0.5l-0.6,0.3c-0.9,0.5-1.3,1-1.3,1.7c0,0.4,0.1,0.7,0.4,0.9c0.2,0.2,0.6,0.3,0.9,0.3c0.3,0,0.7-0.1,1.1-0.4
		c0.4-0.3,0.8-0.6,1.2-1c0,0,0.1-0.1,0.1-0.1v-2.3c0-0.1,0-0.1-0.1-0.2C165.1,38,165,38,165,38 M161.2,44.6c-1.2,0-2-0.3-2.7-0.9
		c-0.6-0.6-0.9-1.6-0.9-2.8c0-1.3,0.5-2.2,1.6-3c0.4-0.3,1-0.6,1.9-1c0.4-0.1,3.4-1.2,3.9-1.3c0.1,0,0.1-0.1,0.1-0.2v-0.3
		c0-0.9-0.1-1.4-0.4-1.8c-0.2-0.4-0.7-0.6-1.3-0.6c-0.5,0-0.9,0.2-1.2,0.5c-0.3,0.3-0.4,0.7-0.4,1.2v0.4h-3.6v-3.1
		c0.9-0.4,1.8-0.8,2.7-1c1-0.3,1.9-0.4,2.8-0.4c1.5,0,2.7,0.3,3.6,1c0.5,0.4,0.8,0.8,1,1.2c0.2,0.4,0.3,0.9,0.3,1.6v6.4
		c0,0.5,0.1,0.8,0.2,1c0.1,0.2,0.4,0.4,0.7,0.4v2.5h-4.3v-1.1c0-0.1,0-0.2-0.1-0.2c0,0-0.1,0-0.1,0c0,0-0.1,0-0.1,0
		c-0.8,0.6-1.4,0.9-2,1.1C162.6,44.5,162,44.6,161.2,44.6"/>
	<path fill="#FFFFFF" d="M184.7,44.5h-4.3c0-0.2-0.1-0.4-0.1-0.5l-0.1-0.3l-0.1-0.3l0-0.4l0-0.4l0-1.1V41v-5v-0.4c0-0.5,0-0.9,0-1.1
		c0-0.3-0.1-0.5-0.2-0.7c-0.1-0.3-0.4-0.5-0.7-0.7c-0.3-0.2-0.6-0.3-1-0.3c-0.6,0-1.3,0.3-2,0.8c-0.1,0-0.1,0.1-0.1,0.2v5.8V40v0.4
		c0,0.5,0.1,0.8,0.2,1.1c0.1,0.2,0.4,0.3,0.7,0.5v2.6h-5.4v-2.6c0.4-0.1,0.6-0.3,0.7-0.5c0.1-0.2,0.2-0.7,0.2-1.4v-0.3v-4.3v-0.3
		c0-0.7-0.1-1.2-0.2-1.4c-0.1-0.2-0.3-0.4-0.7-0.5v-2.6h4.4v0.8c0,0.1,0.1,0.1,0.1,0.2c0,0,0.1,0,0.1,0c0.1,0,0.1,0,0.2,0
		c0.7-0.4,1.3-0.7,1.8-0.9c0.5-0.2,1-0.2,1.7-0.2c1.3,0,2.3,0.3,2.9,1c0.7,0.7,1,1.6,1,2.8v0.5v5v0.7c0,0.5,0.1,0.9,0.2,1.1
		c0.1,0.2,0.4,0.3,0.7,0.4V44.5z"/>
	<path fill="#FFFFFF" d="M199.8,44.5h-4.3c0-0.2-0.1-0.4-0.1-0.5l-0.1-0.4l0-0.3l0-0.4l0-0.4v-1.1V41v-5v-0.4c0-0.5,0-0.9,0-1.1
		c0-0.3-0.1-0.5-0.2-0.7c-0.1-0.3-0.4-0.5-0.7-0.7c-0.3-0.2-0.6-0.3-1-0.3c-0.6,0-1.3,0.3-2,0.8c-0.1,0-0.1,0.1-0.1,0.2v5.8V40v0.4
		c0,0.5,0.1,0.8,0.2,1.1c0.1,0.2,0.4,0.3,0.7,0.5v2.6h-5.4v-2.6c0.4-0.1,0.6-0.3,0.7-0.5c0.1-0.2,0.2-0.7,0.2-1.4v-0.3v-4.3v-0.3
		c0-0.7-0.1-1.2-0.2-1.4c-0.1-0.2-0.3-0.4-0.7-0.5v-2.6h4.4v0.8c0,0.1,0.1,0.1,0.1,0.2c0,0,0.1,0,0.1,0c0.1,0,0.1,0,0.2,0
		c0.7-0.4,1.3-0.7,1.8-0.9c0.5-0.2,1-0.2,1.7-0.2c1.3,0,2.2,0.3,2.9,1c0.7,0.7,1,1.6,1,2.8v0.5v5v0.7c0,0.5,0.1,0.9,0.2,1.1
		c0.1,0.2,0.4,0.3,0.7,0.4V44.5z"/>
	<path fill-rule="evenodd" clip-rule="evenodd" fill="#ED125F" d="M5.4,41H7h0.6c0.8,0,1.4-0.2,1.7-0.5c0.3-0.4,0.5-1,0.5-1.8
		s-0.2-1.4-0.5-1.7c-0.3-0.4-0.9-0.6-1.7-0.6H7H5.4V41z M5.4,33.1H7h0.4c0.8,0,1.3-0.2,1.6-0.5c0.3-0.3,0.5-0.8,0.5-1.5
		c0-0.7-0.2-1.2-0.5-1.5c-0.3-0.3-0.9-0.5-1.6-0.5H7H5.4V33.1z M0,41.5c0.4-0.1,0.6-0.2,0.8-0.5C0.9,40.8,1,40.5,1,40v-0.4v-9.2
		v-0.4c0-0.5-0.1-0.9-0.2-1c-0.1-0.2-0.4-0.4-0.8-0.5v-3.2h7.2h0.4c1,0,1.8,0.1,2.4,0.2c0.6,0.1,1.1,0.3,1.6,0.6
		c0.7,0.4,1.3,1,1.7,1.8c0.4,0.8,0.6,1.7,0.6,2.7c0,2.3-0.9,3.9-2.7,4.4c2.1,0.5,3.1,1.8,3.1,4.4c0,1-0.2,1.9-0.5,2.7
		c-0.3,0.8-0.8,1.4-1.3,1.8c-0.4,0.3-1,0.5-1.6,0.7c-0.6,0.1-1.5,0.2-2.7,0.2H7.9H0V41.5z"/>
	<path fill-rule="evenodd" clip-rule="evenodd" fill="#ED125F" d="M23.2,38.2c-0.2,0.1-0.4,0.2-0.6,0.3c-0.1,0.1-1.3,0.6-1.6,0.8
		c-0.8,0.4-1.2,0.9-1.2,1.5c0,0.3,0.1,0.6,0.3,0.8c0.2,0.2,0.5,0.3,0.8,0.3c0.3,0,0.7-0.1,1-0.3c0.4-0.3,0.8-0.6,1.2-1V38.2z
		 M16.4,31.6c0.9-0.5,1.9-0.8,2.9-1.1c1-0.3,2-0.4,2.8-0.4c1.5,0,2.8,0.4,3.7,1.1c0.5,0.4,0.9,0.8,1.1,1.3c0.2,0.4,0.3,1,0.3,1.7
		v6.4c0,0.4,0.1,0.7,0.2,0.9c0.1,0.2,0.3,0.3,0.7,0.4v2.9h-4.7v-1.4c-0.8,0.6-1.4,0.9-2,1.2c-0.6,0.2-1.2,0.3-2,0.3
		c-1.2,0-2.1-0.3-2.8-1c-0.7-0.7-1-1.7-1-2.9c0-1.4,0.6-2.3,1.7-3.1c0.4-0.3,1.1-0.6,2-1c0.4-0.1,3.4-1.2,3.9-1.4v-0.3
		c0-0.8-0.1-1.4-0.3-1.7c-0.2-0.3-0.6-0.5-1.1-0.5c-0.4,0-0.8,0.1-1.1,0.4c-0.3,0.3-0.4,0.6-0.4,1V35h-4V31.6z"/>
	<path fill="#ED125F" d="M40.6,35h-3.7v-0.2c0-1.2-0.5-1.8-1.5-1.8c-0.4,0-0.7,0.1-1,0.4c-0.3,0.2-0.4,0.6-0.4,1
		c0,0.5,0.2,0.9,0.7,1.2c0.1,0.1,0.2,0.1,0.3,0.2c0.1,0.1,0.8,0.3,1,0.4c0.3,0.1,0.6,0.2,1,0.3c0.9,0.3,1.5,0.5,2,0.7
		c0.4,0.2,0.8,0.4,1,0.7c0.6,0.6,0.8,1.5,0.8,2.7c0,3-1.8,4.5-5.3,4.5c-0.4,0-0.9,0-1.3-0.1c-0.4,0-0.9-0.1-1.3-0.2
		c-0.5-0.1-1-0.2-1.5-0.3c-0.5-0.2-1.1-0.3-1.7-0.6v-3.9h4v0.3c0,0.6,0.1,1.1,0.3,1.4c0.2,0.3,0.6,0.4,1.1,0.4c0.4,0,0.7-0.1,1-0.3
		c0.3-0.3,0.4-0.6,0.4-1c0-0.2,0-0.4-0.1-0.5c-0.1-0.2-0.2-0.3-0.4-0.5c-0.2-0.1-0.4-0.3-0.7-0.4c-0.3-0.1-0.7-0.3-1.2-0.4
		c-0.5-0.1-0.9-0.3-1.2-0.4c-0.3-0.1-0.6-0.3-0.9-0.3c-0.3-0.1-0.5-0.2-0.7-0.3c-0.2-0.1-0.3-0.2-0.5-0.3c-0.8-0.6-1.2-1.6-1.2-2.8
		c0-1.4,0.5-2.5,1.4-3.3c1-0.8,2.4-1.2,4.1-1.2c0.8,0,1.5,0.1,2.3,0.3c0.8,0.2,1.6,0.5,2.6,0.8l0.4,0.2V35L40.6,35z"/>
	<path fill="#ED125F" d="M42.2,41.8c0.2-0.1,0.3-0.1,0.5-0.2c0.1-0.1,0.2-0.2,0.3-0.3C43,41.2,43,41,43,40.8c0-0.2,0-0.5,0-0.8v-0.3
		v-9.3v-0.3c0-0.3,0-0.6,0-0.8c0-0.2-0.1-0.4-0.1-0.5c-0.1-0.1-0.1-0.2-0.3-0.3c-0.1-0.1-0.3-0.1-0.5-0.2v-3h4.9v14.3V40
		c0,0.3,0,0.6,0,0.8c0,0.2,0.1,0.4,0.1,0.5c0.1,0.1,0.2,0.2,0.3,0.3c0.1,0.1,0.3,0.1,0.5,0.2v2.9h-5.8V41.8z"/>
	<path fill-rule="evenodd" clip-rule="evenodd" fill="#ED125F" d="M57,35.8v-0.3v-0.4c0-1.4-0.6-2.1-1.7-2.1c-0.5,0-1,0.2-1.3,0.5
		c-0.3,0.4-0.4,0.9-0.4,1.6v0.4v0.3H57z M53.5,38.4v1.2v0.3c0,1.5,0.6,2.2,1.7,2.2c1.1,0,1.7-0.7,1.7-2v-0.1H61v3.5
		c-1.8,1.1-3.7,1.6-5.7,1.6c-1.1,0-2.1-0.2-3-0.5c-0.9-0.3-1.5-0.8-2-1.4c-0.2-0.2-0.3-0.4-0.4-0.6c-0.1-0.2-0.2-0.4-0.2-0.6
		c-0.1-0.3-0.1-0.5-0.1-0.8c0-0.3,0-0.7,0-1.1v-4.8c0-0.8,0.1-1.4,0.2-1.9c0.1-0.5,0.3-0.9,0.7-1.3c0.5-0.6,1.1-1.1,2-1.4
		c0.8-0.3,1.8-0.5,3-0.5c1.1,0,2.1,0.2,2.9,0.5c0.9,0.3,1.6,0.8,2.1,1.4c0.2,0.2,0.3,0.4,0.4,0.5c0.1,0.2,0.2,0.4,0.2,0.6
		c0.1,0.2,0.1,0.5,0.1,0.8c0,0.3,0,0.7,0,1.2v3.2H53.5z"/>
	<path fill="#ED125F" d="M62.8,41.8c0.2-0.1,0.3-0.1,0.5-0.2c0.1-0.1,0.2-0.2,0.3-0.3c0.1-0.1,0.1-0.3,0.1-0.5c0-0.2,0-0.5,0-0.8
		v-0.3v-4.3v-0.3c0-0.7-0.1-1.1-0.2-1.3c-0.1-0.2-0.3-0.4-0.7-0.5v-2.9h4.7v1.2l0.1-0.1c0.3-0.4,0.6-0.8,1-1
		c0.3-0.2,0.7-0.3,1.2-0.3c0.3,0,0.5,0.1,0.8,0.1v4.2c-0.2,0-0.3,0-0.4,0c-0.1,0-0.2,0-0.3,0c-1.4,0-2.1,0.8-2.1,2.4v0.4v2.4V40
		c0,0.3,0,0.6,0,0.8c0,0.2,0.1,0.4,0.1,0.5c0.1,0.1,0.1,0.2,0.3,0.3c0.1,0.1,0.3,0.1,0.5,0.2v2.9h-5.8V41.8z"/>
	<path fill="#ED125F" d="M81.2,28.7c0,0.4,0,0.5,0.3,0.9c0.2,0.4,0.5,1,1,1.7c0.7-0.4,1-1,1-1.3c0,0,0,0,0,0c0-0.5-0.1-0.8-0.5-1.4
		c-0.3-0.5-0.6-0.7-1.1-0.7c-0.2,0-0.3,0-0.4,0.1l0,0C81.3,28.1,81.2,28.3,81.2,28.7 M81,27.3c0.3-0.2,0.6-0.3,0.9-0.3
		c0.8,0,1.4,0.4,1.8,1.1c0.4,0.6,0.5,1.2,0.6,1.8c0,0,0,0.1,0,0.1c0,0.9-0.7,1.7-1.8,2.2l-0.3,0.2l-0.2-0.3c-0.6-0.9-1-1.6-1.2-2.1
		c-0.2-0.5-0.4-0.9-0.4-1.3C80.3,28.1,80.5,27.6,81,27.3 M81.5,41c0.4,0,0.7-0.2,1.1-0.4c-0.4-0.5-1.1-1.3-1.8-2.5
		c-0.6-1-1.1-1.7-1.3-2.2c-0.3,0.2-0.4,0.3-0.5,0.4c-0.2,0.2-0.4,0.5-0.4,1c0,0.1,0,0.1,0,0.2c0,0.7,0.2,1.3,0.8,2.2
		c0.6,0.8,1.2,1.2,1.7,1.2C81.2,41,81.4,41,81.5,41 M81.5,41.8c-0.1,0-0.4,0-0.5,0c-0.9-0.1-1.6-0.7-2.3-1.6c-0.7-0.9-1-1.8-1-2.7
		c0-0.1,0-0.2,0-0.2c0-0.7,0.3-1.2,0.6-1.5c0.2-0.3,0.5-0.5,1.1-0.9l0.4-0.2l0.2,0.4c0,0,0.5,0.9,1.5,2.5c1,1.6,2,2.7,2,2.7l0.3,0.3
		l-0.3,0.3C83.1,41.2,82.4,41.8,81.5,41.8 M85,42c0,0,0.2,0.3,0.6,0.6c0.3,0.3,0.8,0.7,1,0.9c0.8,0.5,1.4,0.7,2.1,0.7
		c1,0,1.9-0.4,2.7-1.3c0.2-0.3,0.5-0.6,0.7-0.9c-0.3,0.2-0.8,0.4-1.2,0.4c-0.7,0-1.4-0.4-1.9-0.8c-0.5-0.3-1.2-0.9-1.8-1.6L87,39.7
		l0.2-0.3c0.7-0.9,1.7-2.6,3.2-3.7c0.7-0.5,1.5-0.6,2-0.6V34c-0.1,0-0.2,0-0.2,0c-0.2,0-0.5,0-0.8,0.1c-1.1,0.2-2,0.8-2.7,1.6
		c-0.7,0.8-1.1,1.1-2.2,2.5l-0.3,0.4l-0.3-0.4c0,0-0.9-1-1.7-2.3c-0.6-1-1.3-2.2-1.3-2.2l-0.2-0.4l0.4-0.2c0.5-0.3,2.3-1.1,2.9-1.8
		c0.6-0.6,0.9-1.4,0.9-2.2c0-0.7-0.3-1.7-1-2.2c-0.7-0.6-1.7-1.1-3-1.1c-1.6,0-2.8,0.6-3.6,1.3c-0.8,0.7-1.2,1.8-1.2,2.9
		c0,0.5,0.1,1,0.3,1.5c0.2,0.5,0.4,1,0.7,1.6l0.2,0.4l-0.4,0.2c-1.3,0.7-2.1,1.3-3,2.2c-1.2,1.1-1.8,2.3-1.8,3.8
		c0,1.2,0.7,2.5,1.6,3.2c1,0.8,2,1.1,3.2,1.1c1.1,0,2.2-0.3,3.3-0.8c1.1-0.5,2.3-1.4,2.3-1.4l0.3-0.3L85,42z M88.8,45
		c-0.9,0-1.8-0.4-2.6-0.9c-0.6-0.3-1.2-1-1.5-1.3c-0.4,0.3-1.3,0.9-2.1,1.3c-1.2,0.5-2.4,0.8-3.6,0.8c-1.4,0-2.6-0.5-3.7-1.3
		c-1.1-0.9-1.9-2.4-1.9-3.9c0-1.7,0.8-3.2,2.1-4.4c0.8-0.8,1.7-1.4,2.8-2.1c-0.2-0.5-0.4-0.9-0.6-1.3c-0.2-0.6-0.3-1.2-0.3-1.8
		c0-1.3,0.5-2.7,1.5-3.6c0.9-0.8,2.3-1.5,4.2-1.5c1.5,0,2.7,0.6,3.5,1.3c0.9,0.7,1.2,1.9,1.3,2.8c0,1-0.4,2-1.1,2.8
		c-0.7,0.7-2,1.4-2.7,1.7c0.2,0.4,0.7,1.2,1.1,1.8c0.5,0.8,1,1.5,1.3,1.9c0.9-1.1,1.3-1.4,1.9-2.1c0.8-1,1.9-1.7,3.2-1.9
		c0.4-0.1,0.7-0.1,1-0.1c0.4,0,0.7,0.1,0.7,0.1l0.3,0.1V36l-0.4,0c-0.1,0-0.2,0-0.4,0c-0.5,0-1,0.1-1.6,0.4
		c-1.2,0.9-2.1,2.2-2.9,3.2c0.5,0.5,1,0.9,1.4,1.2c0.4,0.3,1.1,0.6,1.4,0.6c0.3,0,0.6-0.1,0.8-0.3c0.1-0.1,0.2-0.3,0.4-0.5l0.2-0.4
		l1.2,0.7l-0.2,0.3c-0.4,0.9-0.8,1.5-1.3,2.1C91.1,44.5,90,45,88.8,45L88.8,45z"/>
	<path fill="#ED125F" d="M97.1,41.5c0.4-0.1,0.6-0.2,0.8-0.5c0.2-0.2,0.2-0.6,0.2-1.1v-0.4v-9.2v-0.4c0-0.5-0.1-0.9-0.2-1.1
		c-0.1-0.2-0.4-0.4-0.8-0.5v-3.2h6.5v3.2c-0.4,0.1-0.7,0.3-0.8,0.5c-0.1,0.2-0.2,0.6-0.2,1v0.4v2.7h4.2v-2.7v-0.4
		c0-0.5-0.1-0.9-0.2-1.1c-0.1-0.2-0.4-0.4-0.8-0.5v-3.2h6.5v3.2c-0.4,0.1-0.7,0.3-0.8,0.5c-0.1,0.2-0.2,0.6-0.2,1v0.4v9.2V40
		c0,0.5,0.1,0.9,0.2,1.1c0.2,0.2,0.4,0.4,0.8,0.5v3.2h-6.5v-3.2c0.4-0.1,0.6-0.2,0.8-0.5c0.2-0.2,0.2-0.6,0.2-1.1v-0.4v-3.2h-4.2
		v3.2V40c0,0.5,0.1,0.9,0.2,1.1c0.1,0.2,0.4,0.4,0.8,0.5v3.2h-6.5V41.5z"/>
	<path fill-rule="evenodd" clip-rule="evenodd" fill="#ED125F" d="M121.3,35.6v-0.4c0-1.4-0.6-2.1-1.7-2.1c-0.5,0-1,0.2-1.3,0.5
		c-0.3,0.4-0.4,0.9-0.4,1.6v0.4v3.9v0.4c0,1.4,0.6,2.1,1.7,2.1c1.1,0,1.7-0.7,1.7-2.1v-0.4V35.6z M125.3,40c0,0.8-0.1,1.4-0.2,1.9
		c-0.1,0.4-0.3,0.9-0.7,1.3c-0.5,0.6-1.1,1.1-2,1.4c-0.8,0.3-1.8,0.5-2.9,0.5c-1.1,0-2.1-0.2-2.9-0.5c-0.8-0.3-1.5-0.8-2-1.4
		c-0.3-0.4-0.6-0.8-0.7-1.3c-0.1-0.4-0.2-1.1-0.2-1.9v-4.8c0-0.8,0.1-1.4,0.2-1.9c0.1-0.4,0.4-0.9,0.7-1.3c0.5-0.6,1.2-1.1,2-1.4
		c0.8-0.3,1.8-0.5,2.9-0.5c1.1,0,2.1,0.2,2.9,0.5c0.9,0.3,1.5,0.8,2,1.4c0.3,0.4,0.6,0.8,0.7,1.3c0.1,0.4,0.2,1.1,0.2,1.9V40z"/>
	<path fill="#ED125F" d="M133.8,28.2c-0.1,0-0.3-0.1-0.4-0.1c-0.5,0-0.9,0.2-1.1,0.5c-0.2,0.3-0.3,0.8-0.3,1.5v0.2h1.6v2.9h-1.6v6.4
		V40c0,0.3,0,0.6,0,0.8c0,0.2,0.1,0.4,0.1,0.5c0.1,0.1,0.1,0.2,0.3,0.3c0.1,0.1,0.3,0.1,0.5,0.2v2.9H127v-2.9
		c0.2-0.1,0.3-0.1,0.5-0.2c0.1-0.1,0.2-0.2,0.3-0.3c0.1-0.1,0.1-0.3,0.1-0.5c0-0.2,0-0.5,0-0.8v-0.4v-6.2H127v-2.9h0.9v-0.6
		c0-0.5,0-0.9,0-1.2c0-0.3,0.1-0.6,0.1-0.9c0.1-0.3,0.1-0.5,0.3-0.7c0.1-0.2,0.3-0.4,0.4-0.6c0.7-0.8,1.7-1.2,3.1-1.2
		c0.3,0,0.6,0,0.9,0.1c0.3,0,0.6,0.1,1.1,0.2V28.2z"/>
	<path fill="#ED125F" d="M135.4,30.4h4.8v1c0.6-0.5,1.2-0.8,1.7-1c0.5-0.2,1.1-0.3,1.7-0.3c0.6,0,1.2,0.1,1.7,0.3
		c0.5,0.2,1.1,0.6,1.6,1.1c0.6-0.4,1.3-0.8,2-1c0.7-0.3,1.4-0.4,2.1-0.4c0.7,0,1.3,0.1,1.9,0.4c0.6,0.3,1.1,0.7,1.5,1.2
		c0.2,0.3,0.4,0.6,0.5,1c0.1,0.3,0.1,0.8,0.1,1.3v5.6v0.8c0,0.4,0.1,0.8,0.2,0.9c0.1,0.2,0.4,0.3,0.7,0.4v2.9h-4.6
		c-0.1-0.2-0.1-0.4-0.2-0.5c0-0.2-0.1-0.3-0.1-0.5c0-0.2,0-0.5-0.1-0.7v-1v-0.6v-5.6c0-0.4,0-0.7-0.1-0.9c0-0.3-0.1-0.5-0.1-0.6
		c-0.2-0.6-0.8-0.9-1.6-0.9c-0.3,0-0.5,0-0.8,0.1c-0.2,0.1-0.5,0.2-0.8,0.4V34v0.4v0.4v0.4v4.5v0.8c0,0.4,0.1,0.8,0.2,0.9
		c0.1,0.2,0.4,0.3,0.7,0.4v2.9h-4.6c-0.1-0.4-0.2-0.7-0.3-1c0-0.3-0.1-0.8-0.1-1.4v-0.7v-5.7v-0.4c0-1.4-0.5-2.1-1.7-2.1
		c-0.2,0-0.5,0-0.7,0.1c-0.2,0.1-0.5,0.2-0.8,0.3l-0.1,0.1v5.9v1c0,0.2,0.1,0.4,0.1,0.6c0.1,0.1,0.1,0.2,0.3,0.3
		c0.1,0.1,0.3,0.1,0.5,0.2v2.9h-5.8v-2.9c0.3-0.1,0.6-0.2,0.7-0.4c0.1-0.2,0.2-0.5,0.2-0.9V40v-0.3v-4.3v-0.3v-0.3
		c0-0.5-0.1-0.8-0.2-1c-0.1-0.2-0.4-0.4-0.7-0.5V30.4z"/>
	<path fill-rule="evenodd" clip-rule="evenodd" fill="#ED125F" d="M165,38.2c-0.2,0.1-0.4,0.2-0.5,0.3c-0.1,0.1-1.3,0.6-1.6,0.8
		c-0.8,0.4-1.2,0.9-1.2,1.5c0,0.3,0.1,0.6,0.3,0.8c0.2,0.2,0.5,0.3,0.8,0.3c0.3,0,0.7-0.1,1-0.3c0.4-0.3,0.8-0.6,1.2-1V38.2z
		 M158.1,31.6c0.9-0.5,1.9-0.8,2.9-1.1c1-0.3,2-0.4,2.8-0.4c1.5,0,2.8,0.4,3.7,1.1c0.5,0.4,0.9,0.8,1.1,1.3c0.2,0.4,0.3,1,0.3,1.7
		v6.4c0,0.4,0.1,0.7,0.2,0.9c0.1,0.2,0.3,0.3,0.7,0.4v2.9h-4.7v-1.4c-0.8,0.6-1.4,0.9-2,1.2c-0.6,0.2-1.2,0.3-2,0.3
		c-1.2,0-2.1-0.3-2.8-1c-0.7-0.7-1-1.7-1-2.9c0-1.4,0.6-2.3,1.7-3.1c0.4-0.3,1.1-0.6,2-1c0.4-0.1,3.4-1.2,3.9-1.4v-0.3
		c0-0.8-0.1-1.4-0.3-1.7c-0.2-0.3-0.6-0.5-1.1-0.5c-0.4,0-0.8,0.1-1.1,0.4c-0.3,0.3-0.4,0.6-0.4,1V35h-4V31.6z"/>
	<path fill="#ED125F" d="M171.4,41.8c0.4-0.1,0.6-0.3,0.7-0.5c0.1-0.2,0.2-0.7,0.2-1.3v-0.3v-4.3v-0.3c0-0.7-0.1-1.1-0.2-1.3
		c-0.1-0.2-0.3-0.4-0.7-0.5v-2.9h4.8v1l0.1,0c0.7-0.4,1.3-0.8,1.9-0.9c0.5-0.2,1.1-0.3,1.8-0.3c1.3,0,2.4,0.4,3.1,1.1
		c0.7,0.7,1.1,1.7,1.1,3v0.5v5v0.7c0,0.5,0.1,0.8,0.2,1c0.1,0.2,0.4,0.3,0.8,0.4v2.9h-4.7c-0.1-0.3-0.1-0.5-0.2-0.7
		c0-0.2-0.1-0.4-0.1-0.7c0-0.3,0-0.5-0.1-0.8v-1.1V41v-5v-0.4c0-0.5,0-0.9,0-1.1c0-0.2-0.1-0.4-0.2-0.6c-0.1-0.3-0.3-0.5-0.6-0.6
		c-0.3-0.2-0.6-0.2-0.9-0.2c-0.6,0-1.2,0.3-1.9,0.8v5.8V40v0.4c0,0.5,0,0.8,0.1,1c0.1,0.2,0.4,0.3,0.7,0.4v2.9h-5.8V41.8z"/>
	<path fill="#ED125F" d="M186.4,41.8c0.4-0.1,0.6-0.3,0.7-0.5c0.1-0.2,0.2-0.7,0.2-1.3v-0.3v-4.3v-0.3c0-0.7-0.1-1.1-0.2-1.3
		c-0.1-0.2-0.3-0.4-0.7-0.5v-2.9h4.8v1l0.1,0c0.7-0.4,1.3-0.8,1.9-0.9c0.5-0.2,1.1-0.3,1.8-0.3c1.3,0,2.4,0.4,3.1,1.1
		c0.7,0.7,1.1,1.7,1.1,3v0.5v5v0.7c0,0.5,0.1,0.8,0.2,1c0.1,0.2,0.4,0.3,0.8,0.4v2.9h-4.7c-0.1-0.3-0.1-0.5-0.2-0.7
		c0-0.2-0.1-0.4-0.1-0.7c0-0.3,0-0.5-0.1-0.8v-1.1V41v-5v-0.4c0-0.5,0-0.9,0-1.1c0-0.2-0.1-0.4-0.2-0.6c-0.1-0.3-0.3-0.5-0.6-0.6
		c-0.3-0.2-0.6-0.2-0.9-0.2c-0.6,0-1.2,0.3-1.9,0.8v5.8V40v0.4c0,0.5,0,0.8,0.1,1c0.1,0.2,0.4,0.3,0.7,0.4v2.9h-5.8V41.8z"/>
</g>
</svg>
