<?xml version="1.0" encoding="UTF-8" standalone="no"?>
<svg width="25px" height="26px" viewBox="0 0 25 26" version="1.1" xmlns="http://www.w3.org/2000/svg" xmlns:xlink="http://www.w3.org/1999/xlink" xmlns:sketch="http://www.bohemiancoding.com/sketch/ns">
    <!-- Generator: Sketch 3.3.1 (12005) - http://www.bohemiancoding.com/sketch -->
    <title>Rectangle 125 Copy + Type something Copy</title>
    <desc>Created with Sketch.</desc>
    <defs></defs>
    <g id="Offene-Stelle" stroke="none" stroke-width="1" fill="none" fill-rule="evenodd" sketch:type="MSPage">
        <g id="Form-" sketch:type="MSArtboardGroup" transform="translate(-598.000000, -700.000000)">
            <g id="Rectangle-125-Copy-+-Type-something-Copy" sketch:type="MSLayerGroup" transform="translate(598.000000, 700.000000)">
                <rect id="Rectangle-125-Copy" stroke="#BBBBBB" sketch:type="MSShapeGroup" x="0" y="0.5" width="25" height="25"></rect>
                <path d="M11.1640625,18.8046875 L20.8125,9.4296875 C20.8645836,9.37760391 20.9101561,9.31901074 20.9492188,9.25390625 C20.9882814,9.18880176 21.0078125,9.11718789 21.0078125,9.0390625 C21.0078125,8.96093711 20.9882814,8.88281289 20.9492188,8.8046875 C20.9101561,8.72656211 20.8645836,8.66145859 20.8125,8.609375 L19.25,7.0859375 C19.1979164,7.03385391 19.1328129,6.98828145 19.0546875,6.94921875 C18.9765621,6.91015605 18.8984379,6.890625 18.8203125,6.890625 C18.7421871,6.890625 18.6640629,6.91015605 18.5859375,6.94921875 C18.5078121,6.98828145 18.4427086,7.03385391 18.390625,7.0859375 L10.734375,14.5078125 L7.609375,11.5390625 C7.55729141,11.4609371 7.49218789,11.4088543 7.4140625,11.3828125 C7.33593711,11.3567707 7.25781289,11.34375 7.1796875,11.34375 C7.10156211,11.34375 7.02994824,11.3567707 6.96484375,11.3828125 C6.89973926,11.4088543 6.82812539,11.4609371 6.75,11.5390625 L5.1875,13.0625 C5.13541641,13.1145836 5.08984395,13.1796871 5.05078125,13.2578125 C5.01171855,13.3359379 4.9921875,13.4010414 4.9921875,13.453125 C4.9921875,13.5572922 5.01171855,13.6419268 5.05078125,13.7070312 C5.08984395,13.7721357 5.13541641,13.8307289 5.1875,13.8828125 L10.3046875,18.8046875 C10.3567711,18.8828129 10.4218746,18.9348957 10.5,18.9609375 C10.5781254,18.9869793 10.6562496,19 10.734375,19 C10.8125004,19 10.8906246,18.9869793 10.96875,18.9609375 C11.0468754,18.9348957 11.1119789,18.8828129 11.1640625,18.8046875 L11.1640625,18.8046875 Z" id="Type-something-Copy" fill="#DC2856" sketch:type="MSShapeGroup"></path>
            </g>
        </g>
    </g>
</svg>